<mxfile host="Electron" agent="Mozilla/5.0 (Windows NT 10.0; Win64; x64) AppleWebKit/537.36 (KHTML, like Gecko) draw.io/25.0.1 Chrome/128.0.6613.186 Electron/32.2.6 Safari/537.36" version="25.0.1" pages="20">
  <diagram name="entities1" id="g9_AzJT0dujKAsQWV2Mb">
    <mxGraphModel dx="1685" dy="511" grid="1" gridSize="10" guides="1" tooltips="1" connect="1" arrows="1" fold="1" page="1" pageScale="1" pageWidth="800" pageHeight="500" backgroundImage="{&quot;src&quot;:&quot;data:page/id,pKgziUaKLTQ8jrkvlHAj&quot;}" math="0" shadow="0">
      <root>
        <mxCell id="R3GkrDcKKSF8XlA2Kajp-0" />
        <mxCell id="R3GkrDcKKSF8XlA2Kajp-1" parent="R3GkrDcKKSF8XlA2Kajp-0" />
        <mxCell id="WuOWpJB1JVVd9y_7BshX-1" value="legend" style="rounded=1;whiteSpace=wrap;html=1;align=left;verticalAlign=top;spacingTop=0;spacing=2;spacingLeft=4;fontSize=14;fontStyle=1;strokeColor=none;" vertex="1" parent="R3GkrDcKKSF8XlA2Kajp-1">
          <mxGeometry x="-310" y="335" width="240" height="95" as="geometry" />
        </mxCell>
        <mxCell id="R3GkrDcKKSF8XlA2Kajp-2" value="" style="shape=waypoint;sketch=0;size=6;pointerEvents=1;points=[];fillColor=none;resizable=0;rotatable=0;perimeter=centerPerimeter;snapToPoint=1;strokeColor=none;" vertex="1" parent="R3GkrDcKKSF8XlA2Kajp-1">
          <mxGeometry x="-646" y="30" width="20" height="20" as="geometry" />
        </mxCell>
        <mxCell id="R3GkrDcKKSF8XlA2Kajp-3" value="" style="shape=waypoint;sketch=0;size=6;pointerEvents=1;points=[];fillColor=none;resizable=0;rotatable=0;perimeter=centerPerimeter;snapToPoint=1;strokeColor=none;" vertex="1" parent="R3GkrDcKKSF8XlA2Kajp-1">
          <mxGeometry x="-249" y="30" width="20" height="20" as="geometry" />
        </mxCell>
        <mxCell id="R3GkrDcKKSF8XlA2Kajp-7" value="Practitioner 1" style="rounded=1;whiteSpace=wrap;html=1;align=left;verticalAlign=top;spacingTop=0;spacing=2;spacingLeft=4;fontSize=14;fontStyle=1;strokeColor=#999999;fontColor=#999999;" vertex="1" parent="R3GkrDcKKSF8XlA2Kajp-1">
          <mxGeometry x="-750" y="90" width="130" height="25" as="geometry" />
        </mxCell>
        <mxCell id="R3GkrDcKKSF8XlA2Kajp-8" value="Organization 1" style="rounded=1;whiteSpace=wrap;html=1;align=left;verticalAlign=top;spacingTop=0;spacing=2;spacingLeft=4;fontSize=14;fontStyle=1;strokeColor=#000000;fontColor=#000000;" vertex="1" parent="R3GkrDcKKSF8XlA2Kajp-1">
          <mxGeometry x="-750" y="60" width="130" height="25" as="geometry" />
        </mxCell>
        <mxCell id="R3GkrDcKKSF8XlA2Kajp-9" value="PractitionerRole 1" style="rounded=1;whiteSpace=wrap;html=1;align=left;verticalAlign=top;spacingTop=0;spacing=2;spacingLeft=4;fontSize=14;fontStyle=1;strokeColor=#999999;fontColor=#999999;" vertex="1" parent="R3GkrDcKKSF8XlA2Kajp-1">
          <mxGeometry x="-750" y="120" width="130" height="25" as="geometry" />
        </mxCell>
        <mxCell id="R3GkrDcKKSF8XlA2Kajp-10" value="Organization 2" style="rounded=1;whiteSpace=wrap;html=1;align=left;verticalAlign=top;spacingTop=0;spacing=2;spacingLeft=4;fontSize=14;fontStyle=1;strokeColor=#000000;fontColor=#000000;" vertex="1" parent="R3GkrDcKKSF8XlA2Kajp-1">
          <mxGeometry x="-750" y="150" width="130" height="25" as="geometry" />
        </mxCell>
        <mxCell id="R3GkrDcKKSF8XlA2Kajp-11" value="HealthcareService 2" style="rounded=1;whiteSpace=wrap;html=1;align=left;verticalAlign=top;spacingTop=0;spacing=2;spacingLeft=1;fontSize=13;fontStyle=1;strokeColor=#999999;fontColor=#999999;" vertex="1" parent="R3GkrDcKKSF8XlA2Kajp-1">
          <mxGeometry x="-750" y="240" width="130" height="25" as="geometry" />
        </mxCell>
        <mxCell id="R3GkrDcKKSF8XlA2Kajp-17" value="Endpoint EHR 2" style="rounded=1;whiteSpace=wrap;html=1;align=left;verticalAlign=top;spacingTop=0;spacing=2;spacingLeft=4;fontSize=14;fontStyle=1;strokeColor=#000000;" vertex="1" parent="R3GkrDcKKSF8XlA2Kajp-1">
          <mxGeometry x="-750" y="179.5" width="130" height="25" as="geometry" />
        </mxCell>
        <mxCell id="WuOWpJB1JVVd9y_7BshX-0" value="required data" style="rounded=1;whiteSpace=wrap;html=1;align=left;verticalAlign=top;spacingTop=0;spacing=2;spacingLeft=4;fontSize=14;fontStyle=1;strokeColor=#000000;" vertex="1" parent="R3GkrDcKKSF8XlA2Kajp-1">
          <mxGeometry x="-280" y="360" width="130" height="25" as="geometry" />
        </mxCell>
        <mxCell id="WuOWpJB1JVVd9y_7BshX-2" value="optional data*" style="rounded=1;whiteSpace=wrap;html=1;align=left;verticalAlign=top;spacingTop=0;spacing=2;spacingLeft=4;fontSize=14;fontStyle=1;strokeColor=#999999;fontColor=#999999;" vertex="1" parent="R3GkrDcKKSF8XlA2Kajp-1">
          <mxGeometry x="-280" y="391" width="130" height="25" as="geometry" />
        </mxCell>
        <mxCell id="WuOWpJB1JVVd9y_7BshX-3" value="PractitionerRole 2" style="rounded=1;whiteSpace=wrap;html=1;align=left;verticalAlign=top;spacingTop=0;spacing=2;spacingLeft=4;fontSize=14;fontStyle=1;strokeColor=#999999;fontColor=#999999;" vertex="1" parent="R3GkrDcKKSF8XlA2Kajp-1">
          <mxGeometry x="-750" y="209.5" width="130" height="25" as="geometry" />
        </mxCell>
        <mxCell id="WuOWpJB1JVVd9y_7BshX-12" value="* depending on level of detail in&amp;nbsp;&lt;div style=&quot;font-size: 10px;&quot;&gt;&amp;nbsp; &amp;nbsp;authn, authz &amp;amp; recipients&lt;/div&gt;" style="rounded=1;whiteSpace=wrap;html=1;align=left;verticalAlign=top;spacingTop=0;spacing=2;spacingLeft=0;fontSize=10;fontStyle=1;strokeColor=none;fontColor=#999999;" vertex="1" parent="R3GkrDcKKSF8XlA2Kajp-1">
          <mxGeometry x="-280" y="420" width="160" height="30" as="geometry" />
        </mxCell>
        <mxCell id="TkO6Y6KDkzm3GWyhtYc--0" value="Organization 2" style="rounded=1;whiteSpace=wrap;html=1;align=left;verticalAlign=top;spacingTop=0;spacing=2;spacingLeft=4;fontSize=14;fontStyle=1;strokeColor=#000000;fontColor=#000000;" vertex="1" parent="R3GkrDcKKSF8XlA2Kajp-1">
          <mxGeometry x="-253" y="60" width="130" height="25" as="geometry" />
        </mxCell>
        <mxCell id="TkO6Y6KDkzm3GWyhtYc--1" value="Device 2" style="rounded=1;whiteSpace=wrap;html=1;align=left;verticalAlign=top;spacingTop=0;spacing=2;spacingLeft=4;fontSize=14;fontStyle=1;strokeColor=#999999;fontColor=#999999;" vertex="1" parent="R3GkrDcKKSF8XlA2Kajp-1">
          <mxGeometry x="-253" y="90" width="130" height="25" as="geometry" />
        </mxCell>
      </root>
    </mxGraphModel>
  </diagram>
  <diagram id="oIFm4z_X4snqJ1kSCFAP" name="req1">
    <mxGraphModel dx="1685" dy="511" grid="1" gridSize="10" guides="1" tooltips="1" connect="1" arrows="1" fold="1" page="1" pageScale="1" pageWidth="800" pageHeight="500" backgroundImage="{&quot;src&quot;:&quot;data:page/id,pKgziUaKLTQ8jrkvlHAj&quot;}" math="0" shadow="0">
      <root>
        <mxCell id="0" />
        <mxCell id="1" parent="0" />
        <mxCell id="8mW3CwOdeR5deNNYWT8k-1" value="" style="shape=waypoint;sketch=0;size=6;pointerEvents=1;points=[];fillColor=none;resizable=0;rotatable=0;perimeter=centerPerimeter;snapToPoint=1;strokeColor=none;" parent="1" vertex="1">
          <mxGeometry x="-646" y="30" width="20" height="20" as="geometry" />
        </mxCell>
        <mxCell id="8mW3CwOdeR5deNNYWT8k-2" value="" style="shape=waypoint;sketch=0;size=6;pointerEvents=1;points=[];fillColor=none;resizable=0;rotatable=0;perimeter=centerPerimeter;snapToPoint=1;strokeColor=none;" parent="1" vertex="1">
          <mxGeometry x="-249" y="30" width="20" height="20" as="geometry" />
        </mxCell>
        <mxCell id="fjeYnKVeESPtUlYOtK3B-1" value="Patient 1" style="rounded=1;whiteSpace=wrap;html=1;align=left;verticalAlign=top;spacingTop=0;spacing=2;spacingLeft=4;fontSize=14;fontStyle=1;strokeColor=#000000;" parent="1" vertex="1">
          <mxGeometry x="-750" y="60" width="130" height="25" as="geometry" />
        </mxCell>
        <mxCell id="fjeYnKVeESPtUlYOtK3B-2" value="ServiceRequest 1" style="rounded=1;whiteSpace=wrap;html=1;align=left;verticalAlign=top;spacingTop=0;spacing=2;spacingLeft=4;fontSize=14;fontStyle=1;strokeColor=#9673a6;fillColor=#e1d5e7;" parent="1" vertex="1">
          <mxGeometry x="-750" y="90" width="130" height="25" as="geometry" />
        </mxCell>
        <mxCell id="E9zrymjbYse9y2J5UlxT-1" value="" style="shape=actor;whiteSpace=wrap;html=1;fillColor=#000000;" parent="1" vertex="1">
          <mxGeometry x="-730" y="34" width="18" height="22" as="geometry" />
        </mxCell>
        <mxCell id="Imy0KeepGj2G3FEvCTvm-1" value="Device workflow2" style="rounded=1;whiteSpace=wrap;html=1;align=left;verticalAlign=top;spacingTop=0;spacing=2;spacingLeft=4;fontSize=14;fontStyle=1;strokeColor=#000000;" vertex="1" parent="1">
          <mxGeometry x="-250" y="60" width="130" height="25" as="geometry" />
        </mxCell>
      </root>
    </mxGraphModel>
  </diagram>
  <diagram name="req2" id="C8I521wdOyFeGQZYzCJa">
    <mxGraphModel dx="2460" dy="822" grid="1" gridSize="10" guides="1" tooltips="1" connect="1" arrows="1" fold="1" page="1" pageScale="1" pageWidth="800" pageHeight="500" backgroundImage="{&quot;src&quot;:&quot;data:page/id,pKgziUaKLTQ8jrkvlHAj&quot;}" math="0" shadow="0">
      <root>
        <mxCell id="OTgTlXCNlcUA35HG-kM--0" />
        <mxCell id="OTgTlXCNlcUA35HG-kM--1" parent="OTgTlXCNlcUA35HG-kM--0" />
        <mxCell id="OTgTlXCNlcUA35HG-kM--2" value="" style="shape=waypoint;sketch=0;size=6;pointerEvents=1;points=[];fillColor=none;resizable=0;rotatable=0;perimeter=centerPerimeter;snapToPoint=1;strokeColor=none;" parent="OTgTlXCNlcUA35HG-kM--1" vertex="1">
          <mxGeometry x="-646" y="30" width="20" height="20" as="geometry" />
        </mxCell>
        <mxCell id="OTgTlXCNlcUA35HG-kM--3" value="" style="shape=waypoint;sketch=0;size=6;pointerEvents=1;points=[];fillColor=none;resizable=0;rotatable=0;perimeter=centerPerimeter;snapToPoint=1;strokeColor=none;" parent="OTgTlXCNlcUA35HG-kM--1" vertex="1">
          <mxGeometry x="-249" y="30" width="20" height="20" as="geometry" />
        </mxCell>
        <mxCell id="OTgTlXCNlcUA35HG-kM--4" value="Patient 1" style="rounded=1;whiteSpace=wrap;html=1;align=left;verticalAlign=top;spacingTop=0;spacing=2;spacingLeft=4;fontSize=14;fontStyle=1;strokeColor=#000000;" parent="OTgTlXCNlcUA35HG-kM--1" vertex="1">
          <mxGeometry x="-750" y="60" width="150" height="25" as="geometry" />
        </mxCell>
        <mxCell id="OTgTlXCNlcUA35HG-kM--5" value="ServiceRequest 1" style="rounded=1;whiteSpace=wrap;html=1;align=left;verticalAlign=top;spacingTop=0;spacing=2;spacingLeft=4;fontSize=14;fontStyle=1;strokeColor=#000000;" parent="OTgTlXCNlcUA35HG-kM--1" vertex="1">
          <mxGeometry x="-750" y="90" width="150" height="25" as="geometry" />
        </mxCell>
        <mxCell id="OTgTlXCNlcUA35HG-kM--8" value="Task 1to2&lt;div&gt;basedOn: CarePlan 1&lt;br&gt;&lt;div&gt;status: requested&lt;/div&gt;&lt;div&gt;&lt;div&gt;&lt;span style=&quot;background-color: initial;&quot;&gt;requester: Prac1&lt;/span&gt;&lt;/div&gt;&lt;div&gt;&lt;span style=&quot;background-color: initial;&quot;&gt;performer: HcS2&lt;/span&gt;&lt;/div&gt;&lt;/div&gt;&lt;/div&gt;" style="rounded=1;whiteSpace=wrap;html=1;align=left;verticalAlign=top;spacingTop=0;spacing=2;spacingLeft=4;fontSize=14;fontStyle=1;strokeColor=#9673a6;fillColor=#e1d5e7;" parent="OTgTlXCNlcUA35HG-kM--1" vertex="1">
          <mxGeometry x="-750" y="120" width="150" height="100" as="geometry" />
        </mxCell>
        <mxCell id="RFl-78plUOuFBB6F81aq-3" style="edgeStyle=orthogonalEdgeStyle;rounded=0;orthogonalLoop=1;jettySize=auto;html=1;entryX=0.9;entryY=0.5;entryDx=0;entryDy=0;entryPerimeter=0;dashed=1;dashPattern=8 8;" parent="OTgTlXCNlcUA35HG-kM--1" source="OTgTlXCNlcUA35HG-kM--8" target="OTgTlXCNlcUA35HG-kM--3" edge="1">
          <mxGeometry relative="1" as="geometry">
            <Array as="points">
              <mxPoint x="-360" y="142" />
              <mxPoint x="-360" y="40" />
            </Array>
          </mxGeometry>
        </mxCell>
        <mxCell id="8gs-ciQLjfHbJgsoOQ09-0" value="notify" style="edgeLabel;html=1;align=center;verticalAlign=middle;resizable=0;points=[];fontFamily=Helvetica;fontSize=11;fontColor=default;labelBackgroundColor=default;" parent="RFl-78plUOuFBB6F81aq-3" vertex="1" connectable="0">
          <mxGeometry x="-0.6627" relative="1" as="geometry">
            <mxPoint as="offset" />
          </mxGeometry>
        </mxCell>
        <mxCell id="VkB6yo8gZ16Lr-XajNLl-0" value="" style="shape=actor;whiteSpace=wrap;html=1;fillColor=#000000;" parent="OTgTlXCNlcUA35HG-kM--1" vertex="1">
          <mxGeometry x="-730" y="34" width="18" height="22" as="geometry" />
        </mxCell>
        <mxCell id="6_Smo8h4HUOdvewieMaP-1" value="" style="shape=image;verticalLabelPosition=bottom;labelBackgroundColor=default;verticalAlign=top;aspect=fixed;imageAspect=0;image=https://cdn.iconscout.com/icon/free/png-256/free-signature-icon-download-in-svg-png-gif-file-formats--sign-agreement-contract-deal-partnership-user-interface-vol-1-pack-icons-2202523.png;" parent="OTgTlXCNlcUA35HG-kM--1" vertex="1">
          <mxGeometry x="-622" y="200" width="16" height="16" as="geometry" />
        </mxCell>
        <mxCell id="9rt3KAtMn46Y11dRlOgL-0" value="Device workflow2" style="rounded=1;whiteSpace=wrap;html=1;align=left;verticalAlign=top;spacingTop=0;spacing=2;spacingLeft=4;fontSize=14;fontStyle=1;strokeColor=#000000;" parent="OTgTlXCNlcUA35HG-kM--1" vertex="1">
          <mxGeometry x="-250" y="60" width="130" height="25" as="geometry" />
        </mxCell>
      </root>
    </mxGraphModel>
  </diagram>
  <diagram name="req3" id="3zLnN49RG7-VDzvaH05s">
    <mxGraphModel dx="2090" dy="746" grid="1" gridSize="10" guides="1" tooltips="1" connect="1" arrows="1" fold="1" page="1" pageScale="1" pageWidth="800" pageHeight="500" backgroundImage="{&quot;src&quot;:&quot;data:page/id,pKgziUaKLTQ8jrkvlHAj&quot;}" math="0" shadow="0">
      <root>
        <mxCell id="GLYsBreH64pikmjK4zRz-0" />
        <mxCell id="GLYsBreH64pikmjK4zRz-1" parent="GLYsBreH64pikmjK4zRz-0" />
        <mxCell id="GLYsBreH64pikmjK4zRz-5" value="" style="shape=waypoint;sketch=0;size=6;pointerEvents=1;points=[];fillColor=none;resizable=0;rotatable=0;perimeter=centerPerimeter;snapToPoint=1;strokeColor=none;" parent="GLYsBreH64pikmjK4zRz-1" vertex="1">
          <mxGeometry x="-646" y="30" width="20" height="20" as="geometry" />
        </mxCell>
        <mxCell id="GLYsBreH64pikmjK4zRz-6" value="" style="shape=waypoint;sketch=0;size=6;pointerEvents=1;points=[];fillColor=none;resizable=0;rotatable=0;perimeter=centerPerimeter;snapToPoint=1;strokeColor=none;" parent="GLYsBreH64pikmjK4zRz-1" vertex="1">
          <mxGeometry x="-249" y="30" width="20" height="20" as="geometry" />
        </mxCell>
        <mxCell id="GLYsBreH64pikmjK4zRz-7" value="Patient 1" style="rounded=1;whiteSpace=wrap;html=1;align=left;verticalAlign=top;spacingTop=0;spacing=2;spacingLeft=4;fontSize=14;fontStyle=1;strokeColor=#000000;" parent="GLYsBreH64pikmjK4zRz-1" vertex="1">
          <mxGeometry x="-750" y="60" width="130" height="25" as="geometry" />
        </mxCell>
        <mxCell id="GLYsBreH64pikmjK4zRz-8" value="ServiceRequest 1" style="rounded=1;whiteSpace=wrap;html=1;align=left;verticalAlign=top;spacingTop=0;spacing=2;spacingLeft=4;fontSize=14;fontStyle=1;strokeColor=#000000;" parent="GLYsBreH64pikmjK4zRz-1" vertex="1">
          <mxGeometry x="-750" y="90" width="130" height="25" as="geometry" />
        </mxCell>
        <mxCell id="gGKBf5K0x1CtBpzXUHvj-0" value="" style="shape=actor;whiteSpace=wrap;html=1;fillColor=#000000;" parent="GLYsBreH64pikmjK4zRz-1" vertex="1">
          <mxGeometry x="-730" y="34" width="18" height="22" as="geometry" />
        </mxCell>
        <mxCell id="aaj2kKD92oAHSrmtfPDu-0" value="" style="shape=waypoint;sketch=0;size=6;pointerEvents=1;points=[];fillColor=none;resizable=0;rotatable=0;perimeter=centerPerimeter;snapToPoint=1;strokeColor=none;" parent="GLYsBreH64pikmjK4zRz-1" vertex="1">
          <mxGeometry x="-646" y="30" width="20" height="20" as="geometry" />
        </mxCell>
        <mxCell id="aaj2kKD92oAHSrmtfPDu-1" style="edgeStyle=orthogonalEdgeStyle;rounded=0;orthogonalLoop=1;jettySize=auto;html=1;entryX=1;entryY=0.5;entryDx=0;entryDy=0;exitX=0;exitY=0.75;exitDx=0;exitDy=0;" parent="GLYsBreH64pikmjK4zRz-1" source="6iIDJwiEeNvQ2dH5f6vL-0" target="8p7bw-1Lk4xOhDkF5LfO-0" edge="1">
          <mxGeometry relative="1" as="geometry">
            <mxPoint x="-440" y="141.75" as="targetPoint" />
          </mxGeometry>
        </mxCell>
        <mxCell id="8p7bw-1Lk4xOhDkF5LfO-9" value="context: Task 1to2" style="edgeLabel;html=1;align=center;verticalAlign=middle;resizable=0;points=[];fontFamily=Helvetica;fontSize=11;fontColor=default;labelBackgroundColor=default;" vertex="1" connectable="0" parent="aaj2kKD92oAHSrmtfPDu-1">
          <mxGeometry x="0.7075" y="1" relative="1" as="geometry">
            <mxPoint x="171" y="-110" as="offset" />
          </mxGeometry>
        </mxCell>
        <mxCell id="6iIDJwiEeNvQ2dH5f6vL-3" value="update" style="edgeLabel;html=1;align=center;verticalAlign=middle;resizable=0;points=[];fontFamily=Helvetica;fontSize=11;fontColor=default;labelBackgroundColor=default;" vertex="1" connectable="0" parent="aaj2kKD92oAHSrmtfPDu-1">
          <mxGeometry x="0.6134" y="-1" relative="1" as="geometry">
            <mxPoint x="-15" as="offset" />
          </mxGeometry>
        </mxCell>
        <mxCell id="aaj2kKD92oAHSrmtfPDu-2" value="" style="shape=waypoint;sketch=0;size=6;pointerEvents=1;points=[];fillColor=none;resizable=0;rotatable=0;perimeter=centerPerimeter;snapToPoint=1;strokeColor=none;" parent="GLYsBreH64pikmjK4zRz-1" vertex="1">
          <mxGeometry x="-249" y="30" width="20" height="20" as="geometry" />
        </mxCell>
        <mxCell id="aaj2kKD92oAHSrmtfPDu-3" value="Patient 1" style="rounded=1;whiteSpace=wrap;html=1;align=left;verticalAlign=top;spacingTop=0;spacing=2;spacingLeft=4;fontSize=14;fontStyle=1;strokeColor=#000000;" parent="GLYsBreH64pikmjK4zRz-1" vertex="1">
          <mxGeometry x="-750" y="60" width="130" height="25" as="geometry" />
        </mxCell>
        <mxCell id="aaj2kKD92oAHSrmtfPDu-4" value="ServiceRequest 1" style="rounded=1;whiteSpace=wrap;html=1;align=left;verticalAlign=top;spacingTop=0;spacing=2;spacingLeft=4;fontSize=14;fontStyle=1;strokeColor=#000000;" parent="GLYsBreH64pikmjK4zRz-1" vertex="1">
          <mxGeometry x="-750" y="90" width="130" height="25" as="geometry" />
        </mxCell>
        <mxCell id="aaj2kKD92oAHSrmtfPDu-9" value="" style="shape=actor;whiteSpace=wrap;html=1;fillColor=#000000;" parent="GLYsBreH64pikmjK4zRz-1" vertex="1">
          <mxGeometry x="-730" y="34" width="18" height="22" as="geometry" />
        </mxCell>
        <mxCell id="8p7bw-1Lk4xOhDkF5LfO-0" value="Task 1to2&lt;div&gt;basedOn: CarePlan 1&lt;br&gt;&lt;div&gt;status: accepted&lt;/div&gt;&lt;div&gt;&lt;div&gt;&lt;span style=&quot;background-color: initial;&quot;&gt;requester: Prac1&lt;/span&gt;&lt;/div&gt;&lt;div&gt;&lt;span style=&quot;background-color: initial;&quot;&gt;performer: HcS2&lt;/span&gt;&lt;/div&gt;&lt;/div&gt;&lt;/div&gt;" style="rounded=1;whiteSpace=wrap;html=1;align=left;verticalAlign=top;spacingTop=0;spacing=2;spacingLeft=4;fontSize=14;fontStyle=1;strokeColor=#9673a6;fillColor=#e1d5e7;" vertex="1" parent="GLYsBreH64pikmjK4zRz-1">
          <mxGeometry x="-750" y="120" width="150" height="100" as="geometry" />
        </mxCell>
        <mxCell id="8p7bw-1Lk4xOhDkF5LfO-3" value="" style="shape=image;verticalLabelPosition=bottom;labelBackgroundColor=default;verticalAlign=top;aspect=fixed;imageAspect=0;image=https://cdn.iconscout.com/icon/free/png-256/free-signature-icon-download-in-svg-png-gif-file-formats--sign-agreement-contract-deal-partnership-user-interface-vol-1-pack-icons-2202523.png;" vertex="1" parent="GLYsBreH64pikmjK4zRz-1">
          <mxGeometry x="-622" y="200" width="16" height="16" as="geometry" />
        </mxCell>
        <mxCell id="6iIDJwiEeNvQ2dH5f6vL-2" style="edgeStyle=orthogonalEdgeStyle;shape=connector;rounded=0;orthogonalLoop=1;jettySize=auto;html=1;entryX=1;entryY=0.5;entryDx=0;entryDy=0;strokeColor=default;align=center;verticalAlign=middle;fontFamily=Helvetica;fontSize=11;fontColor=default;labelBackgroundColor=default;endArrow=none;exitX=0;exitY=0.25;exitDx=0;exitDy=0;startArrow=classic;startFill=1;endFill=0;" edge="1" parent="GLYsBreH64pikmjK4zRz-1" source="6iIDJwiEeNvQ2dH5f6vL-0" target="aaj2kKD92oAHSrmtfPDu-4">
          <mxGeometry relative="1" as="geometry">
            <Array as="points">
              <mxPoint x="-440" y="66" />
              <mxPoint x="-440" y="102" />
            </Array>
          </mxGeometry>
        </mxCell>
        <mxCell id="6iIDJwiEeNvQ2dH5f6vL-4" value="get" style="edgeLabel;html=1;align=center;verticalAlign=middle;resizable=0;points=[];fontFamily=Helvetica;fontSize=11;fontColor=default;labelBackgroundColor=default;" vertex="1" connectable="0" parent="6iIDJwiEeNvQ2dH5f6vL-2">
          <mxGeometry x="0.6193" relative="1" as="geometry">
            <mxPoint x="4" as="offset" />
          </mxGeometry>
        </mxCell>
        <mxCell id="o9xtzToiLEuymx6lW1M5-0" style="edgeStyle=orthogonalEdgeStyle;shape=connector;rounded=0;orthogonalLoop=1;jettySize=auto;html=1;entryX=1;entryY=0.25;entryDx=0;entryDy=0;strokeColor=default;align=center;verticalAlign=middle;fontFamily=Helvetica;fontSize=11;fontColor=default;labelBackgroundColor=default;endArrow=none;exitX=0;exitY=0.25;exitDx=0;exitDy=0;startArrow=classic;startFill=1;endFill=0;" edge="1" parent="GLYsBreH64pikmjK4zRz-1" source="6iIDJwiEeNvQ2dH5f6vL-0" target="8p7bw-1Lk4xOhDkF5LfO-0">
          <mxGeometry relative="1" as="geometry">
            <Array as="points">
              <mxPoint x="-440" y="66" />
              <mxPoint x="-440" y="145" />
            </Array>
          </mxGeometry>
        </mxCell>
        <mxCell id="o9xtzToiLEuymx6lW1M5-1" value="get" style="edgeLabel;html=1;align=center;verticalAlign=middle;resizable=0;points=[];fontFamily=Helvetica;fontSize=11;fontColor=default;labelBackgroundColor=default;" vertex="1" connectable="0" parent="o9xtzToiLEuymx6lW1M5-0">
          <mxGeometry x="0.69" y="-1" relative="1" as="geometry">
            <mxPoint x="-6" y="1" as="offset" />
          </mxGeometry>
        </mxCell>
        <mxCell id="6iIDJwiEeNvQ2dH5f6vL-0" value="Device workflow2" style="rounded=1;whiteSpace=wrap;html=1;align=left;verticalAlign=top;spacingTop=0;spacing=2;spacingLeft=4;fontSize=14;fontStyle=1;strokeColor=#000000;" vertex="1" parent="GLYsBreH64pikmjK4zRz-1">
          <mxGeometry x="-250" y="60" width="130" height="25" as="geometry" />
        </mxCell>
      </root>
    </mxGraphModel>
  </diagram>
  <diagram name="resp3" id="1yNAp5d9YdASA562x_Zg">
    <mxGraphModel dx="2348" dy="895" grid="1" gridSize="10" guides="1" tooltips="1" connect="1" arrows="1" fold="1" page="1" pageScale="1" pageWidth="800" pageHeight="500" backgroundImage="{&quot;src&quot;:&quot;data:page/id,pKgziUaKLTQ8jrkvlHAj&quot;}" math="0" shadow="0">
      <root>
        <mxCell id="Vcmqgs-PAa_tlrt6uTgd-0" />
        <mxCell id="Vcmqgs-PAa_tlrt6uTgd-1" parent="Vcmqgs-PAa_tlrt6uTgd-0" />
        <mxCell id="I2Gz3aY7SsZkQNaS_LWs-0" value="Task 2to1&lt;div&gt;part of: Task 1to2&lt;/div&gt;&lt;div&gt;status: ready&lt;br&gt;&lt;/div&gt;&lt;div&gt;requester: Device2&lt;/div&gt;&lt;div&gt;performer: Prac1&lt;/div&gt;&lt;div&gt;input: Quest.1&lt;/div&gt;&lt;div&gt;&lt;br&gt;&lt;/div&gt;" style="rounded=1;whiteSpace=wrap;html=1;align=left;verticalAlign=top;spacingTop=0;spacing=2;spacingLeft=4;fontSize=14;fontStyle=1;strokeColor=#9673a6;fillColor=#e1d5e7;" parent="Vcmqgs-PAa_tlrt6uTgd-1" vertex="1">
          <mxGeometry x="-752" y="230" width="152" height="110" as="geometry" />
        </mxCell>
        <mxCell id="I2Gz3aY7SsZkQNaS_LWs-1" value="Quest. 1" style="rounded=1;whiteSpace=wrap;html=1;align=left;verticalAlign=top;spacingTop=0;spacing=2;spacingLeft=4;fontSize=14;fontStyle=1;" parent="Vcmqgs-PAa_tlrt6uTgd-1" vertex="1">
          <mxGeometry x="-250" y="90" width="130" height="25" as="geometry" />
        </mxCell>
        <mxCell id="NATaYx5nYQUzq8tw0tjm-1" value="" style="shape=waypoint;sketch=0;size=6;pointerEvents=1;points=[];fillColor=none;resizable=0;rotatable=0;perimeter=centerPerimeter;snapToPoint=1;strokeColor=none;" vertex="1" parent="Vcmqgs-PAa_tlrt6uTgd-1">
          <mxGeometry x="-646" y="30" width="20" height="20" as="geometry" />
        </mxCell>
        <mxCell id="NATaYx5nYQUzq8tw0tjm-2" value="" style="shape=waypoint;sketch=0;size=6;pointerEvents=1;points=[];fillColor=none;resizable=0;rotatable=0;perimeter=centerPerimeter;snapToPoint=1;strokeColor=none;" vertex="1" parent="Vcmqgs-PAa_tlrt6uTgd-1">
          <mxGeometry x="-249" y="30" width="20" height="20" as="geometry" />
        </mxCell>
        <mxCell id="NATaYx5nYQUzq8tw0tjm-3" value="Patient 1" style="rounded=1;whiteSpace=wrap;html=1;align=left;verticalAlign=top;spacingTop=0;spacing=2;spacingLeft=4;fontSize=14;fontStyle=1;strokeColor=#000000;" vertex="1" parent="Vcmqgs-PAa_tlrt6uTgd-1">
          <mxGeometry x="-750" y="60" width="130" height="25" as="geometry" />
        </mxCell>
        <mxCell id="NATaYx5nYQUzq8tw0tjm-4" value="ServiceRequest 1" style="rounded=1;whiteSpace=wrap;html=1;align=left;verticalAlign=top;spacingTop=0;spacing=2;spacingLeft=4;fontSize=14;fontStyle=1;strokeColor=#000000;" vertex="1" parent="Vcmqgs-PAa_tlrt6uTgd-1">
          <mxGeometry x="-750" y="90" width="130" height="25" as="geometry" />
        </mxCell>
        <mxCell id="NATaYx5nYQUzq8tw0tjm-5" value="" style="shape=actor;whiteSpace=wrap;html=1;fillColor=#000000;" vertex="1" parent="Vcmqgs-PAa_tlrt6uTgd-1">
          <mxGeometry x="-730" y="34" width="18" height="22" as="geometry" />
        </mxCell>
        <mxCell id="NATaYx5nYQUzq8tw0tjm-6" value="" style="shape=waypoint;sketch=0;size=6;pointerEvents=1;points=[];fillColor=none;resizable=0;rotatable=0;perimeter=centerPerimeter;snapToPoint=1;strokeColor=none;" vertex="1" parent="Vcmqgs-PAa_tlrt6uTgd-1">
          <mxGeometry x="-646" y="30" width="20" height="20" as="geometry" />
        </mxCell>
        <mxCell id="NATaYx5nYQUzq8tw0tjm-7" style="edgeStyle=orthogonalEdgeStyle;rounded=0;orthogonalLoop=1;jettySize=auto;html=1;entryX=1;entryY=0.25;entryDx=0;entryDy=0;exitX=0;exitY=0.75;exitDx=0;exitDy=0;" edge="1" parent="Vcmqgs-PAa_tlrt6uTgd-1" source="NATaYx5nYQUzq8tw0tjm-20" target="I2Gz3aY7SsZkQNaS_LWs-0">
          <mxGeometry relative="1" as="geometry">
            <mxPoint x="-380" y="291.25" as="targetPoint" />
            <mxPoint x="-30" y="200" as="sourcePoint" />
          </mxGeometry>
        </mxCell>
        <mxCell id="NATaYx5nYQUzq8tw0tjm-8" value="context: Task 1to2" style="edgeLabel;html=1;align=center;verticalAlign=middle;resizable=0;points=[];fontFamily=Helvetica;fontSize=11;fontColor=default;labelBackgroundColor=default;" vertex="1" connectable="0" parent="NATaYx5nYQUzq8tw0tjm-7">
          <mxGeometry x="0.7075" y="1" relative="1" as="geometry">
            <mxPoint x="42" y="-98" as="offset" />
          </mxGeometry>
        </mxCell>
        <mxCell id="NATaYx5nYQUzq8tw0tjm-9" value="create" style="edgeLabel;html=1;align=center;verticalAlign=middle;resizable=0;points=[];fontFamily=Helvetica;fontSize=11;fontColor=default;labelBackgroundColor=default;" vertex="1" connectable="0" parent="NATaYx5nYQUzq8tw0tjm-7">
          <mxGeometry x="0.6134" y="-1" relative="1" as="geometry">
            <mxPoint x="-15" as="offset" />
          </mxGeometry>
        </mxCell>
        <mxCell id="NATaYx5nYQUzq8tw0tjm-10" value="" style="shape=waypoint;sketch=0;size=6;pointerEvents=1;points=[];fillColor=none;resizable=0;rotatable=0;perimeter=centerPerimeter;snapToPoint=1;strokeColor=none;" vertex="1" parent="Vcmqgs-PAa_tlrt6uTgd-1">
          <mxGeometry x="-249" y="30" width="20" height="20" as="geometry" />
        </mxCell>
        <mxCell id="NATaYx5nYQUzq8tw0tjm-11" value="Patient 1" style="rounded=1;whiteSpace=wrap;html=1;align=left;verticalAlign=top;spacingTop=0;spacing=2;spacingLeft=4;fontSize=14;fontStyle=1;strokeColor=#000000;" vertex="1" parent="Vcmqgs-PAa_tlrt6uTgd-1">
          <mxGeometry x="-750" y="60" width="130" height="25" as="geometry" />
        </mxCell>
        <mxCell id="NATaYx5nYQUzq8tw0tjm-12" value="ServiceRequest 1" style="rounded=1;whiteSpace=wrap;html=1;align=left;verticalAlign=top;spacingTop=0;spacing=2;spacingLeft=4;fontSize=14;fontStyle=1;strokeColor=#000000;" vertex="1" parent="Vcmqgs-PAa_tlrt6uTgd-1">
          <mxGeometry x="-750" y="90" width="130" height="25" as="geometry" />
        </mxCell>
        <mxCell id="NATaYx5nYQUzq8tw0tjm-13" value="" style="shape=actor;whiteSpace=wrap;html=1;fillColor=#000000;" vertex="1" parent="Vcmqgs-PAa_tlrt6uTgd-1">
          <mxGeometry x="-730" y="34" width="18" height="22" as="geometry" />
        </mxCell>
        <mxCell id="NATaYx5nYQUzq8tw0tjm-14" value="Task 1to2&lt;div&gt;basedOn: CarePlan 1&lt;br&gt;&lt;div&gt;status: requested&lt;/div&gt;&lt;div&gt;&lt;div&gt;&lt;span style=&quot;background-color: initial;&quot;&gt;requester: Prac1&lt;/span&gt;&lt;/div&gt;&lt;div&gt;&lt;span style=&quot;background-color: initial;&quot;&gt;performer: HcS2&lt;/span&gt;&lt;/div&gt;&lt;/div&gt;&lt;/div&gt;" style="rounded=1;whiteSpace=wrap;html=1;align=left;verticalAlign=top;spacingTop=0;spacing=2;spacingLeft=4;fontSize=14;fontStyle=1;" vertex="1" parent="Vcmqgs-PAa_tlrt6uTgd-1">
          <mxGeometry x="-750" y="120" width="150" height="100" as="geometry" />
        </mxCell>
        <mxCell id="NATaYx5nYQUzq8tw0tjm-15" value="" style="shape=image;verticalLabelPosition=bottom;labelBackgroundColor=default;verticalAlign=top;aspect=fixed;imageAspect=0;image=https://cdn.iconscout.com/icon/free/png-256/free-signature-icon-download-in-svg-png-gif-file-formats--sign-agreement-contract-deal-partnership-user-interface-vol-1-pack-icons-2202523.png;" vertex="1" parent="Vcmqgs-PAa_tlrt6uTgd-1">
          <mxGeometry x="-622" y="200" width="16" height="16" as="geometry" />
        </mxCell>
        <mxCell id="NATaYx5nYQUzq8tw0tjm-16" style="edgeStyle=orthogonalEdgeStyle;shape=connector;rounded=0;orthogonalLoop=1;jettySize=auto;html=1;entryX=1;entryY=0.5;entryDx=0;entryDy=0;strokeColor=default;align=center;verticalAlign=middle;fontFamily=Helvetica;fontSize=11;fontColor=default;labelBackgroundColor=default;endArrow=none;exitX=0;exitY=0.25;exitDx=0;exitDy=0;startArrow=classic;startFill=1;endFill=0;" edge="1" parent="Vcmqgs-PAa_tlrt6uTgd-1" source="NATaYx5nYQUzq8tw0tjm-20" target="NATaYx5nYQUzq8tw0tjm-12">
          <mxGeometry relative="1" as="geometry">
            <Array as="points">
              <mxPoint x="-440" y="66" />
              <mxPoint x="-440" y="102" />
            </Array>
          </mxGeometry>
        </mxCell>
        <mxCell id="NATaYx5nYQUzq8tw0tjm-17" value="get" style="edgeLabel;html=1;align=center;verticalAlign=middle;resizable=0;points=[];fontFamily=Helvetica;fontSize=11;fontColor=default;labelBackgroundColor=default;" vertex="1" connectable="0" parent="NATaYx5nYQUzq8tw0tjm-16">
          <mxGeometry x="0.6193" relative="1" as="geometry">
            <mxPoint x="4" as="offset" />
          </mxGeometry>
        </mxCell>
        <mxCell id="NATaYx5nYQUzq8tw0tjm-18" style="edgeStyle=orthogonalEdgeStyle;shape=connector;rounded=0;orthogonalLoop=1;jettySize=auto;html=1;entryX=1;entryY=0.25;entryDx=0;entryDy=0;strokeColor=default;align=center;verticalAlign=middle;fontFamily=Helvetica;fontSize=11;fontColor=default;labelBackgroundColor=default;endArrow=none;exitX=0;exitY=0.25;exitDx=0;exitDy=0;startArrow=classic;startFill=1;endFill=0;" edge="1" parent="Vcmqgs-PAa_tlrt6uTgd-1" source="NATaYx5nYQUzq8tw0tjm-20" target="NATaYx5nYQUzq8tw0tjm-14">
          <mxGeometry relative="1" as="geometry">
            <Array as="points">
              <mxPoint x="-440" y="66" />
              <mxPoint x="-440" y="145" />
            </Array>
          </mxGeometry>
        </mxCell>
        <mxCell id="NATaYx5nYQUzq8tw0tjm-19" value="get" style="edgeLabel;html=1;align=center;verticalAlign=middle;resizable=0;points=[];fontFamily=Helvetica;fontSize=11;fontColor=default;labelBackgroundColor=default;" vertex="1" connectable="0" parent="NATaYx5nYQUzq8tw0tjm-18">
          <mxGeometry x="0.69" y="-1" relative="1" as="geometry">
            <mxPoint x="-6" y="1" as="offset" />
          </mxGeometry>
        </mxCell>
        <mxCell id="NATaYx5nYQUzq8tw0tjm-20" value="Device workflow2" style="rounded=1;whiteSpace=wrap;html=1;align=left;verticalAlign=top;spacingTop=0;spacing=2;spacingLeft=4;fontSize=14;fontStyle=1;strokeColor=#000000;" vertex="1" parent="Vcmqgs-PAa_tlrt6uTgd-1">
          <mxGeometry x="-250" y="60" width="130" height="25" as="geometry" />
        </mxCell>
      </root>
    </mxGraphModel>
  </diagram>
  <diagram name="resp4" id="7YH4TvFXvv_Crec_8i8_">
    <mxGraphModel dx="1836" dy="703" grid="1" gridSize="10" guides="1" tooltips="1" connect="1" arrows="1" fold="1" page="1" pageScale="1" pageWidth="800" pageHeight="500" backgroundImage="{&quot;src&quot;:&quot;data:page/id,pKgziUaKLTQ8jrkvlHAj&quot;}" math="0" shadow="0">
      <root>
        <mxCell id="OnK4DBNyUY1hHmiSHMYj-0" />
        <mxCell id="OnK4DBNyUY1hHmiSHMYj-1" parent="OnK4DBNyUY1hHmiSHMYj-0" />
        <mxCell id="_GTiFYOoLPVs7_BDSP1g-4" style="edgeStyle=orthogonalEdgeStyle;shape=connector;rounded=0;orthogonalLoop=1;jettySize=auto;html=1;strokeColor=default;align=center;verticalAlign=middle;fontFamily=Helvetica;fontSize=11;fontColor=default;labelBackgroundColor=default;endArrow=none;endFill=0;dashed=1;dashPattern=8 8;" parent="OnK4DBNyUY1hHmiSHMYj-1" source="OnK4DBNyUY1hHmiSHMYj-2" edge="1">
          <mxGeometry relative="1" as="geometry">
            <mxPoint x="-360" y="295" as="targetPoint" />
          </mxGeometry>
        </mxCell>
        <mxCell id="_GTiFYOoLPVs7_BDSP1g-5" value="notify" style="edgeLabel;html=1;align=center;verticalAlign=middle;resizable=0;points=[];fontFamily=Helvetica;fontSize=11;fontColor=default;labelBackgroundColor=default;" parent="_GTiFYOoLPVs7_BDSP1g-4" vertex="1" connectable="0">
          <mxGeometry x="-0.2848" y="1" relative="1" as="geometry">
            <mxPoint as="offset" />
          </mxGeometry>
        </mxCell>
        <mxCell id="OnK4DBNyUY1hHmiSHMYj-2" value="Task 2to1&lt;div&gt;part of: Task 1to2&lt;/div&gt;&lt;div&gt;status: completed&lt;br&gt;&lt;/div&gt;&lt;div&gt;requester: Device2&lt;/div&gt;&lt;div&gt;performer: Prac1&lt;/div&gt;&lt;div&gt;input: Quest.1&lt;/div&gt;&lt;div&gt;output: Qresp.1&lt;/div&gt;" style="rounded=1;whiteSpace=wrap;html=1;align=left;verticalAlign=top;spacingTop=0;spacing=2;spacingLeft=4;fontSize=14;fontStyle=1;strokeColor=#9673a6;fillColor=#e1d5e7;" parent="OnK4DBNyUY1hHmiSHMYj-1" vertex="1">
          <mxGeometry x="-752" y="230" width="152" height="160" as="geometry" />
        </mxCell>
        <mxCell id="OnK4DBNyUY1hHmiSHMYj-3" value="Quest. 1" style="rounded=1;whiteSpace=wrap;html=1;align=left;verticalAlign=top;spacingTop=0;spacing=2;spacingLeft=4;fontSize=14;fontStyle=1;" parent="OnK4DBNyUY1hHmiSHMYj-1" vertex="1">
          <mxGeometry x="-250" y="90" width="130" height="25" as="geometry" />
        </mxCell>
        <mxCell id="OnK4DBNyUY1hHmiSHMYj-4" value="" style="shape=waypoint;sketch=0;size=6;pointerEvents=1;points=[];fillColor=none;resizable=0;rotatable=0;perimeter=centerPerimeter;snapToPoint=1;strokeColor=none;" parent="OnK4DBNyUY1hHmiSHMYj-1" vertex="1">
          <mxGeometry x="-646" y="30" width="20" height="20" as="geometry" />
        </mxCell>
        <mxCell id="OnK4DBNyUY1hHmiSHMYj-5" value="" style="shape=waypoint;sketch=0;size=6;pointerEvents=1;points=[];fillColor=none;resizable=0;rotatable=0;perimeter=centerPerimeter;snapToPoint=1;strokeColor=none;" parent="OnK4DBNyUY1hHmiSHMYj-1" vertex="1">
          <mxGeometry x="-249" y="30" width="20" height="20" as="geometry" />
        </mxCell>
        <mxCell id="OnK4DBNyUY1hHmiSHMYj-6" value="Patient 1" style="rounded=1;whiteSpace=wrap;html=1;align=left;verticalAlign=top;spacingTop=0;spacing=2;spacingLeft=4;fontSize=14;fontStyle=1;strokeColor=#000000;" parent="OnK4DBNyUY1hHmiSHMYj-1" vertex="1">
          <mxGeometry x="-750" y="60" width="130" height="25" as="geometry" />
        </mxCell>
        <mxCell id="OnK4DBNyUY1hHmiSHMYj-7" value="ServiceRequest 1" style="rounded=1;whiteSpace=wrap;html=1;align=left;verticalAlign=top;spacingTop=0;spacing=2;spacingLeft=4;fontSize=14;fontStyle=1;strokeColor=#000000;" parent="OnK4DBNyUY1hHmiSHMYj-1" vertex="1">
          <mxGeometry x="-750" y="90" width="130" height="25" as="geometry" />
        </mxCell>
        <mxCell id="OnK4DBNyUY1hHmiSHMYj-8" value="" style="shape=actor;whiteSpace=wrap;html=1;fillColor=#000000;" parent="OnK4DBNyUY1hHmiSHMYj-1" vertex="1">
          <mxGeometry x="-730" y="34" width="18" height="22" as="geometry" />
        </mxCell>
        <mxCell id="OnK4DBNyUY1hHmiSHMYj-9" value="" style="shape=waypoint;sketch=0;size=6;pointerEvents=1;points=[];fillColor=none;resizable=0;rotatable=0;perimeter=centerPerimeter;snapToPoint=1;strokeColor=none;" parent="OnK4DBNyUY1hHmiSHMYj-1" vertex="1">
          <mxGeometry x="-646" y="30" width="20" height="20" as="geometry" />
        </mxCell>
        <mxCell id="OnK4DBNyUY1hHmiSHMYj-13" value="" style="shape=waypoint;sketch=0;size=6;pointerEvents=1;points=[];fillColor=none;resizable=0;rotatable=0;perimeter=centerPerimeter;snapToPoint=1;strokeColor=none;" parent="OnK4DBNyUY1hHmiSHMYj-1" vertex="1">
          <mxGeometry x="-249" y="30" width="20" height="20" as="geometry" />
        </mxCell>
        <mxCell id="OnK4DBNyUY1hHmiSHMYj-14" value="Patient 1" style="rounded=1;whiteSpace=wrap;html=1;align=left;verticalAlign=top;spacingTop=0;spacing=2;spacingLeft=4;fontSize=14;fontStyle=1;strokeColor=#000000;" parent="OnK4DBNyUY1hHmiSHMYj-1" vertex="1">
          <mxGeometry x="-750" y="60" width="130" height="25" as="geometry" />
        </mxCell>
        <mxCell id="OnK4DBNyUY1hHmiSHMYj-15" value="ServiceRequest 1" style="rounded=1;whiteSpace=wrap;html=1;align=left;verticalAlign=top;spacingTop=0;spacing=2;spacingLeft=4;fontSize=14;fontStyle=1;strokeColor=#000000;" parent="OnK4DBNyUY1hHmiSHMYj-1" vertex="1">
          <mxGeometry x="-750" y="90" width="130" height="25" as="geometry" />
        </mxCell>
        <mxCell id="OnK4DBNyUY1hHmiSHMYj-16" value="" style="shape=actor;whiteSpace=wrap;html=1;fillColor=#000000;" parent="OnK4DBNyUY1hHmiSHMYj-1" vertex="1">
          <mxGeometry x="-730" y="34" width="18" height="22" as="geometry" />
        </mxCell>
        <mxCell id="OnK4DBNyUY1hHmiSHMYj-17" value="Task 1to2&lt;div&gt;basedOn: CarePlan 1&lt;br&gt;&lt;div&gt;status: requested&lt;/div&gt;&lt;div&gt;&lt;div&gt;&lt;span style=&quot;background-color: initial;&quot;&gt;requester: Prac1&lt;/span&gt;&lt;/div&gt;&lt;div&gt;&lt;span style=&quot;background-color: initial;&quot;&gt;performer: HcS2&lt;/span&gt;&lt;/div&gt;&lt;/div&gt;&lt;/div&gt;" style="rounded=1;whiteSpace=wrap;html=1;align=left;verticalAlign=top;spacingTop=0;spacing=2;spacingLeft=4;fontSize=14;fontStyle=1;" parent="OnK4DBNyUY1hHmiSHMYj-1" vertex="1">
          <mxGeometry x="-750" y="120" width="150" height="100" as="geometry" />
        </mxCell>
        <mxCell id="OnK4DBNyUY1hHmiSHMYj-18" value="" style="shape=image;verticalLabelPosition=bottom;labelBackgroundColor=default;verticalAlign=top;aspect=fixed;imageAspect=0;image=https://cdn.iconscout.com/icon/free/png-256/free-signature-icon-download-in-svg-png-gif-file-formats--sign-agreement-contract-deal-partnership-user-interface-vol-1-pack-icons-2202523.png;" parent="OnK4DBNyUY1hHmiSHMYj-1" vertex="1">
          <mxGeometry x="-622" y="200" width="16" height="16" as="geometry" />
        </mxCell>
        <mxCell id="OnK4DBNyUY1hHmiSHMYj-23" value="Device workflow2" style="rounded=1;whiteSpace=wrap;html=1;align=left;verticalAlign=top;spacingTop=0;spacing=2;spacingLeft=4;fontSize=14;fontStyle=1;strokeColor=#000000;" parent="OnK4DBNyUY1hHmiSHMYj-1" vertex="1">
          <mxGeometry x="-250" y="60" width="130" height="25" as="geometry" />
        </mxCell>
        <mxCell id="_GTiFYOoLPVs7_BDSP1g-0" value="QResp. 1" style="rounded=1;whiteSpace=wrap;html=1;align=left;verticalAlign=top;spacingTop=0;spacing=2;spacingLeft=4;fontSize=14;fontStyle=1;strokeColor=#9673a6;fillColor=#e1d5e7;" parent="OnK4DBNyUY1hHmiSHMYj-1" vertex="1">
          <mxGeometry x="-741" y="360" width="130" height="25" as="geometry" />
        </mxCell>
        <mxCell id="_GTiFYOoLPVs7_BDSP1g-3" style="edgeStyle=orthogonalEdgeStyle;shape=connector;rounded=0;orthogonalLoop=1;jettySize=auto;html=1;exitX=1;exitY=0.5;exitDx=0;exitDy=0;strokeColor=default;align=center;verticalAlign=middle;fontFamily=Helvetica;fontSize=11;fontColor=default;labelBackgroundColor=default;endArrow=classic;dashed=1;dashPattern=8 8;entryX=0.036;entryY=0.484;entryDx=0;entryDy=0;entryPerimeter=0;" parent="OnK4DBNyUY1hHmiSHMYj-1" source="_GTiFYOoLPVs7_BDSP1g-0" target="OnK4DBNyUY1hHmiSHMYj-13" edge="1">
          <mxGeometry relative="1" as="geometry">
            <mxPoint x="-260" y="40" as="targetPoint" />
            <Array as="points">
              <mxPoint x="-360" y="373" />
              <mxPoint x="-360" y="40" />
            </Array>
          </mxGeometry>
        </mxCell>
        <mxCell id="_GTiFYOoLPVs7_BDSP1g-6" value="notify" style="edgeLabel;html=1;align=center;verticalAlign=middle;resizable=0;points=[];fontFamily=Helvetica;fontSize=11;fontColor=default;labelBackgroundColor=default;" parent="_GTiFYOoLPVs7_BDSP1g-3" vertex="1" connectable="0">
          <mxGeometry x="-0.747" y="-4" relative="1" as="geometry">
            <mxPoint as="offset" />
          </mxGeometry>
        </mxCell>
        <mxCell id="xp1os3_sZLLsuzvTTXPb-0" style="edgeStyle=orthogonalEdgeStyle;rounded=0;orthogonalLoop=1;jettySize=auto;html=1;startArrow=classic;startFill=1;endArrow=none;endFill=0;" edge="1" parent="OnK4DBNyUY1hHmiSHMYj-1" source="OnK4DBNyUY1hHmiSHMYj-3">
          <mxGeometry relative="1" as="geometry">
            <mxPoint x="-520" y="40" as="targetPoint" />
            <Array as="points">
              <mxPoint x="-390" y="103" />
              <mxPoint x="-390" y="40" />
            </Array>
          </mxGeometry>
        </mxCell>
        <mxCell id="-t_eaRSfJN7YwV5oWL1G-0" value="get" style="edgeLabel;html=1;align=center;verticalAlign=middle;resizable=0;points=[];" vertex="1" connectable="0" parent="xp1os3_sZLLsuzvTTXPb-0">
          <mxGeometry x="0.0941" y="1" relative="1" as="geometry">
            <mxPoint as="offset" />
          </mxGeometry>
        </mxCell>
      </root>
    </mxGraphModel>
  </diagram>
  <diagram name="resp5" id="BT4lhXgqMdnU6uuAhFQT">
    <mxGraphModel dx="2460" dy="822" grid="1" gridSize="10" guides="1" tooltips="1" connect="1" arrows="1" fold="1" page="1" pageScale="1" pageWidth="800" pageHeight="500" backgroundImage="{&quot;src&quot;:&quot;data:page/id,pKgziUaKLTQ8jrkvlHAj&quot;}" math="0" shadow="0">
      <root>
        <mxCell id="Ss07RLuJwkJKOIX9fcOJ-0" />
        <mxCell id="Ss07RLuJwkJKOIX9fcOJ-1" parent="Ss07RLuJwkJKOIX9fcOJ-0" />
        <mxCell id="Ss07RLuJwkJKOIX9fcOJ-4" value="Task 2to1&lt;div&gt;part of: Task 1to2&lt;/div&gt;&lt;div&gt;status: completed&lt;br&gt;&lt;/div&gt;&lt;div&gt;requester: Device2&lt;/div&gt;&lt;div&gt;performer: Prac1&lt;/div&gt;&lt;div&gt;input: Quest.1&lt;/div&gt;&lt;div&gt;output: Qresp.1&lt;/div&gt;" style="rounded=1;whiteSpace=wrap;html=1;align=left;verticalAlign=top;spacingTop=0;spacing=2;spacingLeft=4;fontSize=14;fontStyle=1;" parent="Ss07RLuJwkJKOIX9fcOJ-1" vertex="1">
          <mxGeometry x="-752" y="230" width="152" height="130" as="geometry" />
        </mxCell>
        <mxCell id="Ss07RLuJwkJKOIX9fcOJ-5" value="Quest. 1" style="rounded=1;whiteSpace=wrap;html=1;align=left;verticalAlign=top;spacingTop=0;spacing=2;spacingLeft=4;fontSize=14;fontStyle=1;" parent="Ss07RLuJwkJKOIX9fcOJ-1" vertex="1">
          <mxGeometry x="-250" y="90" width="130" height="25" as="geometry" />
        </mxCell>
        <mxCell id="Ss07RLuJwkJKOIX9fcOJ-6" value="" style="shape=waypoint;sketch=0;size=6;pointerEvents=1;points=[];fillColor=none;resizable=0;rotatable=0;perimeter=centerPerimeter;snapToPoint=1;strokeColor=none;" parent="Ss07RLuJwkJKOIX9fcOJ-1" vertex="1">
          <mxGeometry x="-646" y="30" width="20" height="20" as="geometry" />
        </mxCell>
        <mxCell id="Ss07RLuJwkJKOIX9fcOJ-7" value="" style="shape=waypoint;sketch=0;size=6;pointerEvents=1;points=[];fillColor=none;resizable=0;rotatable=0;perimeter=centerPerimeter;snapToPoint=1;strokeColor=none;" parent="Ss07RLuJwkJKOIX9fcOJ-1" vertex="1">
          <mxGeometry x="-249" y="30" width="20" height="20" as="geometry" />
        </mxCell>
        <mxCell id="Ss07RLuJwkJKOIX9fcOJ-8" value="Patient 1" style="rounded=1;whiteSpace=wrap;html=1;align=left;verticalAlign=top;spacingTop=0;spacing=2;spacingLeft=4;fontSize=14;fontStyle=1;strokeColor=#000000;" parent="Ss07RLuJwkJKOIX9fcOJ-1" vertex="1">
          <mxGeometry x="-750" y="60" width="130" height="25" as="geometry" />
        </mxCell>
        <mxCell id="Ss07RLuJwkJKOIX9fcOJ-9" value="ServiceRequest 1" style="rounded=1;whiteSpace=wrap;html=1;align=left;verticalAlign=top;spacingTop=0;spacing=2;spacingLeft=4;fontSize=14;fontStyle=1;strokeColor=#000000;" parent="Ss07RLuJwkJKOIX9fcOJ-1" vertex="1">
          <mxGeometry x="-750" y="90" width="130" height="25" as="geometry" />
        </mxCell>
        <mxCell id="Ss07RLuJwkJKOIX9fcOJ-10" value="" style="shape=actor;whiteSpace=wrap;html=1;fillColor=#000000;" parent="Ss07RLuJwkJKOIX9fcOJ-1" vertex="1">
          <mxGeometry x="-730" y="34" width="18" height="22" as="geometry" />
        </mxCell>
        <mxCell id="Ss07RLuJwkJKOIX9fcOJ-11" value="" style="shape=waypoint;sketch=0;size=6;pointerEvents=1;points=[];fillColor=none;resizable=0;rotatable=0;perimeter=centerPerimeter;snapToPoint=1;strokeColor=none;" parent="Ss07RLuJwkJKOIX9fcOJ-1" vertex="1">
          <mxGeometry x="-646" y="30" width="20" height="20" as="geometry" />
        </mxCell>
        <mxCell id="Ss07RLuJwkJKOIX9fcOJ-12" value="" style="shape=waypoint;sketch=0;size=6;pointerEvents=1;points=[];fillColor=none;resizable=0;rotatable=0;perimeter=centerPerimeter;snapToPoint=1;strokeColor=none;" parent="Ss07RLuJwkJKOIX9fcOJ-1" vertex="1">
          <mxGeometry x="-249" y="30" width="20" height="20" as="geometry" />
        </mxCell>
        <mxCell id="Ss07RLuJwkJKOIX9fcOJ-13" value="Patient 1" style="rounded=1;whiteSpace=wrap;html=1;align=left;verticalAlign=top;spacingTop=0;spacing=2;spacingLeft=4;fontSize=14;fontStyle=1;strokeColor=#000000;" parent="Ss07RLuJwkJKOIX9fcOJ-1" vertex="1">
          <mxGeometry x="-750" y="60" width="130" height="25" as="geometry" />
        </mxCell>
        <mxCell id="Ss07RLuJwkJKOIX9fcOJ-14" value="ServiceRequest 1" style="rounded=1;whiteSpace=wrap;html=1;align=left;verticalAlign=top;spacingTop=0;spacing=2;spacingLeft=4;fontSize=14;fontStyle=1;strokeColor=#000000;" parent="Ss07RLuJwkJKOIX9fcOJ-1" vertex="1">
          <mxGeometry x="-750" y="90" width="130" height="25" as="geometry" />
        </mxCell>
        <mxCell id="Ss07RLuJwkJKOIX9fcOJ-15" value="" style="shape=actor;whiteSpace=wrap;html=1;fillColor=#000000;" parent="Ss07RLuJwkJKOIX9fcOJ-1" vertex="1">
          <mxGeometry x="-730" y="34" width="18" height="22" as="geometry" />
        </mxCell>
        <mxCell id="Ss07RLuJwkJKOIX9fcOJ-16" value="Task 1to2&lt;div&gt;basedOn: CarePlan 1&lt;br&gt;&lt;div&gt;status: accepted&lt;/div&gt;&lt;div&gt;&lt;div&gt;&lt;span style=&quot;background-color: initial;&quot;&gt;requester: Prac1&lt;/span&gt;&lt;/div&gt;&lt;div&gt;&lt;span style=&quot;background-color: initial;&quot;&gt;performer: HcS2&lt;/span&gt;&lt;/div&gt;&lt;/div&gt;&lt;/div&gt;" style="rounded=1;whiteSpace=wrap;html=1;align=left;verticalAlign=top;spacingTop=0;spacing=2;spacingLeft=4;fontSize=14;fontStyle=1;fillColor=#e1d5e7;strokeColor=#9673a6;" parent="Ss07RLuJwkJKOIX9fcOJ-1" vertex="1">
          <mxGeometry x="-750" y="120" width="150" height="100" as="geometry" />
        </mxCell>
        <mxCell id="Ss07RLuJwkJKOIX9fcOJ-17" value="" style="shape=image;verticalLabelPosition=bottom;labelBackgroundColor=default;verticalAlign=top;aspect=fixed;imageAspect=0;image=https://cdn.iconscout.com/icon/free/png-256/free-signature-icon-download-in-svg-png-gif-file-formats--sign-agreement-contract-deal-partnership-user-interface-vol-1-pack-icons-2202523.png;" parent="Ss07RLuJwkJKOIX9fcOJ-1" vertex="1">
          <mxGeometry x="-622" y="200" width="16" height="16" as="geometry" />
        </mxCell>
        <mxCell id="SVGONF9_kTC_4bYLMIIv-0" style="edgeStyle=orthogonalEdgeStyle;shape=connector;rounded=0;orthogonalLoop=1;jettySize=auto;html=1;exitX=0;exitY=0.5;exitDx=0;exitDy=0;entryX=1;entryY=0.5;entryDx=0;entryDy=0;strokeColor=default;align=center;verticalAlign=middle;fontFamily=Helvetica;fontSize=11;fontColor=default;labelBackgroundColor=default;endArrow=classic;" parent="Ss07RLuJwkJKOIX9fcOJ-1" source="Ss07RLuJwkJKOIX9fcOJ-18" target="Ss07RLuJwkJKOIX9fcOJ-16" edge="1">
          <mxGeometry relative="1" as="geometry" />
        </mxCell>
        <mxCell id="SVGONF9_kTC_4bYLMIIv-1" value="update" style="edgeLabel;html=1;align=center;verticalAlign=middle;resizable=0;points=[];fontFamily=Helvetica;fontSize=11;fontColor=default;labelBackgroundColor=default;" parent="SVGONF9_kTC_4bYLMIIv-0" vertex="1" connectable="0">
          <mxGeometry x="0.7506" relative="1" as="geometry">
            <mxPoint as="offset" />
          </mxGeometry>
        </mxCell>
        <mxCell id="Ss07RLuJwkJKOIX9fcOJ-18" value="Device workflow2" style="rounded=1;whiteSpace=wrap;html=1;align=left;verticalAlign=top;spacingTop=0;spacing=2;spacingLeft=4;fontSize=14;fontStyle=1;strokeColor=#000000;" parent="Ss07RLuJwkJKOIX9fcOJ-1" vertex="1">
          <mxGeometry x="-250" y="60" width="130" height="25" as="geometry" />
        </mxCell>
        <mxCell id="Ss07RLuJwkJKOIX9fcOJ-19" value="QResp. 1" style="rounded=1;whiteSpace=wrap;html=1;align=left;verticalAlign=top;spacingTop=0;spacing=2;spacingLeft=4;fontSize=14;fontStyle=1;" parent="Ss07RLuJwkJKOIX9fcOJ-1" vertex="1">
          <mxGeometry x="-750" y="370" width="150" height="25" as="geometry" />
        </mxCell>
      </root>
    </mxGraphModel>
  </diagram>
  <diagram name="cpct1" id="_V94AVJxmUGpcY35ij8S">
    <mxGraphModel dx="2348" dy="895" grid="1" gridSize="10" guides="1" tooltips="1" connect="1" arrows="1" fold="1" page="1" pageScale="1" pageWidth="800" pageHeight="500" backgroundImage="{&quot;src&quot;:&quot;data:page/id,pKgziUaKLTQ8jrkvlHAj&quot;}" math="0" shadow="0">
      <root>
        <mxCell id="4yLjCpRfhNSffjeKv-Rc-0" />
        <mxCell id="4yLjCpRfhNSffjeKv-Rc-1" parent="4yLjCpRfhNSffjeKv-Rc-0" />
        <mxCell id="7LrzbZ9V4e9abeLY_S57-0" value="" style="shape=waypoint;sketch=0;size=6;pointerEvents=1;points=[];fillColor=none;resizable=0;rotatable=0;perimeter=centerPerimeter;snapToPoint=1;strokeColor=none;" vertex="1" parent="4yLjCpRfhNSffjeKv-Rc-1">
          <mxGeometry x="-646" y="30" width="20" height="20" as="geometry" />
        </mxCell>
        <mxCell id="7LrzbZ9V4e9abeLY_S57-1" value="" style="shape=waypoint;sketch=0;size=6;pointerEvents=1;points=[];fillColor=none;resizable=0;rotatable=0;perimeter=centerPerimeter;snapToPoint=1;strokeColor=none;" vertex="1" parent="4yLjCpRfhNSffjeKv-Rc-1">
          <mxGeometry x="-249" y="30" width="20" height="20" as="geometry" />
        </mxCell>
        <mxCell id="7LrzbZ9V4e9abeLY_S57-2" value="Patient 1" style="rounded=1;whiteSpace=wrap;html=1;align=left;verticalAlign=top;spacingTop=0;spacing=2;spacingLeft=4;fontSize=14;fontStyle=1;strokeColor=#000000;" vertex="1" parent="4yLjCpRfhNSffjeKv-Rc-1">
          <mxGeometry x="-750" y="60" width="130" height="25" as="geometry" />
        </mxCell>
        <mxCell id="7LrzbZ9V4e9abeLY_S57-3" value="ServiceRequest 1" style="rounded=1;whiteSpace=wrap;html=1;align=left;verticalAlign=top;spacingTop=0;spacing=2;spacingLeft=4;fontSize=14;fontStyle=1;strokeColor=#9673a6;fillColor=#e1d5e7;" vertex="1" parent="4yLjCpRfhNSffjeKv-Rc-1">
          <mxGeometry x="-750" y="90" width="130" height="25" as="geometry" />
        </mxCell>
        <mxCell id="7LrzbZ9V4e9abeLY_S57-4" value="" style="shape=actor;whiteSpace=wrap;html=1;fillColor=#000000;" vertex="1" parent="4yLjCpRfhNSffjeKv-Rc-1">
          <mxGeometry x="-730" y="34" width="18" height="22" as="geometry" />
        </mxCell>
        <mxCell id="7LrzbZ9V4e9abeLY_S57-5" value="Device workflow2" style="rounded=1;whiteSpace=wrap;html=1;align=left;verticalAlign=top;spacingTop=0;spacing=2;spacingLeft=4;fontSize=14;fontStyle=1;strokeColor=#000000;" vertex="1" parent="4yLjCpRfhNSffjeKv-Rc-1">
          <mxGeometry x="-250" y="60" width="130" height="25" as="geometry" />
        </mxCell>
      </root>
    </mxGraphModel>
  </diagram>
  <diagram name="cpct2" id="l1hivyW6SLzozmFNK7cr">
    <mxGraphModel dx="1041" dy="171" grid="1" gridSize="10" guides="1" tooltips="1" connect="1" arrows="1" fold="1" page="1" pageScale="1" pageWidth="800" pageHeight="500" backgroundImage="{&quot;src&quot;:&quot;data:page/id,pKgziUaKLTQ8jrkvlHAj&quot;}" math="0" shadow="0">
      <root>
        <mxCell id="vTcBNrnRz_nqI1G5ocYJ-0" />
        <mxCell id="vTcBNrnRz_nqI1G5ocYJ-1" parent="vTcBNrnRz_nqI1G5ocYJ-0" />
        <mxCell id="rZr90CEaXNYjUgUtiVZb-0" value="" style="shape=waypoint;sketch=0;size=6;pointerEvents=1;points=[];fillColor=none;resizable=0;rotatable=0;perimeter=centerPerimeter;snapToPoint=1;strokeColor=none;" parent="vTcBNrnRz_nqI1G5ocYJ-1" vertex="1">
          <mxGeometry x="-560" y="50" width="20" height="20" as="geometry" />
        </mxCell>
        <mxCell id="rZr90CEaXNYjUgUtiVZb-1" value="" style="shape=waypoint;sketch=0;size=6;pointerEvents=1;points=[];fillColor=none;resizable=0;rotatable=0;perimeter=centerPerimeter;snapToPoint=1;strokeColor=none;" parent="vTcBNrnRz_nqI1G5ocYJ-1" vertex="1">
          <mxGeometry x="-249" y="30" width="20" height="20" as="geometry" />
        </mxCell>
        <mxCell id="rZr90CEaXNYjUgUtiVZb-2" value="Patient 1" style="rounded=1;whiteSpace=wrap;html=1;align=left;verticalAlign=top;spacingTop=0;spacing=2;spacingLeft=4;fontSize=14;fontStyle=1;strokeColor=#000000;" parent="vTcBNrnRz_nqI1G5ocYJ-1" vertex="1">
          <mxGeometry x="-750" y="60" width="150" height="25" as="geometry" />
        </mxCell>
        <mxCell id="rZr90CEaXNYjUgUtiVZb-3" value="ServiceRequest 1" style="rounded=1;whiteSpace=wrap;html=1;align=left;verticalAlign=top;spacingTop=0;spacing=2;spacingLeft=4;fontSize=14;fontStyle=1;strokeColor=#000000;" parent="vTcBNrnRz_nqI1G5ocYJ-1" vertex="1">
          <mxGeometry x="-750" y="90" width="150" height="25" as="geometry" />
        </mxCell>
        <mxCell id="rZr90CEaXNYjUgUtiVZb-4" value="Task 1to2&lt;div&gt;basedOn: CarePlan 1&lt;br&gt;&lt;div&gt;status: requested&lt;/div&gt;&lt;div&gt;&lt;div&gt;&lt;span style=&quot;background-color: initial;&quot;&gt;requester: Prac1&lt;/span&gt;&lt;/div&gt;&lt;div&gt;&lt;span style=&quot;background-color: initial;&quot;&gt;performer: HcS2&lt;/span&gt;&lt;/div&gt;&lt;/div&gt;&lt;/div&gt;" style="rounded=1;whiteSpace=wrap;html=1;align=left;verticalAlign=top;spacingTop=0;spacing=2;spacingLeft=4;fontSize=14;fontStyle=1;strokeColor=#9673a6;fillColor=#e1d5e7;" parent="vTcBNrnRz_nqI1G5ocYJ-1" vertex="1">
          <mxGeometry x="-750" y="120" width="150" height="100" as="geometry" />
        </mxCell>
        <mxCell id="rZr90CEaXNYjUgUtiVZb-5" style="edgeStyle=orthogonalEdgeStyle;rounded=0;orthogonalLoop=1;jettySize=auto;html=1;dashed=1;dashPattern=8 8;exitX=1.005;exitY=0.213;exitDx=0;exitDy=0;exitPerimeter=0;" parent="vTcBNrnRz_nqI1G5ocYJ-1" source="kZjhRdm0Vi9lZo3Vup6p-17" edge="1">
          <mxGeometry relative="1" as="geometry">
            <Array as="points" />
            <mxPoint x="-434.20000000000005" y="130" as="sourcePoint" />
            <mxPoint x="-285.5" y="130" as="targetPoint" />
          </mxGeometry>
        </mxCell>
        <mxCell id="rZr90CEaXNYjUgUtiVZb-6" value="notify" style="edgeLabel;html=1;align=center;verticalAlign=middle;resizable=0;points=[];fontFamily=Helvetica;fontSize=11;fontColor=default;labelBackgroundColor=default;" parent="rZr90CEaXNYjUgUtiVZb-5" vertex="1" connectable="0">
          <mxGeometry x="-0.6627" relative="1" as="geometry">
            <mxPoint x="47" y="-5" as="offset" />
          </mxGeometry>
        </mxCell>
        <mxCell id="rZr90CEaXNYjUgUtiVZb-8" value="" style="shape=image;verticalLabelPosition=bottom;labelBackgroundColor=default;verticalAlign=top;aspect=fixed;imageAspect=0;image=https://cdn.iconscout.com/icon/free/png-256/free-signature-icon-download-in-svg-png-gif-file-formats--sign-agreement-contract-deal-partnership-user-interface-vol-1-pack-icons-2202523.png;" parent="vTcBNrnRz_nqI1G5ocYJ-1" vertex="1">
          <mxGeometry x="-622" y="200" width="16" height="16" as="geometry" />
        </mxCell>
        <mxCell id="rZr90CEaXNYjUgUtiVZb-9" value="" style="image;aspect=fixed;html=1;points=[];align=left;fontSize=12;image=img/lib/azure2/general/Tag.svg;labelPosition=right;verticalLabelPosition=middle;verticalAlign=middle;flipH=1;" parent="vTcBNrnRz_nqI1G5ocYJ-1" vertex="1">
          <mxGeometry x="-622" y="125" width="20.36" height="20" as="geometry" />
        </mxCell>
        <mxCell id="rZr90CEaXNYjUgUtiVZb-10" value="Device workflow2" style="rounded=1;whiteSpace=wrap;html=1;align=left;verticalAlign=top;spacingTop=0;spacing=2;spacingLeft=4;fontSize=14;fontStyle=1;strokeColor=#000000;" parent="vTcBNrnRz_nqI1G5ocYJ-1" vertex="1">
          <mxGeometry x="-210" y="56" width="130" height="25" as="geometry" />
        </mxCell>
        <mxCell id="rZr90CEaXNYjUgUtiVZb-11" value="CarePlan 1&lt;div&gt;- Task 1to2&lt;/div&gt;" style="rounded=1;whiteSpace=wrap;html=1;align=left;verticalAlign=top;spacingTop=0;spacing=2;spacingLeft=4;fontSize=14;fontStyle=1;fillColor=#e1d5e7;strokeColor=#9673a6;" parent="vTcBNrnRz_nqI1G5ocYJ-1" vertex="1">
          <mxGeometry x="-751.64" y="290" width="150" height="50" as="geometry" />
        </mxCell>
        <mxCell id="rZr90CEaXNYjUgUtiVZb-12" value="CareTeam&lt;div&gt;- Patient 1&lt;/div&gt;&lt;div&gt;- Organization 1&lt;/div&gt;" style="rounded=1;whiteSpace=wrap;html=1;align=left;verticalAlign=top;spacingTop=0;spacing=2;spacingLeft=4;fontSize=14;fontStyle=1;fillColor=#e1d5e7;strokeColor=#9673a6;" parent="vTcBNrnRz_nqI1G5ocYJ-1" vertex="1">
          <mxGeometry x="-751.46" y="350" width="149.82" height="83" as="geometry" />
        </mxCell>
        <mxCell id="rZr90CEaXNYjUgUtiVZb-13" value="" style="image;aspect=fixed;html=1;points=[];align=left;fontSize=12;image=img/lib/azure2/general/Tag.svg;labelPosition=right;verticalLabelPosition=middle;verticalAlign=middle;flipH=1;" parent="vTcBNrnRz_nqI1G5ocYJ-1" vertex="1">
          <mxGeometry x="-625.64" y="294.51" width="20.36" height="20" as="geometry" />
        </mxCell>
        <mxCell id="rZr90CEaXNYjUgUtiVZb-14" value="" style="shape=image;verticalLabelPosition=bottom;labelBackgroundColor=default;verticalAlign=top;aspect=fixed;imageAspect=0;image=https://cdn.iconscout.com/icon/free/png-256/free-signature-icon-download-in-svg-png-gif-file-formats--sign-agreement-contract-deal-partnership-user-interface-vol-1-pack-icons-2202523.png;" parent="vTcBNrnRz_nqI1G5ocYJ-1" vertex="1">
          <mxGeometry x="-621.46" y="320" width="16" height="16" as="geometry" />
        </mxCell>
        <mxCell id="WwNhhRztnZhK2p5LTP83-0" value="&lt;div style=&quot;&quot;&gt;&lt;b style=&quot;background-color: initial;&quot;&gt;SCP-data&lt;/b&gt;&lt;/div&gt;" style="rounded=0;whiteSpace=wrap;html=1;verticalAlign=middle;spacingTop=0;fillColor=none;strokeColor=none;fontSize=16;spacing=0;align=left;" parent="vTcBNrnRz_nqI1G5ocYJ-1" vertex="1">
          <mxGeometry x="-240.5" y="376.5" width="170" height="15" as="geometry" />
        </mxCell>
        <mxCell id="WwNhhRztnZhK2p5LTP83-1" value="" style="image;aspect=fixed;html=1;points=[];align=left;fontSize=12;image=img/lib/azure2/general/Tag.svg;labelPosition=right;verticalLabelPosition=middle;verticalAlign=middle;flipH=1;" parent="vTcBNrnRz_nqI1G5ocYJ-1" vertex="1">
          <mxGeometry x="-285.5" y="377" width="15" height="14.73" as="geometry" />
        </mxCell>
        <mxCell id="5qrCnIniFsDtT3xBZw6b-0" value="" style="image;aspect=fixed;html=1;points=[];align=left;fontSize=12;image=img/lib/azure2/general/Tag.svg;labelPosition=right;verticalLabelPosition=middle;verticalAlign=middle;flipH=1;" vertex="1" parent="vTcBNrnRz_nqI1G5ocYJ-1">
          <mxGeometry x="-625.8199999999999" y="360" width="20.36" height="20" as="geometry" />
        </mxCell>
        <mxCell id="5qrCnIniFsDtT3xBZw6b-1" value="" style="shape=image;verticalLabelPosition=bottom;labelBackgroundColor=default;verticalAlign=top;aspect=fixed;imageAspect=0;image=https://cdn.iconscout.com/icon/free/png-256/free-signature-icon-download-in-svg-png-gif-file-formats--sign-agreement-contract-deal-partnership-user-interface-vol-1-pack-icons-2202523.png;" vertex="1" parent="vTcBNrnRz_nqI1G5ocYJ-1">
          <mxGeometry x="-621.64" y="385.49" width="16" height="16" as="geometry" />
        </mxCell>
        <mxCell id="kZjhRdm0Vi9lZo3Vup6p-1" style="edgeStyle=orthogonalEdgeStyle;rounded=0;orthogonalLoop=1;jettySize=auto;html=1;entryX=1;entryY=0.5;entryDx=0;entryDy=0;" edge="1" parent="vTcBNrnRz_nqI1G5ocYJ-1" target="rZr90CEaXNYjUgUtiVZb-4">
          <mxGeometry relative="1" as="geometry">
            <mxPoint x="-459" y="100" as="sourcePoint" />
            <Array as="points">
              <mxPoint x="-459" y="170" />
            </Array>
          </mxGeometry>
        </mxCell>
        <mxCell id="kZjhRdm0Vi9lZo3Vup6p-30" value="POST" style="edgeLabel;html=1;align=center;verticalAlign=middle;resizable=0;points=[];" vertex="1" connectable="0" parent="kZjhRdm0Vi9lZo3Vup6p-1">
          <mxGeometry x="0.4995" relative="1" as="geometry">
            <mxPoint as="offset" />
          </mxGeometry>
        </mxCell>
        <mxCell id="kZjhRdm0Vi9lZo3Vup6p-0" value="" style="shape=waypoint;sketch=0;size=6;pointerEvents=1;points=[];fillColor=none;resizable=0;rotatable=0;perimeter=centerPerimeter;snapToPoint=1;strokeColor=none;" vertex="1" parent="vTcBNrnRz_nqI1G5ocYJ-1">
          <mxGeometry x="-590" y="50" width="20" height="20" as="geometry" />
        </mxCell>
        <mxCell id="kZjhRdm0Vi9lZo3Vup6p-15" style="edgeStyle=orthogonalEdgeStyle;rounded=0;orthogonalLoop=1;jettySize=auto;html=1;entryX=1;entryY=0.5;entryDx=0;entryDy=0;exitX=0.5;exitY=1;exitDx=0;exitDy=0;" edge="1" parent="vTcBNrnRz_nqI1G5ocYJ-1" source="kZjhRdm0Vi9lZo3Vup6p-17" target="rZr90CEaXNYjUgUtiVZb-11">
          <mxGeometry relative="1" as="geometry">
            <mxPoint x="-480" y="90" as="sourcePoint" />
            <Array as="points">
              <mxPoint x="-455" y="315" />
            </Array>
          </mxGeometry>
        </mxCell>
        <mxCell id="kZjhRdm0Vi9lZo3Vup6p-17" value="" style="rounded=0;whiteSpace=wrap;html=1;strokeWidth=1.5;opacity=50;fillColor=#fff2cc;strokeColor=#d6b656;" vertex="1" parent="vTcBNrnRz_nqI1G5ocYJ-1">
          <mxGeometry x="-480" y="115" width="50" height="70" as="geometry" />
        </mxCell>
        <mxCell id="kZjhRdm0Vi9lZo3Vup6p-22" value="" style="rounded=0;whiteSpace=wrap;html=1;strokeWidth=1.5;opacity=50;fillColor=#fff2cc;strokeColor=#d6b656;" vertex="1" parent="vTcBNrnRz_nqI1G5ocYJ-1">
          <mxGeometry x="-285.5" y="115" width="42.26" height="70" as="geometry" />
        </mxCell>
        <mxCell id="kZjhRdm0Vi9lZo3Vup6p-28" value="" style="group" vertex="1" connectable="0" parent="vTcBNrnRz_nqI1G5ocYJ-1">
          <mxGeometry x="-480.995" y="62.875" width="50" height="36.25" as="geometry" />
        </mxCell>
        <mxCell id="kZjhRdm0Vi9lZo3Vup6p-23" value="" style="rounded=0;whiteSpace=wrap;html=1;strokeWidth=1.5;opacity=50;fillColor=#fff2cc;strokeColor=#d6b656;rotation=-90;" vertex="1" parent="kZjhRdm0Vi9lZo3Vup6p-28">
          <mxGeometry x="6.875" y="-6.875" width="36.25" height="50" as="geometry" />
        </mxCell>
        <mxCell id="rZr90CEaXNYjUgUtiVZb-7" value="" style="shape=actor;whiteSpace=wrap;html=1;fillColor=#000000;" parent="kZjhRdm0Vi9lZo3Vup6p-28" vertex="1">
          <mxGeometry x="6.869999999999999" y="11.440000000000001" width="14.3" height="19.38" as="geometry" />
        </mxCell>
        <mxCell id="kZjhRdm0Vi9lZo3Vup6p-24" value="" style="ellipse;whiteSpace=wrap;html=1;aspect=fixed;fillColor=#fff2cc;strokeColor=#d6b656;" vertex="1" parent="kZjhRdm0Vi9lZo3Vup6p-28">
          <mxGeometry x="46.125" y="3.125" width="1" height="1" as="geometry" />
        </mxCell>
        <mxCell id="kZjhRdm0Vi9lZo3Vup6p-25" value="" style="ellipse;whiteSpace=wrap;html=1;aspect=fixed;fillColor=#fff2cc;strokeColor=#d6b656;" vertex="1" parent="kZjhRdm0Vi9lZo3Vup6p-28">
          <mxGeometry x="42.125" y="3.125" width="1" height="1" as="geometry" />
        </mxCell>
        <mxCell id="kZjhRdm0Vi9lZo3Vup6p-26" value="" style="ellipse;whiteSpace=wrap;html=1;aspect=fixed;fillColor=#fff2cc;strokeColor=#d6b656;" vertex="1" parent="kZjhRdm0Vi9lZo3Vup6p-28">
          <mxGeometry x="37.61500000000001" y="3.125" width="1" height="1" as="geometry" />
        </mxCell>
        <mxCell id="kZjhRdm0Vi9lZo3Vup6p-27" value="" style="endArrow=none;html=1;rounded=0;fillColor=#fff2cc;strokeColor=#d6b656;opacity=50;" edge="1" parent="kZjhRdm0Vi9lZo3Vup6p-28">
          <mxGeometry width="50" height="50" relative="1" as="geometry">
            <mxPoint x="0.9950000000000045" y="6.125" as="sourcePoint" />
            <mxPoint x="48.995000000000005" y="6.125" as="targetPoint" />
          </mxGeometry>
        </mxCell>
        <mxCell id="kZjhRdm0Vi9lZo3Vup6p-29" value="" style="sketch=0;pointerEvents=1;shadow=0;dashed=0;html=1;strokeColor=none;labelPosition=center;verticalLabelPosition=bottom;verticalAlign=top;align=center;fillColor=#000000;shape=mxgraph.mscae.enterprise.settings" vertex="1" parent="vTcBNrnRz_nqI1G5ocYJ-1">
          <mxGeometry x="-476" y="118" width="12" height="12" as="geometry" />
        </mxCell>
        <mxCell id="kZjhRdm0Vi9lZo3Vup6p-31" value="Subscription 1" style="rounded=1;whiteSpace=wrap;html=1;align=left;verticalAlign=top;spacingTop=0;spacing=2;spacingLeft=4;fontSize=14;fontStyle=1;fillColor=#e1d5e7;strokeColor=#9673a6;" vertex="1" parent="vTcBNrnRz_nqI1G5ocYJ-1">
          <mxGeometry x="-751.46" y="225" width="150" height="25" as="geometry" />
        </mxCell>
        <mxCell id="kZjhRdm0Vi9lZo3Vup6p-32" value="Subscription 2" style="rounded=1;whiteSpace=wrap;html=1;align=left;verticalAlign=top;spacingTop=0;spacing=2;spacingLeft=4;fontSize=14;fontStyle=1;fillColor=#e1d5e7;strokeColor=#9673a6;" vertex="1" parent="vTcBNrnRz_nqI1G5ocYJ-1">
          <mxGeometry x="-750" y="256" width="150" height="25" as="geometry" />
        </mxCell>
      </root>
    </mxGraphModel>
  </diagram>
  <diagram name="cpct3" id="jQ3esQXM-MhWasYh3ws5">
    <mxGraphModel dx="2220" dy="856" grid="1" gridSize="10" guides="1" tooltips="1" connect="1" arrows="1" fold="1" page="1" pageScale="1" pageWidth="800" pageHeight="500" backgroundImage="{&quot;src&quot;:&quot;data:page/id,pKgziUaKLTQ8jrkvlHAj&quot;}" math="0" shadow="0">
      <root>
        <mxCell id="grUNdYkY56CiJf1T9lWx-0" />
        <mxCell id="grUNdYkY56CiJf1T9lWx-1" parent="grUNdYkY56CiJf1T9lWx-0" />
        <mxCell id="4rXEUGIFYJJ1q-BLvr9F-0" value="" style="shape=waypoint;sketch=0;size=6;pointerEvents=1;points=[];fillColor=none;resizable=0;rotatable=0;perimeter=centerPerimeter;snapToPoint=1;strokeColor=none;" parent="grUNdYkY56CiJf1T9lWx-1" vertex="1">
          <mxGeometry x="-646" y="30" width="20" height="20" as="geometry" />
        </mxCell>
        <mxCell id="4rXEUGIFYJJ1q-BLvr9F-1" value="" style="shape=waypoint;sketch=0;size=6;pointerEvents=1;points=[];fillColor=none;resizable=0;rotatable=0;perimeter=centerPerimeter;snapToPoint=1;strokeColor=none;" parent="grUNdYkY56CiJf1T9lWx-1" vertex="1">
          <mxGeometry x="-249" y="30" width="20" height="20" as="geometry" />
        </mxCell>
        <mxCell id="4rXEUGIFYJJ1q-BLvr9F-2" value="Patient 1" style="rounded=1;whiteSpace=wrap;html=1;align=left;verticalAlign=top;spacingTop=0;spacing=2;spacingLeft=4;fontSize=14;fontStyle=1;strokeColor=#000000;" parent="grUNdYkY56CiJf1T9lWx-1" vertex="1">
          <mxGeometry x="-750" y="60" width="130" height="25" as="geometry" />
        </mxCell>
        <mxCell id="4rXEUGIFYJJ1q-BLvr9F-3" value="ServiceRequest 1" style="rounded=1;whiteSpace=wrap;html=1;align=left;verticalAlign=top;spacingTop=0;spacing=2;spacingLeft=4;fontSize=14;fontStyle=1;strokeColor=#000000;" parent="grUNdYkY56CiJf1T9lWx-1" vertex="1">
          <mxGeometry x="-750" y="90" width="130" height="25" as="geometry" />
        </mxCell>
        <mxCell id="4rXEUGIFYJJ1q-BLvr9F-4" value="" style="shape=actor;whiteSpace=wrap;html=1;fillColor=#000000;" parent="grUNdYkY56CiJf1T9lWx-1" vertex="1">
          <mxGeometry x="-730" y="34" width="18" height="22" as="geometry" />
        </mxCell>
        <mxCell id="4rXEUGIFYJJ1q-BLvr9F-5" value="" style="shape=waypoint;sketch=0;size=6;pointerEvents=1;points=[];fillColor=none;resizable=0;rotatable=0;perimeter=centerPerimeter;snapToPoint=1;strokeColor=none;" parent="grUNdYkY56CiJf1T9lWx-1" vertex="1">
          <mxGeometry x="-646" y="30" width="20" height="20" as="geometry" />
        </mxCell>
        <mxCell id="4rXEUGIFYJJ1q-BLvr9F-6" style="edgeStyle=orthogonalEdgeStyle;rounded=0;orthogonalLoop=1;jettySize=auto;html=1;entryX=1;entryY=0.5;entryDx=0;entryDy=0;exitX=0;exitY=0.75;exitDx=0;exitDy=0;" parent="grUNdYkY56CiJf1T9lWx-1" source="4rXEUGIFYJJ1q-BLvr9F-26" target="4rXEUGIFYJJ1q-BLvr9F-13" edge="1">
          <mxGeometry relative="1" as="geometry">
            <mxPoint x="-440" y="141.75" as="targetPoint" />
          </mxGeometry>
        </mxCell>
        <mxCell id="4rXEUGIFYJJ1q-BLvr9F-7" value="context: Task 1to2" style="edgeLabel;html=1;align=center;verticalAlign=middle;resizable=0;points=[];fontFamily=Helvetica;fontSize=11;fontColor=default;labelBackgroundColor=default;" parent="4rXEUGIFYJJ1q-BLvr9F-6" vertex="1" connectable="0">
          <mxGeometry x="0.7075" y="1" relative="1" as="geometry">
            <mxPoint x="171" y="-110" as="offset" />
          </mxGeometry>
        </mxCell>
        <mxCell id="4rXEUGIFYJJ1q-BLvr9F-8" value="update" style="edgeLabel;html=1;align=center;verticalAlign=middle;resizable=0;points=[];fontFamily=Helvetica;fontSize=11;fontColor=default;labelBackgroundColor=default;" parent="4rXEUGIFYJJ1q-BLvr9F-6" vertex="1" connectable="0">
          <mxGeometry x="0.6134" y="-1" relative="1" as="geometry">
            <mxPoint x="-15" as="offset" />
          </mxGeometry>
        </mxCell>
        <mxCell id="4rXEUGIFYJJ1q-BLvr9F-9" value="" style="shape=waypoint;sketch=0;size=6;pointerEvents=1;points=[];fillColor=none;resizable=0;rotatable=0;perimeter=centerPerimeter;snapToPoint=1;strokeColor=none;" parent="grUNdYkY56CiJf1T9lWx-1" vertex="1">
          <mxGeometry x="-249" y="30" width="20" height="20" as="geometry" />
        </mxCell>
        <mxCell id="4rXEUGIFYJJ1q-BLvr9F-10" value="Patient 1" style="rounded=1;whiteSpace=wrap;html=1;align=left;verticalAlign=top;spacingTop=0;spacing=2;spacingLeft=4;fontSize=14;fontStyle=1;strokeColor=#000000;" parent="grUNdYkY56CiJf1T9lWx-1" vertex="1">
          <mxGeometry x="-750" y="60" width="130" height="25" as="geometry" />
        </mxCell>
        <mxCell id="4rXEUGIFYJJ1q-BLvr9F-11" value="ServiceRequest 1" style="rounded=1;whiteSpace=wrap;html=1;align=left;verticalAlign=top;spacingTop=0;spacing=2;spacingLeft=4;fontSize=14;fontStyle=1;strokeColor=#000000;" parent="grUNdYkY56CiJf1T9lWx-1" vertex="1">
          <mxGeometry x="-750" y="90" width="130" height="25" as="geometry" />
        </mxCell>
        <mxCell id="4rXEUGIFYJJ1q-BLvr9F-12" value="" style="shape=actor;whiteSpace=wrap;html=1;fillColor=#000000;" parent="grUNdYkY56CiJf1T9lWx-1" vertex="1">
          <mxGeometry x="-730" y="34" width="18" height="22" as="geometry" />
        </mxCell>
        <mxCell id="4rXEUGIFYJJ1q-BLvr9F-13" value="Task 1to2&lt;div&gt;basedOn: CarePlan 1&lt;br&gt;&lt;div&gt;status: accepted&lt;/div&gt;&lt;div&gt;&lt;div&gt;&lt;span style=&quot;background-color: initial;&quot;&gt;requester: Prac1&lt;/span&gt;&lt;/div&gt;&lt;div&gt;&lt;span style=&quot;background-color: initial;&quot;&gt;performer: HcS2&lt;/span&gt;&lt;/div&gt;&lt;/div&gt;&lt;/div&gt;" style="rounded=1;whiteSpace=wrap;html=1;align=left;verticalAlign=top;spacingTop=0;spacing=2;spacingLeft=4;fontSize=14;fontStyle=1;strokeColor=#9673a6;fillColor=#e1d5e7;" parent="grUNdYkY56CiJf1T9lWx-1" vertex="1">
          <mxGeometry x="-750" y="120" width="150" height="100" as="geometry" />
        </mxCell>
        <mxCell id="4rXEUGIFYJJ1q-BLvr9F-16" style="edgeStyle=orthogonalEdgeStyle;shape=connector;rounded=0;orthogonalLoop=1;jettySize=auto;html=1;exitX=1;exitY=0.5;exitDx=0;exitDy=0;strokeColor=default;align=center;verticalAlign=middle;fontFamily=Helvetica;fontSize=11;fontColor=default;labelBackgroundColor=default;endArrow=classic;dashed=1;entryX=1;entryY=0.75;entryDx=0;entryDy=0;" parent="grUNdYkY56CiJf1T9lWx-1" source="4rXEUGIFYJJ1q-BLvr9F-18" target="xhFmcly0PzfC3u-W-8ja-0" edge="1">
          <mxGeometry relative="1" as="geometry">
            <mxPoint x="-603.8200000000002" y="268" as="targetPoint" />
          </mxGeometry>
        </mxCell>
        <mxCell id="4rXEUGIFYJJ1q-BLvr9F-17" value="signatures&amp;nbsp;&lt;div&gt;nesten?&lt;/div&gt;" style="edgeLabel;html=1;align=center;verticalAlign=middle;resizable=0;points=[];fontFamily=Helvetica;fontSize=11;fontColor=default;labelBackgroundColor=default;" parent="4rXEUGIFYJJ1q-BLvr9F-16" vertex="1" connectable="0">
          <mxGeometry x="0.1938" relative="1" as="geometry">
            <mxPoint x="34" y="-11" as="offset" />
          </mxGeometry>
        </mxCell>
        <mxCell id="4rXEUGIFYJJ1q-BLvr9F-18" value="" style="shape=image;verticalLabelPosition=bottom;labelBackgroundColor=default;verticalAlign=top;aspect=fixed;imageAspect=0;image=https://cdn.iconscout.com/icon/free/png-256/free-signature-icon-download-in-svg-png-gif-file-formats--sign-agreement-contract-deal-partnership-user-interface-vol-1-pack-icons-2202523.png;" parent="grUNdYkY56CiJf1T9lWx-1" vertex="1">
          <mxGeometry x="-622" y="200" width="16" height="16" as="geometry" />
        </mxCell>
        <mxCell id="4rXEUGIFYJJ1q-BLvr9F-20" value="" style="image;aspect=fixed;html=1;points=[];align=left;fontSize=12;image=img/lib/azure2/general/Tag.svg;labelPosition=right;verticalLabelPosition=middle;verticalAlign=middle;flipH=1;" parent="grUNdYkY56CiJf1T9lWx-1" vertex="1">
          <mxGeometry x="-622" y="125" width="20.36" height="20" as="geometry" />
        </mxCell>
        <mxCell id="4rXEUGIFYJJ1q-BLvr9F-22" style="edgeStyle=orthogonalEdgeStyle;shape=connector;rounded=0;orthogonalLoop=1;jettySize=auto;html=1;entryX=1;entryY=0.5;entryDx=0;entryDy=0;strokeColor=default;align=center;verticalAlign=middle;fontFamily=Helvetica;fontSize=11;fontColor=default;labelBackgroundColor=default;endArrow=none;exitX=0;exitY=0.25;exitDx=0;exitDy=0;startArrow=classic;startFill=1;endFill=0;" parent="grUNdYkY56CiJf1T9lWx-1" source="4rXEUGIFYJJ1q-BLvr9F-26" target="4rXEUGIFYJJ1q-BLvr9F-11" edge="1">
          <mxGeometry relative="1" as="geometry">
            <Array as="points">
              <mxPoint x="-440" y="66" />
              <mxPoint x="-440" y="102" />
            </Array>
          </mxGeometry>
        </mxCell>
        <mxCell id="4rXEUGIFYJJ1q-BLvr9F-23" value="get" style="edgeLabel;html=1;align=center;verticalAlign=middle;resizable=0;points=[];fontFamily=Helvetica;fontSize=11;fontColor=default;labelBackgroundColor=default;" parent="4rXEUGIFYJJ1q-BLvr9F-22" vertex="1" connectable="0">
          <mxGeometry x="0.6193" relative="1" as="geometry">
            <mxPoint x="4" as="offset" />
          </mxGeometry>
        </mxCell>
        <mxCell id="4rXEUGIFYJJ1q-BLvr9F-24" style="edgeStyle=orthogonalEdgeStyle;shape=connector;rounded=0;orthogonalLoop=1;jettySize=auto;html=1;entryX=1;entryY=0.25;entryDx=0;entryDy=0;strokeColor=default;align=center;verticalAlign=middle;fontFamily=Helvetica;fontSize=11;fontColor=default;labelBackgroundColor=default;endArrow=none;exitX=0;exitY=0.25;exitDx=0;exitDy=0;startArrow=classic;startFill=1;endFill=0;" parent="grUNdYkY56CiJf1T9lWx-1" source="4rXEUGIFYJJ1q-BLvr9F-26" target="4rXEUGIFYJJ1q-BLvr9F-13" edge="1">
          <mxGeometry relative="1" as="geometry">
            <Array as="points">
              <mxPoint x="-440" y="66" />
              <mxPoint x="-440" y="145" />
            </Array>
          </mxGeometry>
        </mxCell>
        <mxCell id="4rXEUGIFYJJ1q-BLvr9F-25" value="get" style="edgeLabel;html=1;align=center;verticalAlign=middle;resizable=0;points=[];fontFamily=Helvetica;fontSize=11;fontColor=default;labelBackgroundColor=default;" parent="4rXEUGIFYJJ1q-BLvr9F-24" vertex="1" connectable="0">
          <mxGeometry x="0.69" y="-1" relative="1" as="geometry">
            <mxPoint x="-6" y="1" as="offset" />
          </mxGeometry>
        </mxCell>
        <mxCell id="4rXEUGIFYJJ1q-BLvr9F-26" value="Device workflow2" style="rounded=1;whiteSpace=wrap;html=1;align=left;verticalAlign=top;spacingTop=0;spacing=2;spacingLeft=4;fontSize=14;fontStyle=1;strokeColor=#000000;" parent="grUNdYkY56CiJf1T9lWx-1" vertex="1">
          <mxGeometry x="-250" y="60" width="130" height="25" as="geometry" />
        </mxCell>
        <mxCell id="KfCv5niQMt_hYn4Sv0oL-0" value="&lt;div style=&quot;&quot;&gt;&lt;b style=&quot;background-color: initial;&quot;&gt;SCP-data&lt;/b&gt;&lt;/div&gt;" style="rounded=0;whiteSpace=wrap;html=1;verticalAlign=middle;spacingTop=0;fillColor=none;strokeColor=none;fontSize=16;spacing=0;align=left;" parent="grUNdYkY56CiJf1T9lWx-1" vertex="1">
          <mxGeometry x="-240.5" y="376.5" width="170" height="15" as="geometry" />
        </mxCell>
        <mxCell id="KfCv5niQMt_hYn4Sv0oL-1" value="" style="image;aspect=fixed;html=1;points=[];align=left;fontSize=12;image=img/lib/azure2/general/Tag.svg;labelPosition=right;verticalLabelPosition=middle;verticalAlign=middle;flipH=1;" parent="grUNdYkY56CiJf1T9lWx-1" vertex="1">
          <mxGeometry x="-285.5" y="377" width="15" height="14.73" as="geometry" />
        </mxCell>
        <mxCell id="xhFmcly0PzfC3u-W-8ja-0" value="CarePlan 1&lt;div&gt;- Task 1to2&lt;/div&gt;" style="rounded=1;whiteSpace=wrap;html=1;align=left;verticalAlign=top;spacingTop=0;spacing=2;spacingLeft=4;fontSize=14;fontStyle=1;fillColor=#e1d5e7;strokeColor=#9673a6;" vertex="1" parent="grUNdYkY56CiJf1T9lWx-1">
          <mxGeometry x="-750" y="230" width="150" height="50" as="geometry" />
        </mxCell>
        <mxCell id="xhFmcly0PzfC3u-W-8ja-1" value="CareTeam 1&lt;div&gt;- Patient 1&lt;/div&gt;&lt;div&gt;- Organization 1&lt;/div&gt;" style="rounded=1;whiteSpace=wrap;html=1;align=left;verticalAlign=top;spacingTop=0;spacing=2;spacingLeft=4;fontSize=14;fontStyle=1;fillColor=#e1d5e7;strokeColor=#9673a6;" vertex="1" parent="grUNdYkY56CiJf1T9lWx-1">
          <mxGeometry x="-749.82" y="290" width="149.82" height="83" as="geometry" />
        </mxCell>
        <mxCell id="xhFmcly0PzfC3u-W-8ja-2" value="" style="image;aspect=fixed;html=1;points=[];align=left;fontSize=12;image=img/lib/azure2/general/Tag.svg;labelPosition=right;verticalLabelPosition=middle;verticalAlign=middle;flipH=1;" vertex="1" parent="grUNdYkY56CiJf1T9lWx-1">
          <mxGeometry x="-624" y="234.51" width="20.36" height="20" as="geometry" />
        </mxCell>
        <mxCell id="xhFmcly0PzfC3u-W-8ja-3" value="" style="shape=image;verticalLabelPosition=bottom;labelBackgroundColor=default;verticalAlign=top;aspect=fixed;imageAspect=0;image=https://cdn.iconscout.com/icon/free/png-256/free-signature-icon-download-in-svg-png-gif-file-formats--sign-agreement-contract-deal-partnership-user-interface-vol-1-pack-icons-2202523.png;" vertex="1" parent="grUNdYkY56CiJf1T9lWx-1">
          <mxGeometry x="-619.82" y="260" width="16" height="16" as="geometry" />
        </mxCell>
        <mxCell id="xhFmcly0PzfC3u-W-8ja-4" value="" style="image;aspect=fixed;html=1;points=[];align=left;fontSize=12;image=img/lib/azure2/general/Tag.svg;labelPosition=right;verticalLabelPosition=middle;verticalAlign=middle;flipH=1;" vertex="1" parent="grUNdYkY56CiJf1T9lWx-1">
          <mxGeometry x="-624.18" y="300" width="20.36" height="20" as="geometry" />
        </mxCell>
        <mxCell id="xhFmcly0PzfC3u-W-8ja-5" value="" style="shape=image;verticalLabelPosition=bottom;labelBackgroundColor=default;verticalAlign=top;aspect=fixed;imageAspect=0;image=https://cdn.iconscout.com/icon/free/png-256/free-signature-icon-download-in-svg-png-gif-file-formats--sign-agreement-contract-deal-partnership-user-interface-vol-1-pack-icons-2202523.png;" vertex="1" parent="grUNdYkY56CiJf1T9lWx-1">
          <mxGeometry x="-620" y="325.49" width="16" height="16" as="geometry" />
        </mxCell>
      </root>
    </mxGraphModel>
  </diagram>
  <diagram name="cpct4" id="coVhsf1D1s3xhsSvMuTd">
    <mxGraphModel dx="2471" dy="1007" grid="1" gridSize="10" guides="1" tooltips="1" connect="1" arrows="1" fold="1" page="1" pageScale="1" pageWidth="800" pageHeight="500" backgroundImage="{&quot;src&quot;:&quot;data:page/id,pKgziUaKLTQ8jrkvlHAj&quot;}" math="0" shadow="0">
      <root>
        <mxCell id="S46qaIy4FpFh_dH2xpOn-0" />
        <mxCell id="S46qaIy4FpFh_dH2xpOn-1" parent="S46qaIy4FpFh_dH2xpOn-0" />
        <mxCell id="gwXgRDFBFEI2IKHxjKXG-30" value="" style="shape=waypoint;sketch=0;size=6;pointerEvents=1;points=[];fillColor=none;resizable=0;rotatable=0;perimeter=centerPerimeter;snapToPoint=1;strokeColor=none;" parent="S46qaIy4FpFh_dH2xpOn-1" vertex="1">
          <mxGeometry x="-596" y="50" width="20" height="20" as="geometry" />
        </mxCell>
        <mxCell id="gwXgRDFBFEI2IKHxjKXG-32" value="Patient 1" style="rounded=1;whiteSpace=wrap;html=1;align=left;verticalAlign=top;spacingTop=0;spacing=2;spacingLeft=4;fontSize=14;fontStyle=1;strokeColor=#000000;" parent="S46qaIy4FpFh_dH2xpOn-1" vertex="1">
          <mxGeometry x="-751" y="60" width="130" height="25" as="geometry" />
        </mxCell>
        <mxCell id="gwXgRDFBFEI2IKHxjKXG-33" value="ServiceRequest 1" style="rounded=1;whiteSpace=wrap;html=1;align=left;verticalAlign=top;spacingTop=0;spacing=2;spacingLeft=4;fontSize=14;fontStyle=1;strokeColor=#000000;" parent="S46qaIy4FpFh_dH2xpOn-1" vertex="1">
          <mxGeometry x="-751" y="90" width="130" height="25" as="geometry" />
        </mxCell>
        <mxCell id="gwXgRDFBFEI2IKHxjKXG-34" value="" style="shape=actor;whiteSpace=wrap;html=1;fillColor=#000000;" parent="S46qaIy4FpFh_dH2xpOn-1" vertex="1">
          <mxGeometry x="-710" y="30" width="18" height="22" as="geometry" />
        </mxCell>
        <mxCell id="gwXgRDFBFEI2IKHxjKXG-35" value="" style="shape=waypoint;sketch=0;size=6;pointerEvents=1;points=[];fillColor=none;resizable=0;rotatable=0;perimeter=centerPerimeter;snapToPoint=1;strokeColor=none;" parent="S46qaIy4FpFh_dH2xpOn-1" vertex="1">
          <mxGeometry x="-596" y="50" width="20" height="20" as="geometry" />
        </mxCell>
        <mxCell id="gwXgRDFBFEI2IKHxjKXG-37" style="edgeStyle=orthogonalEdgeStyle;shape=connector;rounded=0;orthogonalLoop=1;jettySize=auto;html=1;entryX=0;entryY=0.5;entryDx=0;entryDy=0;strokeColor=default;align=center;verticalAlign=middle;fontFamily=Helvetica;fontSize=11;fontColor=default;labelBackgroundColor=default;endArrow=classic;" parent="S46qaIy4FpFh_dH2xpOn-1" source="gwXgRDFBFEI2IKHxjKXG-40" target="gwXgRDFBFEI2IKHxjKXG-49" edge="1">
          <mxGeometry relative="1" as="geometry" />
        </mxCell>
        <mxCell id="gwXgRDFBFEI2IKHxjKXG-38" value="get" style="edgeLabel;html=1;align=center;verticalAlign=middle;resizable=0;points=[];fontFamily=Helvetica;fontSize=11;fontColor=default;labelBackgroundColor=default;" parent="gwXgRDFBFEI2IKHxjKXG-37" vertex="1" connectable="0">
          <mxGeometry x="-0.5422" y="-1" relative="1" as="geometry">
            <mxPoint as="offset" />
          </mxGeometry>
        </mxCell>
        <mxCell id="gwXgRDFBFEI2IKHxjKXG-39" value="context: Task 1to2" style="edgeLabel;html=1;align=center;verticalAlign=middle;resizable=0;points=[];fontFamily=Helvetica;fontSize=11;fontColor=default;labelBackgroundColor=default;" parent="gwXgRDFBFEI2IKHxjKXG-37" vertex="1" connectable="0">
          <mxGeometry x="-0.1247" y="1" relative="1" as="geometry">
            <mxPoint as="offset" />
          </mxGeometry>
        </mxCell>
        <mxCell id="gwXgRDFBFEI2IKHxjKXG-40" value="Patient 1" style="rounded=1;whiteSpace=wrap;html=1;align=left;verticalAlign=top;spacingTop=0;spacing=2;spacingLeft=4;fontSize=14;fontStyle=1;strokeColor=#000000;" parent="S46qaIy4FpFh_dH2xpOn-1" vertex="1">
          <mxGeometry x="-751" y="60" width="130" height="25" as="geometry" />
        </mxCell>
        <mxCell id="gwXgRDFBFEI2IKHxjKXG-41" value="ServiceRequest 1" style="rounded=1;whiteSpace=wrap;html=1;align=left;verticalAlign=top;spacingTop=0;spacing=2;spacingLeft=4;fontSize=14;fontStyle=1;strokeColor=#000000;" parent="S46qaIy4FpFh_dH2xpOn-1" vertex="1">
          <mxGeometry x="-751" y="90" width="130" height="25" as="geometry" />
        </mxCell>
        <mxCell id="gwXgRDFBFEI2IKHxjKXG-43" value="Task 1to2&lt;div&gt;basedOn: CarePlan 1&lt;br&gt;&lt;div&gt;status: accepted&lt;/div&gt;&lt;div&gt;&lt;div&gt;&lt;span style=&quot;background-color: initial;&quot;&gt;requester: Prac1&lt;/span&gt;&lt;/div&gt;&lt;div&gt;&lt;span style=&quot;background-color: initial;&quot;&gt;performer: HcS2&lt;/span&gt;&lt;/div&gt;&lt;/div&gt;&lt;/div&gt;" style="rounded=1;whiteSpace=wrap;html=1;align=left;verticalAlign=top;spacingTop=0;spacing=2;spacingLeft=4;fontSize=14;fontStyle=1;" parent="S46qaIy4FpFh_dH2xpOn-1" vertex="1">
          <mxGeometry x="-751" y="120" width="150" height="100" as="geometry" />
        </mxCell>
        <mxCell id="gwXgRDFBFEI2IKHxjKXG-44" value="" style="shape=image;verticalLabelPosition=bottom;labelBackgroundColor=default;verticalAlign=top;aspect=fixed;imageAspect=0;image=https://cdn.iconscout.com/icon/free/png-256/free-signature-icon-download-in-svg-png-gif-file-formats--sign-agreement-contract-deal-partnership-user-interface-vol-1-pack-icons-2202523.png;" parent="S46qaIy4FpFh_dH2xpOn-1" vertex="1">
          <mxGeometry x="-623" y="200" width="16" height="16" as="geometry" />
        </mxCell>
        <mxCell id="gwXgRDFBFEI2IKHxjKXG-45" value="" style="image;aspect=fixed;html=1;points=[];align=left;fontSize=12;image=img/lib/azure2/general/Tag.svg;labelPosition=right;verticalLabelPosition=middle;verticalAlign=middle;flipH=1;" parent="S46qaIy4FpFh_dH2xpOn-1" vertex="1">
          <mxGeometry x="-623" y="125" width="20.36" height="20" as="geometry" />
        </mxCell>
        <mxCell id="gwXgRDFBFEI2IKHxjKXG-46" style="edgeStyle=orthogonalEdgeStyle;shape=connector;rounded=0;orthogonalLoop=1;jettySize=auto;html=1;exitX=1;exitY=0.5;exitDx=0;exitDy=0;strokeColor=default;align=center;verticalAlign=middle;fontFamily=Helvetica;fontSize=11;fontColor=default;labelBackgroundColor=default;endArrow=classic;entryX=0;entryY=0.5;entryDx=0;entryDy=0;" parent="S46qaIy4FpFh_dH2xpOn-1" target="gwXgRDFBFEI2IKHxjKXG-49" edge="1">
          <mxGeometry relative="1" as="geometry">
            <mxPoint x="-270" y="319.9999999999999" as="targetPoint" />
            <Array as="points">
              <mxPoint x="-330" y="310" />
              <mxPoint x="-330" y="83" />
            </Array>
            <mxPoint x="-590" y="310" as="sourcePoint" />
          </mxGeometry>
        </mxCell>
        <mxCell id="gwXgRDFBFEI2IKHxjKXG-47" value="get" style="edgeLabel;html=1;align=center;verticalAlign=middle;resizable=0;points=[];fontFamily=Helvetica;fontSize=11;fontColor=default;labelBackgroundColor=default;" parent="gwXgRDFBFEI2IKHxjKXG-46" vertex="1" connectable="0">
          <mxGeometry x="-0.6493" y="-1" relative="1" as="geometry">
            <mxPoint x="-21" y="-1" as="offset" />
          </mxGeometry>
        </mxCell>
        <mxCell id="gwXgRDFBFEI2IKHxjKXG-48" value="context: Task 1to2" style="edgeLabel;html=1;align=center;verticalAlign=middle;resizable=0;points=[];fontFamily=Helvetica;fontSize=11;fontColor=default;labelBackgroundColor=default;" parent="gwXgRDFBFEI2IKHxjKXG-46" vertex="1" connectable="0">
          <mxGeometry x="-0.5562" relative="1" as="geometry">
            <mxPoint x="12" y="10" as="offset" />
          </mxGeometry>
        </mxCell>
        <mxCell id="gwXgRDFBFEI2IKHxjKXG-49" value="Device workflow2" style="rounded=1;whiteSpace=wrap;html=1;align=left;verticalAlign=top;spacingTop=0;spacing=2;spacingLeft=4;fontSize=14;fontStyle=1;strokeColor=#000000;" parent="S46qaIy4FpFh_dH2xpOn-1" vertex="1">
          <mxGeometry x="-240" y="70" width="130" height="25" as="geometry" />
        </mxCell>
        <mxCell id="uphn-Z9wvXiF3l7FVlVb-0" value="&lt;div style=&quot;&quot;&gt;&lt;b style=&quot;background-color: initial;&quot;&gt;SCP-data&lt;/b&gt;&lt;/div&gt;" style="rounded=0;whiteSpace=wrap;html=1;verticalAlign=middle;spacingTop=0;fillColor=none;strokeColor=none;fontSize=16;spacing=0;align=left;" parent="S46qaIy4FpFh_dH2xpOn-1" vertex="1">
          <mxGeometry x="-240.5" y="376.5" width="170" height="15" as="geometry" />
        </mxCell>
        <mxCell id="uphn-Z9wvXiF3l7FVlVb-1" value="" style="image;aspect=fixed;html=1;points=[];align=left;fontSize=12;image=img/lib/azure2/general/Tag.svg;labelPosition=right;verticalLabelPosition=middle;verticalAlign=middle;flipH=1;" parent="S46qaIy4FpFh_dH2xpOn-1" vertex="1">
          <mxGeometry x="-285.5" y="377" width="15" height="14.73" as="geometry" />
        </mxCell>
        <mxCell id="uphn-Z9wvXiF3l7FVlVb-2" value="&lt;div style=&quot;&quot;&gt;&lt;b style=&quot;background-color: initial;&quot;&gt;copy of instance&lt;/b&gt;&lt;/div&gt;" style="rounded=0;whiteSpace=wrap;html=1;verticalAlign=middle;spacingTop=0;fillColor=none;strokeColor=none;fontSize=16;spacing=0;align=left;" parent="S46qaIy4FpFh_dH2xpOn-1" vertex="1">
          <mxGeometry x="-241.5" y="399" width="170" height="15" as="geometry" />
        </mxCell>
        <mxCell id="uphn-Z9wvXiF3l7FVlVb-3" value="&lt;div style=&quot;&quot;&gt;&lt;b&gt;&quot;&lt;/b&gt;&lt;/div&gt;" style="rounded=0;whiteSpace=wrap;html=1;verticalAlign=middle;spacingTop=0;fillColor=none;strokeColor=none;fontSize=16;spacing=0;align=left;" parent="S46qaIy4FpFh_dH2xpOn-1" vertex="1">
          <mxGeometry x="-284.5" y="404" width="14.5" height="11" as="geometry" />
        </mxCell>
        <mxCell id="uPfqIcm_eB0QORJ1Cs9m-0" value="" style="edgeStyle=orthogonalEdgeStyle;shape=connector;rounded=0;orthogonalLoop=1;jettySize=auto;html=1;strokeColor=default;align=center;verticalAlign=middle;fontFamily=Helvetica;fontSize=11;fontColor=default;labelBackgroundColor=default;endArrow=classic;dashed=1;dashPattern=8 8;exitX=1;exitY=0.25;exitDx=0;exitDy=0;entryX=0.088;entryY=0.443;entryDx=0;entryDy=0;entryPerimeter=0;" parent="S46qaIy4FpFh_dH2xpOn-1" target="gwXgRDFBFEI2IKHxjKXG-36" edge="1">
          <mxGeometry relative="1" as="geometry">
            <mxPoint x="-590" y="275" as="sourcePoint" />
            <Array as="points">
              <mxPoint x="-350" y="275" />
              <mxPoint x="-350" y="40" />
            </Array>
            <mxPoint x="-240" y="50" as="targetPoint" />
          </mxGeometry>
        </mxCell>
        <mxCell id="uPfqIcm_eB0QORJ1Cs9m-1" value="notify" style="edgeLabel;html=1;align=center;verticalAlign=middle;resizable=0;points=[];fontFamily=Helvetica;fontSize=11;fontColor=default;labelBackgroundColor=default;" parent="uPfqIcm_eB0QORJ1Cs9m-0" vertex="1" connectable="0">
          <mxGeometry x="-0.6946" y="1" relative="1" as="geometry">
            <mxPoint x="-3" as="offset" />
          </mxGeometry>
        </mxCell>
        <mxCell id="gwXgRDFBFEI2IKHxjKXG-36" value="" style="shape=waypoint;sketch=0;size=6;pointerEvents=1;points=[];fillColor=none;resizable=0;rotatable=0;perimeter=centerPerimeter;snapToPoint=1;strokeColor=none;" parent="S46qaIy4FpFh_dH2xpOn-1" vertex="1">
          <mxGeometry x="-250" y="30" width="20" height="20" as="geometry" />
        </mxCell>
        <mxCell id="2p20GV2nIi5zDpSL2779-0" value="CarePlan 1&lt;div&gt;- Task 1to2&lt;/div&gt;" style="rounded=1;whiteSpace=wrap;html=1;align=left;verticalAlign=top;spacingTop=0;spacing=2;spacingLeft=4;fontSize=14;fontStyle=1;fillColor=#e1d5e7;strokeColor=#9673a6;" vertex="1" parent="S46qaIy4FpFh_dH2xpOn-1">
          <mxGeometry x="-750" y="230" width="150" height="50" as="geometry" />
        </mxCell>
        <mxCell id="2p20GV2nIi5zDpSL2779-1" value="CareTeam 1&lt;div&gt;- Patient 1&lt;/div&gt;&lt;div&gt;- Organization 1&lt;/div&gt;&lt;div&gt;- Organization 2&lt;br&gt;&lt;/div&gt;" style="rounded=1;whiteSpace=wrap;html=1;align=left;verticalAlign=top;spacingTop=0;spacing=2;spacingLeft=4;fontSize=14;fontStyle=1;fillColor=#e1d5e7;strokeColor=#9673a6;" vertex="1" parent="S46qaIy4FpFh_dH2xpOn-1">
          <mxGeometry x="-749.82" y="290" width="149.82" height="83" as="geometry" />
        </mxCell>
        <mxCell id="2p20GV2nIi5zDpSL2779-2" value="" style="image;aspect=fixed;html=1;points=[];align=left;fontSize=12;image=img/lib/azure2/general/Tag.svg;labelPosition=right;verticalLabelPosition=middle;verticalAlign=middle;flipH=1;" vertex="1" parent="S46qaIy4FpFh_dH2xpOn-1">
          <mxGeometry x="-624" y="234.51" width="20.36" height="20" as="geometry" />
        </mxCell>
        <mxCell id="2p20GV2nIi5zDpSL2779-3" value="" style="shape=image;verticalLabelPosition=bottom;labelBackgroundColor=default;verticalAlign=top;aspect=fixed;imageAspect=0;image=https://cdn.iconscout.com/icon/free/png-256/free-signature-icon-download-in-svg-png-gif-file-formats--sign-agreement-contract-deal-partnership-user-interface-vol-1-pack-icons-2202523.png;" vertex="1" parent="S46qaIy4FpFh_dH2xpOn-1">
          <mxGeometry x="-619.82" y="260" width="16" height="16" as="geometry" />
        </mxCell>
        <mxCell id="2p20GV2nIi5zDpSL2779-4" value="" style="image;aspect=fixed;html=1;points=[];align=left;fontSize=12;image=img/lib/azure2/general/Tag.svg;labelPosition=right;verticalLabelPosition=middle;verticalAlign=middle;flipH=1;" vertex="1" parent="S46qaIy4FpFh_dH2xpOn-1">
          <mxGeometry x="-624.18" y="300" width="20.36" height="20" as="geometry" />
        </mxCell>
        <mxCell id="2p20GV2nIi5zDpSL2779-5" value="" style="shape=image;verticalLabelPosition=bottom;labelBackgroundColor=default;verticalAlign=top;aspect=fixed;imageAspect=0;image=https://cdn.iconscout.com/icon/free/png-256/free-signature-icon-download-in-svg-png-gif-file-formats--sign-agreement-contract-deal-partnership-user-interface-vol-1-pack-icons-2202523.png;" vertex="1" parent="S46qaIy4FpFh_dH2xpOn-1">
          <mxGeometry x="-620" y="325.49" width="16" height="16" as="geometry" />
        </mxCell>
        <mxCell id="ZE02fruqbT_j9ySnseCO-0" value="CarePlan 1&quot;&lt;div&gt;- Task 1to2&lt;/div&gt;" style="rounded=1;whiteSpace=wrap;html=1;align=left;verticalAlign=top;spacingTop=0;spacing=2;spacingLeft=4;fontSize=14;fontStyle=1;fillColor=#e1d5e7;strokeColor=#9673a6;" vertex="1" parent="S46qaIy4FpFh_dH2xpOn-1">
          <mxGeometry x="-241.5" y="98.5" width="150" height="50" as="geometry" />
        </mxCell>
        <mxCell id="ZE02fruqbT_j9ySnseCO-1" value="CareTeam 1&quot;&lt;div&gt;- Patient 1&lt;/div&gt;&lt;div&gt;- Organization 1&lt;/div&gt;&lt;div&gt;- Organization 2&lt;br&gt;&lt;/div&gt;" style="rounded=1;whiteSpace=wrap;html=1;align=left;verticalAlign=top;spacingTop=0;spacing=2;spacingLeft=4;fontSize=14;fontStyle=1;fillColor=#e1d5e7;strokeColor=#9673a6;" vertex="1" parent="S46qaIy4FpFh_dH2xpOn-1">
          <mxGeometry x="-241.32000000000005" y="158.5" width="149.82" height="83" as="geometry" />
        </mxCell>
        <mxCell id="ZE02fruqbT_j9ySnseCO-2" value="" style="image;aspect=fixed;html=1;points=[];align=left;fontSize=12;image=img/lib/azure2/general/Tag.svg;labelPosition=right;verticalLabelPosition=middle;verticalAlign=middle;flipH=1;" vertex="1" parent="S46qaIy4FpFh_dH2xpOn-1">
          <mxGeometry x="-115.5" y="103.00999999999999" width="20.36" height="20" as="geometry" />
        </mxCell>
        <mxCell id="ZE02fruqbT_j9ySnseCO-3" value="" style="shape=image;verticalLabelPosition=bottom;labelBackgroundColor=default;verticalAlign=top;aspect=fixed;imageAspect=0;image=https://cdn.iconscout.com/icon/free/png-256/free-signature-icon-download-in-svg-png-gif-file-formats--sign-agreement-contract-deal-partnership-user-interface-vol-1-pack-icons-2202523.png;" vertex="1" parent="S46qaIy4FpFh_dH2xpOn-1">
          <mxGeometry x="-111.32000000000005" y="128.5" width="16" height="16" as="geometry" />
        </mxCell>
        <mxCell id="ZE02fruqbT_j9ySnseCO-4" value="" style="image;aspect=fixed;html=1;points=[];align=left;fontSize=12;image=img/lib/azure2/general/Tag.svg;labelPosition=right;verticalLabelPosition=middle;verticalAlign=middle;flipH=1;" vertex="1" parent="S46qaIy4FpFh_dH2xpOn-1">
          <mxGeometry x="-115.67999999999995" y="168.5" width="20.36" height="20" as="geometry" />
        </mxCell>
        <mxCell id="ZE02fruqbT_j9ySnseCO-5" value="" style="shape=image;verticalLabelPosition=bottom;labelBackgroundColor=default;verticalAlign=top;aspect=fixed;imageAspect=0;image=https://cdn.iconscout.com/icon/free/png-256/free-signature-icon-download-in-svg-png-gif-file-formats--sign-agreement-contract-deal-partnership-user-interface-vol-1-pack-icons-2202523.png;" vertex="1" parent="S46qaIy4FpFh_dH2xpOn-1">
          <mxGeometry x="-111.5" y="193.99" width="16" height="16" as="geometry" />
        </mxCell>
      </root>
    </mxGraphModel>
  </diagram>
  <diagram name="expand1" id="qt6N3__fTCwjsJFgaJz9">
    <mxGraphModel dx="2220" dy="856" grid="1" gridSize="10" guides="1" tooltips="1" connect="1" arrows="1" fold="1" page="1" pageScale="1" pageWidth="800" pageHeight="500" backgroundImage="{&quot;src&quot;:&quot;data:page/id,5ro5NTjHnK7VgrN_J4Qa&quot;}" math="0" shadow="0">
      <root>
        <mxCell id="NPjyOGJu3yxk_b19PzJ1-0" />
        <mxCell id="NPjyOGJu3yxk_b19PzJ1-1" parent="NPjyOGJu3yxk_b19PzJ1-0" />
        <mxCell id="55nkoq0X66emSt63NAJN-2" value="" style="shape=waypoint;sketch=0;size=6;pointerEvents=1;points=[];fillColor=none;resizable=0;rotatable=0;perimeter=centerPerimeter;snapToPoint=1;strokeColor=none;" parent="NPjyOGJu3yxk_b19PzJ1-1" vertex="1">
          <mxGeometry x="-249" y="280" width="20" height="20" as="geometry" />
        </mxCell>
        <mxCell id="zf0QM_-DzcH9pxQWsVg1-0" value="" style="shape=waypoint;sketch=0;size=6;pointerEvents=1;points=[];fillColor=none;resizable=0;rotatable=0;perimeter=centerPerimeter;snapToPoint=1;strokeColor=none;" parent="NPjyOGJu3yxk_b19PzJ1-1" vertex="1">
          <mxGeometry x="-596" y="50" width="20" height="20" as="geometry" />
        </mxCell>
        <mxCell id="zf0QM_-DzcH9pxQWsVg1-1" value="Patient 1" style="rounded=1;whiteSpace=wrap;html=1;align=left;verticalAlign=top;spacingTop=0;spacing=2;spacingLeft=4;fontSize=14;fontStyle=1;strokeColor=#000000;" parent="NPjyOGJu3yxk_b19PzJ1-1" vertex="1">
          <mxGeometry x="-740" y="56" width="130" height="25" as="geometry" />
        </mxCell>
        <mxCell id="zf0QM_-DzcH9pxQWsVg1-2" value="ServiceRequest 1" style="rounded=1;whiteSpace=wrap;html=1;align=left;verticalAlign=top;spacingTop=0;spacing=2;spacingLeft=4;fontSize=14;fontStyle=1;strokeColor=#000000;" parent="NPjyOGJu3yxk_b19PzJ1-1" vertex="1">
          <mxGeometry x="-740" y="86" width="130" height="25" as="geometry" />
        </mxCell>
        <mxCell id="zf0QM_-DzcH9pxQWsVg1-4" value="" style="shape=waypoint;sketch=0;size=6;pointerEvents=1;points=[];fillColor=none;resizable=0;rotatable=0;perimeter=centerPerimeter;snapToPoint=1;strokeColor=none;" parent="NPjyOGJu3yxk_b19PzJ1-1" vertex="1">
          <mxGeometry x="-596" y="50" width="20" height="20" as="geometry" />
        </mxCell>
        <mxCell id="zf0QM_-DzcH9pxQWsVg1-8" value="Patient 1" style="rounded=1;whiteSpace=wrap;html=1;align=left;verticalAlign=top;spacingTop=0;spacing=2;spacingLeft=4;fontSize=14;fontStyle=1;strokeColor=#000000;" parent="NPjyOGJu3yxk_b19PzJ1-1" vertex="1">
          <mxGeometry x="-740" y="56" width="130" height="25" as="geometry" />
        </mxCell>
        <mxCell id="zf0QM_-DzcH9pxQWsVg1-9" value="ServiceRequest 1" style="rounded=1;whiteSpace=wrap;html=1;align=left;verticalAlign=top;spacingTop=0;spacing=2;spacingLeft=4;fontSize=14;fontStyle=1;strokeColor=#000000;" parent="NPjyOGJu3yxk_b19PzJ1-1" vertex="1">
          <mxGeometry x="-740" y="86" width="130" height="25" as="geometry" />
        </mxCell>
        <mxCell id="zf0QM_-DzcH9pxQWsVg1-10" value="" style="shape=actor;whiteSpace=wrap;html=1;fillColor=#000000;" parent="NPjyOGJu3yxk_b19PzJ1-1" vertex="1">
          <mxGeometry x="-150" y="30" width="18" height="22" as="geometry" />
        </mxCell>
        <mxCell id="zf0QM_-DzcH9pxQWsVg1-11" value="Task 1to2&lt;div&gt;basedOn: CarePlan 1&lt;br&gt;&lt;div&gt;status: accepted&lt;/div&gt;&lt;div&gt;&lt;div&gt;&lt;span style=&quot;background-color: initial;&quot;&gt;requester: Prac1&lt;/span&gt;&lt;/div&gt;&lt;div&gt;&lt;span style=&quot;background-color: initial;&quot;&gt;performer: HcS2&lt;/span&gt;&lt;/div&gt;&lt;/div&gt;&lt;/div&gt;" style="rounded=1;whiteSpace=wrap;html=1;align=left;verticalAlign=top;spacingTop=0;spacing=2;spacingLeft=4;fontSize=14;fontStyle=1;" parent="NPjyOGJu3yxk_b19PzJ1-1" vertex="1">
          <mxGeometry x="-740" y="116" width="150" height="100" as="geometry" />
        </mxCell>
        <mxCell id="zf0QM_-DzcH9pxQWsVg1-12" value="" style="shape=image;verticalLabelPosition=bottom;labelBackgroundColor=default;verticalAlign=top;aspect=fixed;imageAspect=0;image=https://cdn.iconscout.com/icon/free/png-256/free-signature-icon-download-in-svg-png-gif-file-formats--sign-agreement-contract-deal-partnership-user-interface-vol-1-pack-icons-2202523.png;" parent="NPjyOGJu3yxk_b19PzJ1-1" vertex="1">
          <mxGeometry x="-612" y="196" width="16" height="16" as="geometry" />
        </mxCell>
        <mxCell id="zf0QM_-DzcH9pxQWsVg1-13" value="" style="image;aspect=fixed;html=1;points=[];align=left;fontSize=12;image=img/lib/azure2/general/Tag.svg;labelPosition=right;verticalLabelPosition=middle;verticalAlign=middle;flipH=1;" parent="NPjyOGJu3yxk_b19PzJ1-1" vertex="1">
          <mxGeometry x="-612" y="121" width="20.36" height="20" as="geometry" />
        </mxCell>
        <mxCell id="zf0QM_-DzcH9pxQWsVg1-17" value="Device workflow3" style="rounded=1;whiteSpace=wrap;html=1;align=left;verticalAlign=top;spacingTop=0;spacing=2;spacingLeft=4;fontSize=14;fontStyle=1;strokeColor=#000000;" parent="NPjyOGJu3yxk_b19PzJ1-1" vertex="1">
          <mxGeometry x="-239.82" y="310" width="130" height="25" as="geometry" />
        </mxCell>
        <mxCell id="zf0QM_-DzcH9pxQWsVg1-32" value="" style="shape=waypoint;sketch=0;size=6;pointerEvents=1;points=[];fillColor=none;resizable=0;rotatable=0;perimeter=centerPerimeter;snapToPoint=1;strokeColor=none;" parent="NPjyOGJu3yxk_b19PzJ1-1" vertex="1">
          <mxGeometry x="-250" y="30" width="20" height="20" as="geometry" />
        </mxCell>
        <mxCell id="zf0QM_-DzcH9pxQWsVg1-33" value="ServiceRequest 2" style="rounded=1;whiteSpace=wrap;html=1;align=left;verticalAlign=top;spacingTop=0;spacing=2;spacingLeft=4;fontSize=14;fontStyle=1;strokeColor=#9673a6;fillColor=#e1d5e7;" parent="NPjyOGJu3yxk_b19PzJ1-1" vertex="1">
          <mxGeometry x="-239.82" y="200" width="130" height="25" as="geometry" />
        </mxCell>
        <mxCell id="3NW1gAtpJDSOq8vBvfZn-0" value="CarePlan 1&lt;div&gt;- Task 1to2&lt;/div&gt;" style="rounded=1;whiteSpace=wrap;html=1;align=left;verticalAlign=top;spacingTop=0;spacing=2;spacingLeft=4;fontSize=14;fontStyle=1;" vertex="1" parent="NPjyOGJu3yxk_b19PzJ1-1">
          <mxGeometry x="-750" y="230" width="150" height="50" as="geometry" />
        </mxCell>
        <mxCell id="3NW1gAtpJDSOq8vBvfZn-1" value="CareTeam 1&lt;div&gt;- Patient 1&lt;/div&gt;&lt;div&gt;- Organization 1&lt;/div&gt;&lt;div&gt;- Organization 2&lt;br&gt;&lt;/div&gt;" style="rounded=1;whiteSpace=wrap;html=1;align=left;verticalAlign=top;spacingTop=0;spacing=2;spacingLeft=4;fontSize=14;fontStyle=1;" vertex="1" parent="NPjyOGJu3yxk_b19PzJ1-1">
          <mxGeometry x="-749.82" y="290" width="149.82" height="83" as="geometry" />
        </mxCell>
        <mxCell id="3NW1gAtpJDSOq8vBvfZn-2" value="" style="image;aspect=fixed;html=1;points=[];align=left;fontSize=12;image=img/lib/azure2/general/Tag.svg;labelPosition=right;verticalLabelPosition=middle;verticalAlign=middle;flipH=1;" vertex="1" parent="NPjyOGJu3yxk_b19PzJ1-1">
          <mxGeometry x="-624" y="234.51" width="20.36" height="20" as="geometry" />
        </mxCell>
        <mxCell id="3NW1gAtpJDSOq8vBvfZn-3" value="" style="shape=image;verticalLabelPosition=bottom;labelBackgroundColor=default;verticalAlign=top;aspect=fixed;imageAspect=0;image=https://cdn.iconscout.com/icon/free/png-256/free-signature-icon-download-in-svg-png-gif-file-formats--sign-agreement-contract-deal-partnership-user-interface-vol-1-pack-icons-2202523.png;" vertex="1" parent="NPjyOGJu3yxk_b19PzJ1-1">
          <mxGeometry x="-619.82" y="260" width="16" height="16" as="geometry" />
        </mxCell>
        <mxCell id="3NW1gAtpJDSOq8vBvfZn-4" value="" style="image;aspect=fixed;html=1;points=[];align=left;fontSize=12;image=img/lib/azure2/general/Tag.svg;labelPosition=right;verticalLabelPosition=middle;verticalAlign=middle;flipH=1;" vertex="1" parent="NPjyOGJu3yxk_b19PzJ1-1">
          <mxGeometry x="-624.18" y="300" width="20.36" height="20" as="geometry" />
        </mxCell>
        <mxCell id="3NW1gAtpJDSOq8vBvfZn-5" value="" style="shape=image;verticalLabelPosition=bottom;labelBackgroundColor=default;verticalAlign=top;aspect=fixed;imageAspect=0;image=https://cdn.iconscout.com/icon/free/png-256/free-signature-icon-download-in-svg-png-gif-file-formats--sign-agreement-contract-deal-partnership-user-interface-vol-1-pack-icons-2202523.png;" vertex="1" parent="NPjyOGJu3yxk_b19PzJ1-1">
          <mxGeometry x="-620" y="325.49" width="16" height="16" as="geometry" />
        </mxCell>
        <mxCell id="3NW1gAtpJDSOq8vBvfZn-6" value="CarePlan 1&quot;&lt;div&gt;- Task 1to2&lt;/div&gt;" style="rounded=1;whiteSpace=wrap;html=1;align=left;verticalAlign=top;spacingTop=0;spacing=2;spacingLeft=4;fontSize=14;fontStyle=1;" vertex="1" parent="NPjyOGJu3yxk_b19PzJ1-1">
          <mxGeometry x="-239.82" y="50" width="150" height="50" as="geometry" />
        </mxCell>
        <mxCell id="3NW1gAtpJDSOq8vBvfZn-7" value="CareTeam 1&quot;&lt;div&gt;- Patient 1&lt;/div&gt;&lt;div&gt;- Organization 1&lt;/div&gt;&lt;div&gt;- Organization 2&lt;br&gt;&lt;/div&gt;" style="rounded=1;whiteSpace=wrap;html=1;align=left;verticalAlign=top;spacingTop=0;spacing=2;spacingLeft=4;fontSize=14;fontStyle=1;" vertex="1" parent="NPjyOGJu3yxk_b19PzJ1-1">
          <mxGeometry x="-239.64000000000004" y="110" width="149.82" height="83" as="geometry" />
        </mxCell>
        <mxCell id="3NW1gAtpJDSOq8vBvfZn-8" value="" style="image;aspect=fixed;html=1;points=[];align=left;fontSize=12;image=img/lib/azure2/general/Tag.svg;labelPosition=right;verticalLabelPosition=middle;verticalAlign=middle;flipH=1;" vertex="1" parent="NPjyOGJu3yxk_b19PzJ1-1">
          <mxGeometry x="-113.82" y="54.50999999999999" width="20.36" height="20" as="geometry" />
        </mxCell>
        <mxCell id="3NW1gAtpJDSOq8vBvfZn-9" value="" style="shape=image;verticalLabelPosition=bottom;labelBackgroundColor=default;verticalAlign=top;aspect=fixed;imageAspect=0;image=https://cdn.iconscout.com/icon/free/png-256/free-signature-icon-download-in-svg-png-gif-file-formats--sign-agreement-contract-deal-partnership-user-interface-vol-1-pack-icons-2202523.png;" vertex="1" parent="NPjyOGJu3yxk_b19PzJ1-1">
          <mxGeometry x="-109.64000000000004" y="80" width="16" height="16" as="geometry" />
        </mxCell>
        <mxCell id="3NW1gAtpJDSOq8vBvfZn-10" value="" style="image;aspect=fixed;html=1;points=[];align=left;fontSize=12;image=img/lib/azure2/general/Tag.svg;labelPosition=right;verticalLabelPosition=middle;verticalAlign=middle;flipH=1;" vertex="1" parent="NPjyOGJu3yxk_b19PzJ1-1">
          <mxGeometry x="-113.99999999999994" y="120" width="20.36" height="20" as="geometry" />
        </mxCell>
        <mxCell id="3NW1gAtpJDSOq8vBvfZn-11" value="" style="shape=image;verticalLabelPosition=bottom;labelBackgroundColor=default;verticalAlign=top;aspect=fixed;imageAspect=0;image=https://cdn.iconscout.com/icon/free/png-256/free-signature-icon-download-in-svg-png-gif-file-formats--sign-agreement-contract-deal-partnership-user-interface-vol-1-pack-icons-2202523.png;" vertex="1" parent="NPjyOGJu3yxk_b19PzJ1-1">
          <mxGeometry x="-109.82" y="145.49" width="16" height="16" as="geometry" />
        </mxCell>
      </root>
    </mxGraphModel>
  </diagram>
  <diagram name="expand2" id="2gLYicoZ5LFXR2Ai-i7d">
    <mxGraphModel dx="2220" dy="856" grid="1" gridSize="10" guides="1" tooltips="1" connect="1" arrows="1" fold="1" page="1" pageScale="1" pageWidth="800" pageHeight="500" backgroundImage="{&quot;src&quot;:&quot;data:page/id,5ro5NTjHnK7VgrN_J4Qa&quot;}" math="0" shadow="0">
      <root>
        <mxCell id="CP6EyKwU05hHrU3zOkX6-0" />
        <mxCell id="CP6EyKwU05hHrU3zOkX6-1" parent="CP6EyKwU05hHrU3zOkX6-0" />
        <mxCell id="n0BS63o4Zmxd12Y5CVfv-0" value="" style="shape=waypoint;sketch=0;size=6;pointerEvents=1;points=[];fillColor=none;resizable=0;rotatable=0;perimeter=centerPerimeter;snapToPoint=1;strokeColor=none;" parent="CP6EyKwU05hHrU3zOkX6-1" vertex="1">
          <mxGeometry x="-249" y="280" width="20" height="20" as="geometry" />
        </mxCell>
        <mxCell id="n0BS63o4Zmxd12Y5CVfv-1" value="" style="shape=waypoint;sketch=0;size=6;pointerEvents=1;points=[];fillColor=none;resizable=0;rotatable=0;perimeter=centerPerimeter;snapToPoint=1;strokeColor=none;" parent="CP6EyKwU05hHrU3zOkX6-1" vertex="1">
          <mxGeometry x="-596" y="50" width="20" height="20" as="geometry" />
        </mxCell>
        <mxCell id="n0BS63o4Zmxd12Y5CVfv-2" value="Patient 1" style="rounded=1;whiteSpace=wrap;html=1;align=left;verticalAlign=top;spacingTop=0;spacing=2;spacingLeft=4;fontSize=14;fontStyle=1;strokeColor=#000000;" parent="CP6EyKwU05hHrU3zOkX6-1" vertex="1">
          <mxGeometry x="-740" y="56" width="130" height="25" as="geometry" />
        </mxCell>
        <mxCell id="n0BS63o4Zmxd12Y5CVfv-3" value="ServiceRequest 1" style="rounded=1;whiteSpace=wrap;html=1;align=left;verticalAlign=top;spacingTop=0;spacing=2;spacingLeft=4;fontSize=14;fontStyle=1;strokeColor=#000000;" parent="CP6EyKwU05hHrU3zOkX6-1" vertex="1">
          <mxGeometry x="-740" y="86" width="130" height="25" as="geometry" />
        </mxCell>
        <mxCell id="n0BS63o4Zmxd12Y5CVfv-4" value="" style="shape=waypoint;sketch=0;size=6;pointerEvents=1;points=[];fillColor=none;resizable=0;rotatable=0;perimeter=centerPerimeter;snapToPoint=1;strokeColor=none;" parent="CP6EyKwU05hHrU3zOkX6-1" vertex="1">
          <mxGeometry x="-596" y="50" width="20" height="20" as="geometry" />
        </mxCell>
        <mxCell id="n0BS63o4Zmxd12Y5CVfv-5" value="Patient 1" style="rounded=1;whiteSpace=wrap;html=1;align=left;verticalAlign=top;spacingTop=0;spacing=2;spacingLeft=4;fontSize=14;fontStyle=1;strokeColor=#000000;" parent="CP6EyKwU05hHrU3zOkX6-1" vertex="1">
          <mxGeometry x="-740" y="56" width="130" height="25" as="geometry" />
        </mxCell>
        <mxCell id="n0BS63o4Zmxd12Y5CVfv-6" value="ServiceRequest 1" style="rounded=1;whiteSpace=wrap;html=1;align=left;verticalAlign=top;spacingTop=0;spacing=2;spacingLeft=4;fontSize=14;fontStyle=1;strokeColor=#000000;" parent="CP6EyKwU05hHrU3zOkX6-1" vertex="1">
          <mxGeometry x="-740" y="86" width="130" height="25" as="geometry" />
        </mxCell>
        <mxCell id="n0BS63o4Zmxd12Y5CVfv-7" value="" style="shape=actor;whiteSpace=wrap;html=1;fillColor=#000000;" parent="CP6EyKwU05hHrU3zOkX6-1" vertex="1">
          <mxGeometry x="-150" y="30" width="18" height="22" as="geometry" />
        </mxCell>
        <mxCell id="n0BS63o4Zmxd12Y5CVfv-8" value="Task 1to2&lt;div&gt;basedOn: CarePlan 1&lt;br&gt;&lt;div&gt;status: accepted&lt;/div&gt;&lt;div&gt;&lt;div&gt;&lt;span style=&quot;background-color: initial;&quot;&gt;requester: Prac1&lt;/span&gt;&lt;/div&gt;&lt;div&gt;&lt;span style=&quot;background-color: initial;&quot;&gt;performer: HcS2&lt;/span&gt;&lt;/div&gt;&lt;/div&gt;&lt;/div&gt;" style="rounded=1;whiteSpace=wrap;html=1;align=left;verticalAlign=top;spacingTop=0;spacing=2;spacingLeft=4;fontSize=14;fontStyle=1;" parent="CP6EyKwU05hHrU3zOkX6-1" vertex="1">
          <mxGeometry x="-740" y="116" width="150" height="100" as="geometry" />
        </mxCell>
        <mxCell id="n0BS63o4Zmxd12Y5CVfv-9" value="" style="shape=image;verticalLabelPosition=bottom;labelBackgroundColor=default;verticalAlign=top;aspect=fixed;imageAspect=0;image=https://cdn.iconscout.com/icon/free/png-256/free-signature-icon-download-in-svg-png-gif-file-formats--sign-agreement-contract-deal-partnership-user-interface-vol-1-pack-icons-2202523.png;" parent="CP6EyKwU05hHrU3zOkX6-1" vertex="1">
          <mxGeometry x="-612" y="196" width="16" height="16" as="geometry" />
        </mxCell>
        <mxCell id="n0BS63o4Zmxd12Y5CVfv-10" value="" style="image;aspect=fixed;html=1;points=[];align=left;fontSize=12;image=img/lib/azure2/general/Tag.svg;labelPosition=right;verticalLabelPosition=middle;verticalAlign=middle;flipH=1;" parent="CP6EyKwU05hHrU3zOkX6-1" vertex="1">
          <mxGeometry x="-612" y="121" width="20.36" height="20" as="geometry" />
        </mxCell>
        <mxCell id="n0BS63o4Zmxd12Y5CVfv-11" value="Device workflow3" style="rounded=1;whiteSpace=wrap;html=1;align=left;verticalAlign=top;spacingTop=0;spacing=2;spacingLeft=4;fontSize=14;fontStyle=1;strokeColor=#000000;" parent="CP6EyKwU05hHrU3zOkX6-1" vertex="1">
          <mxGeometry x="-250" y="310" width="130" height="25" as="geometry" />
        </mxCell>
        <mxCell id="bmY-QGmHcEWS9W3yc2JA-0" style="edgeStyle=orthogonalEdgeStyle;shape=connector;rounded=0;orthogonalLoop=1;jettySize=auto;html=1;entryX=1;entryY=0.25;entryDx=0;entryDy=0;strokeColor=default;align=center;verticalAlign=middle;fontFamily=Helvetica;fontSize=11;fontColor=default;labelBackgroundColor=default;endArrow=classic;" parent="CP6EyKwU05hHrU3zOkX6-1" source="n0BS63o4Zmxd12Y5CVfv-20" target="qfiW37NOT3P1_ERF55aq-0" edge="1">
          <mxGeometry relative="1" as="geometry" />
        </mxCell>
        <mxCell id="bmY-QGmHcEWS9W3yc2JA-1" value="create" style="edgeLabel;html=1;align=center;verticalAlign=middle;resizable=0;points=[];fontFamily=Helvetica;fontSize=11;fontColor=default;labelBackgroundColor=default;" parent="bmY-QGmHcEWS9W3yc2JA-0" vertex="1" connectable="0">
          <mxGeometry x="0.8571" y="3" relative="1" as="geometry">
            <mxPoint as="offset" />
          </mxGeometry>
        </mxCell>
        <mxCell id="n0BS63o4Zmxd12Y5CVfv-20" value="" style="shape=waypoint;sketch=0;size=6;pointerEvents=1;points=[];fillColor=none;resizable=0;rotatable=0;perimeter=centerPerimeter;snapToPoint=1;strokeColor=none;" parent="CP6EyKwU05hHrU3zOkX6-1" vertex="1">
          <mxGeometry x="-250" y="30" width="20" height="20" as="geometry" />
        </mxCell>
        <mxCell id="n0BS63o4Zmxd12Y5CVfv-21" value="ServiceRequest 2" style="rounded=1;whiteSpace=wrap;html=1;align=left;verticalAlign=top;spacingTop=0;spacing=2;spacingLeft=4;fontSize=14;fontStyle=1;" parent="CP6EyKwU05hHrU3zOkX6-1" vertex="1">
          <mxGeometry x="-249" y="200" width="130" height="25" as="geometry" />
        </mxCell>
        <mxCell id="bmY-QGmHcEWS9W3yc2JA-2" style="edgeStyle=orthogonalEdgeStyle;shape=connector;rounded=0;orthogonalLoop=1;jettySize=auto;html=1;exitX=1;exitY=0.75;exitDx=0;exitDy=0;strokeColor=default;align=center;verticalAlign=middle;fontFamily=Helvetica;fontSize=11;fontColor=default;labelBackgroundColor=default;endArrow=classic;dashed=1;dashPattern=8 8;" parent="CP6EyKwU05hHrU3zOkX6-1" source="qfiW37NOT3P1_ERF55aq-0" target="n0BS63o4Zmxd12Y5CVfv-0" edge="1">
          <mxGeometry relative="1" as="geometry">
            <Array as="points">
              <mxPoint x="-360" y="413" />
              <mxPoint x="-360" y="290" />
            </Array>
          </mxGeometry>
        </mxCell>
        <mxCell id="bmY-QGmHcEWS9W3yc2JA-3" value="notify" style="edgeLabel;html=1;align=center;verticalAlign=middle;resizable=0;points=[];fontFamily=Helvetica;fontSize=11;fontColor=default;labelBackgroundColor=default;" parent="bmY-QGmHcEWS9W3yc2JA-2" vertex="1" connectable="0">
          <mxGeometry x="-0.1056" relative="1" as="geometry">
            <mxPoint as="offset" />
          </mxGeometry>
        </mxCell>
        <mxCell id="qfiW37NOT3P1_ERF55aq-0" value="Task 2to3&lt;div&gt;status: requested&lt;/div&gt;" style="rounded=1;whiteSpace=wrap;html=1;align=left;verticalAlign=top;spacingTop=0;spacing=2;spacingLeft=4;fontSize=14;fontStyle=1;strokeColor=#9673a6;fillColor=#e1d5e7;" parent="CP6EyKwU05hHrU3zOkX6-1" vertex="1">
          <mxGeometry x="-739.82" y="380" width="130" height="43.5" as="geometry" />
        </mxCell>
        <mxCell id="bltSwXip8zzIKfLhas9v-0" value="CarePlan 1&lt;div&gt;- Task 1to2&lt;/div&gt;" style="rounded=1;whiteSpace=wrap;html=1;align=left;verticalAlign=top;spacingTop=0;spacing=2;spacingLeft=4;fontSize=14;fontStyle=1;" vertex="1" parent="CP6EyKwU05hHrU3zOkX6-1">
          <mxGeometry x="-750" y="230" width="150" height="50" as="geometry" />
        </mxCell>
        <mxCell id="bltSwXip8zzIKfLhas9v-1" value="CareTeam 1&lt;div&gt;- Patient 1&lt;/div&gt;&lt;div&gt;- Organization 1&lt;/div&gt;&lt;div&gt;- Organization 2&lt;br&gt;&lt;/div&gt;" style="rounded=1;whiteSpace=wrap;html=1;align=left;verticalAlign=top;spacingTop=0;spacing=2;spacingLeft=4;fontSize=14;fontStyle=1;" vertex="1" parent="CP6EyKwU05hHrU3zOkX6-1">
          <mxGeometry x="-749.82" y="290" width="149.82" height="83" as="geometry" />
        </mxCell>
        <mxCell id="bltSwXip8zzIKfLhas9v-2" value="" style="image;aspect=fixed;html=1;points=[];align=left;fontSize=12;image=img/lib/azure2/general/Tag.svg;labelPosition=right;verticalLabelPosition=middle;verticalAlign=middle;flipH=1;" vertex="1" parent="CP6EyKwU05hHrU3zOkX6-1">
          <mxGeometry x="-624" y="234.51" width="20.36" height="20" as="geometry" />
        </mxCell>
        <mxCell id="bltSwXip8zzIKfLhas9v-3" value="" style="shape=image;verticalLabelPosition=bottom;labelBackgroundColor=default;verticalAlign=top;aspect=fixed;imageAspect=0;image=https://cdn.iconscout.com/icon/free/png-256/free-signature-icon-download-in-svg-png-gif-file-formats--sign-agreement-contract-deal-partnership-user-interface-vol-1-pack-icons-2202523.png;" vertex="1" parent="CP6EyKwU05hHrU3zOkX6-1">
          <mxGeometry x="-619.82" y="260" width="16" height="16" as="geometry" />
        </mxCell>
        <mxCell id="bltSwXip8zzIKfLhas9v-4" value="" style="image;aspect=fixed;html=1;points=[];align=left;fontSize=12;image=img/lib/azure2/general/Tag.svg;labelPosition=right;verticalLabelPosition=middle;verticalAlign=middle;flipH=1;" vertex="1" parent="CP6EyKwU05hHrU3zOkX6-1">
          <mxGeometry x="-624.18" y="300" width="20.36" height="20" as="geometry" />
        </mxCell>
        <mxCell id="bltSwXip8zzIKfLhas9v-5" value="" style="shape=image;verticalLabelPosition=bottom;labelBackgroundColor=default;verticalAlign=top;aspect=fixed;imageAspect=0;image=https://cdn.iconscout.com/icon/free/png-256/free-signature-icon-download-in-svg-png-gif-file-formats--sign-agreement-contract-deal-partnership-user-interface-vol-1-pack-icons-2202523.png;" vertex="1" parent="CP6EyKwU05hHrU3zOkX6-1">
          <mxGeometry x="-620" y="325.49" width="16" height="16" as="geometry" />
        </mxCell>
        <mxCell id="bltSwXip8zzIKfLhas9v-6" value="CarePlan 1&quot;&lt;div&gt;- Task 1to2&lt;/div&gt;" style="rounded=1;whiteSpace=wrap;html=1;align=left;verticalAlign=top;spacingTop=0;spacing=2;spacingLeft=4;fontSize=14;fontStyle=1;" vertex="1" parent="CP6EyKwU05hHrU3zOkX6-1">
          <mxGeometry x="-239.82" y="50" width="150" height="50" as="geometry" />
        </mxCell>
        <mxCell id="bltSwXip8zzIKfLhas9v-7" value="CareTeam 1&quot;&lt;div&gt;- Patient 1&lt;/div&gt;&lt;div&gt;- Organization 1&lt;/div&gt;&lt;div&gt;- Organization 2&lt;br&gt;&lt;/div&gt;" style="rounded=1;whiteSpace=wrap;html=1;align=left;verticalAlign=top;spacingTop=0;spacing=2;spacingLeft=4;fontSize=14;fontStyle=1;" vertex="1" parent="CP6EyKwU05hHrU3zOkX6-1">
          <mxGeometry x="-239.64000000000004" y="110" width="149.82" height="83" as="geometry" />
        </mxCell>
        <mxCell id="bltSwXip8zzIKfLhas9v-8" value="" style="image;aspect=fixed;html=1;points=[];align=left;fontSize=12;image=img/lib/azure2/general/Tag.svg;labelPosition=right;verticalLabelPosition=middle;verticalAlign=middle;flipH=1;" vertex="1" parent="CP6EyKwU05hHrU3zOkX6-1">
          <mxGeometry x="-113.82" y="54.50999999999999" width="20.36" height="20" as="geometry" />
        </mxCell>
        <mxCell id="bltSwXip8zzIKfLhas9v-9" value="" style="shape=image;verticalLabelPosition=bottom;labelBackgroundColor=default;verticalAlign=top;aspect=fixed;imageAspect=0;image=https://cdn.iconscout.com/icon/free/png-256/free-signature-icon-download-in-svg-png-gif-file-formats--sign-agreement-contract-deal-partnership-user-interface-vol-1-pack-icons-2202523.png;" vertex="1" parent="CP6EyKwU05hHrU3zOkX6-1">
          <mxGeometry x="-109.64000000000004" y="80" width="16" height="16" as="geometry" />
        </mxCell>
        <mxCell id="bltSwXip8zzIKfLhas9v-10" value="" style="image;aspect=fixed;html=1;points=[];align=left;fontSize=12;image=img/lib/azure2/general/Tag.svg;labelPosition=right;verticalLabelPosition=middle;verticalAlign=middle;flipH=1;" vertex="1" parent="CP6EyKwU05hHrU3zOkX6-1">
          <mxGeometry x="-113.99999999999994" y="120" width="20.36" height="20" as="geometry" />
        </mxCell>
        <mxCell id="bltSwXip8zzIKfLhas9v-11" value="" style="shape=image;verticalLabelPosition=bottom;labelBackgroundColor=default;verticalAlign=top;aspect=fixed;imageAspect=0;image=https://cdn.iconscout.com/icon/free/png-256/free-signature-icon-download-in-svg-png-gif-file-formats--sign-agreement-contract-deal-partnership-user-interface-vol-1-pack-icons-2202523.png;" vertex="1" parent="CP6EyKwU05hHrU3zOkX6-1">
          <mxGeometry x="-109.82" y="145.49" width="16" height="16" as="geometry" />
        </mxCell>
      </root>
    </mxGraphModel>
  </diagram>
  <diagram name="expand3" id="Ai6FSskdaeQ1sT94rZ74">
    <mxGraphModel dx="2220" dy="856" grid="1" gridSize="10" guides="1" tooltips="1" connect="1" arrows="1" fold="1" page="1" pageScale="1" pageWidth="800" pageHeight="500" backgroundImage="{&quot;src&quot;:&quot;data:page/id,5ro5NTjHnK7VgrN_J4Qa&quot;}" math="0" shadow="0">
      <root>
        <mxCell id="GxC5hQ3N9CfuvLy7UFLK-0" />
        <mxCell id="GxC5hQ3N9CfuvLy7UFLK-1" parent="GxC5hQ3N9CfuvLy7UFLK-0" />
        <mxCell id="M_f02-2l7lWYVQSxkAaD-0" value="" style="shape=waypoint;sketch=0;size=6;pointerEvents=1;points=[];fillColor=none;resizable=0;rotatable=0;perimeter=centerPerimeter;snapToPoint=1;strokeColor=none;" parent="GxC5hQ3N9CfuvLy7UFLK-1" vertex="1">
          <mxGeometry x="-249" y="280" width="20" height="20" as="geometry" />
        </mxCell>
        <mxCell id="M_f02-2l7lWYVQSxkAaD-1" value="" style="shape=waypoint;sketch=0;size=6;pointerEvents=1;points=[];fillColor=none;resizable=0;rotatable=0;perimeter=centerPerimeter;snapToPoint=1;strokeColor=none;" parent="GxC5hQ3N9CfuvLy7UFLK-1" vertex="1">
          <mxGeometry x="-596" y="50" width="20" height="20" as="geometry" />
        </mxCell>
        <mxCell id="M_f02-2l7lWYVQSxkAaD-2" value="Patient 1" style="rounded=1;whiteSpace=wrap;html=1;align=left;verticalAlign=top;spacingTop=0;spacing=2;spacingLeft=4;fontSize=14;fontStyle=1;strokeColor=#000000;" parent="GxC5hQ3N9CfuvLy7UFLK-1" vertex="1">
          <mxGeometry x="-740" y="56" width="130" height="25" as="geometry" />
        </mxCell>
        <mxCell id="M_f02-2l7lWYVQSxkAaD-3" value="ServiceRequest 1" style="rounded=1;whiteSpace=wrap;html=1;align=left;verticalAlign=top;spacingTop=0;spacing=2;spacingLeft=4;fontSize=14;fontStyle=1;strokeColor=#000000;" parent="GxC5hQ3N9CfuvLy7UFLK-1" vertex="1">
          <mxGeometry x="-740" y="86" width="130" height="25" as="geometry" />
        </mxCell>
        <mxCell id="M_f02-2l7lWYVQSxkAaD-4" value="" style="shape=waypoint;sketch=0;size=6;pointerEvents=1;points=[];fillColor=none;resizable=0;rotatable=0;perimeter=centerPerimeter;snapToPoint=1;strokeColor=none;" parent="GxC5hQ3N9CfuvLy7UFLK-1" vertex="1">
          <mxGeometry x="-596" y="50" width="20" height="20" as="geometry" />
        </mxCell>
        <mxCell id="M_f02-2l7lWYVQSxkAaD-5" value="Patient 1" style="rounded=1;whiteSpace=wrap;html=1;align=left;verticalAlign=top;spacingTop=0;spacing=2;spacingLeft=4;fontSize=14;fontStyle=1;strokeColor=#000000;" parent="GxC5hQ3N9CfuvLy7UFLK-1" vertex="1">
          <mxGeometry x="-740" y="56" width="130" height="25" as="geometry" />
        </mxCell>
        <mxCell id="M_f02-2l7lWYVQSxkAaD-6" value="ServiceRequest 1" style="rounded=1;whiteSpace=wrap;html=1;align=left;verticalAlign=top;spacingTop=0;spacing=2;spacingLeft=4;fontSize=14;fontStyle=1;strokeColor=#000000;" parent="GxC5hQ3N9CfuvLy7UFLK-1" vertex="1">
          <mxGeometry x="-740" y="86" width="130" height="25" as="geometry" />
        </mxCell>
        <mxCell id="M_f02-2l7lWYVQSxkAaD-7" value="" style="shape=actor;whiteSpace=wrap;html=1;fillColor=#000000;" parent="GxC5hQ3N9CfuvLy7UFLK-1" vertex="1">
          <mxGeometry x="-150" y="30" width="18" height="22" as="geometry" />
        </mxCell>
        <mxCell id="M_f02-2l7lWYVQSxkAaD-8" value="Task 1to2&lt;div&gt;basedOn: CarePlan 1&lt;br&gt;&lt;div&gt;status: accepted&lt;/div&gt;&lt;div&gt;&lt;div&gt;&lt;span style=&quot;background-color: initial;&quot;&gt;requester: Prac1&lt;/span&gt;&lt;/div&gt;&lt;div&gt;&lt;span style=&quot;background-color: initial;&quot;&gt;performer: HcS2&lt;/span&gt;&lt;/div&gt;&lt;/div&gt;&lt;/div&gt;" style="rounded=1;whiteSpace=wrap;html=1;align=left;verticalAlign=top;spacingTop=0;spacing=2;spacingLeft=4;fontSize=14;fontStyle=1;" parent="GxC5hQ3N9CfuvLy7UFLK-1" vertex="1">
          <mxGeometry x="-740" y="116" width="150" height="100" as="geometry" />
        </mxCell>
        <mxCell id="M_f02-2l7lWYVQSxkAaD-9" value="" style="shape=image;verticalLabelPosition=bottom;labelBackgroundColor=default;verticalAlign=top;aspect=fixed;imageAspect=0;image=https://cdn.iconscout.com/icon/free/png-256/free-signature-icon-download-in-svg-png-gif-file-formats--sign-agreement-contract-deal-partnership-user-interface-vol-1-pack-icons-2202523.png;" parent="GxC5hQ3N9CfuvLy7UFLK-1" vertex="1">
          <mxGeometry x="-612" y="196" width="16" height="16" as="geometry" />
        </mxCell>
        <mxCell id="M_f02-2l7lWYVQSxkAaD-10" value="" style="image;aspect=fixed;html=1;points=[];align=left;fontSize=12;image=img/lib/azure2/general/Tag.svg;labelPosition=right;verticalLabelPosition=middle;verticalAlign=middle;flipH=1;" parent="GxC5hQ3N9CfuvLy7UFLK-1" vertex="1">
          <mxGeometry x="-612" y="121" width="20.36" height="20" as="geometry" />
        </mxCell>
        <mxCell id="M_f02-2l7lWYVQSxkAaD-11" value="Device workflow3" style="rounded=1;whiteSpace=wrap;html=1;align=left;verticalAlign=top;spacingTop=0;spacing=2;spacingLeft=4;fontSize=14;fontStyle=1;strokeColor=#000000;" parent="GxC5hQ3N9CfuvLy7UFLK-1" vertex="1">
          <mxGeometry x="-250" y="310" width="130" height="25" as="geometry" />
        </mxCell>
        <mxCell id="M_f02-2l7lWYVQSxkAaD-22" value="" style="shape=waypoint;sketch=0;size=6;pointerEvents=1;points=[];fillColor=none;resizable=0;rotatable=0;perimeter=centerPerimeter;snapToPoint=1;strokeColor=none;" parent="GxC5hQ3N9CfuvLy7UFLK-1" vertex="1">
          <mxGeometry x="-250" y="30" width="20" height="20" as="geometry" />
        </mxCell>
        <mxCell id="M_f02-2l7lWYVQSxkAaD-23" value="ServiceRequest 2" style="rounded=1;whiteSpace=wrap;html=1;align=left;verticalAlign=top;spacingTop=0;spacing=2;spacingLeft=4;fontSize=14;fontStyle=1;" parent="GxC5hQ3N9CfuvLy7UFLK-1" vertex="1">
          <mxGeometry x="-248.82" y="216" width="130" height="25" as="geometry" />
        </mxCell>
        <mxCell id="M_f02-2l7lWYVQSxkAaD-24" style="edgeStyle=orthogonalEdgeStyle;shape=connector;rounded=0;orthogonalLoop=1;jettySize=auto;html=1;exitX=1;exitY=0.5;exitDx=0;exitDy=0;strokeColor=default;align=center;verticalAlign=middle;fontFamily=Helvetica;fontSize=11;fontColor=default;labelBackgroundColor=default;endArrow=classic;dashed=1;dashPattern=8 8;entryX=0.24;entryY=0.5;entryDx=0;entryDy=0;entryPerimeter=0;" parent="GxC5hQ3N9CfuvLy7UFLK-1" target="M_f02-2l7lWYVQSxkAaD-22" edge="1">
          <mxGeometry relative="1" as="geometry">
            <Array as="points">
              <mxPoint x="-590" y="300" />
              <mxPoint x="-360" y="300" />
              <mxPoint x="-360" y="40" />
            </Array>
            <mxPoint x="-590" y="298" as="sourcePoint" />
          </mxGeometry>
        </mxCell>
        <mxCell id="M_f02-2l7lWYVQSxkAaD-25" value="notify" style="edgeLabel;html=1;align=center;verticalAlign=middle;resizable=0;points=[];fontFamily=Helvetica;fontSize=11;fontColor=default;labelBackgroundColor=default;" parent="M_f02-2l7lWYVQSxkAaD-24" vertex="1" connectable="0">
          <mxGeometry x="-0.1056" relative="1" as="geometry">
            <mxPoint as="offset" />
          </mxGeometry>
        </mxCell>
        <mxCell id="M_f02-2l7lWYVQSxkAaD-26" value="Task 2to3&lt;div&gt;status: requested&lt;/div&gt;" style="rounded=1;whiteSpace=wrap;html=1;align=left;verticalAlign=top;spacingTop=0;spacing=2;spacingLeft=4;fontSize=14;fontStyle=1;" parent="GxC5hQ3N9CfuvLy7UFLK-1" vertex="1">
          <mxGeometry x="-739.82" y="380" width="130" height="43.5" as="geometry" />
        </mxCell>
        <mxCell id="6dF0l-w6xQdZYjhLbbCT-0" value="CarePlan 1&lt;div&gt;- Task 1to2&lt;/div&gt;&lt;div&gt;-&lt;span style=&quot;background-color: initial;&quot;&gt;&amp;nbsp;Task 2to3&lt;/span&gt;&lt;/div&gt;" style="rounded=1;whiteSpace=wrap;html=1;align=left;verticalAlign=top;spacingTop=0;spacing=2;spacingLeft=4;fontSize=14;fontStyle=1;" vertex="1" parent="GxC5hQ3N9CfuvLy7UFLK-1">
          <mxGeometry x="-750" y="230" width="150" height="60" as="geometry" />
        </mxCell>
        <mxCell id="6dF0l-w6xQdZYjhLbbCT-1" value="CareTeam 1&lt;div&gt;- Patient 1&lt;/div&gt;&lt;div&gt;- Organization 1&lt;/div&gt;&lt;div&gt;- Organization 2&lt;br&gt;&lt;/div&gt;" style="rounded=1;whiteSpace=wrap;html=1;align=left;verticalAlign=top;spacingTop=0;spacing=2;spacingLeft=4;fontSize=14;fontStyle=1;" vertex="1" parent="GxC5hQ3N9CfuvLy7UFLK-1">
          <mxGeometry x="-749.82" y="290" width="149.82" height="83" as="geometry" />
        </mxCell>
        <mxCell id="6dF0l-w6xQdZYjhLbbCT-2" value="" style="image;aspect=fixed;html=1;points=[];align=left;fontSize=12;image=img/lib/azure2/general/Tag.svg;labelPosition=right;verticalLabelPosition=middle;verticalAlign=middle;flipH=1;" vertex="1" parent="GxC5hQ3N9CfuvLy7UFLK-1">
          <mxGeometry x="-624" y="234.51" width="20.36" height="20" as="geometry" />
        </mxCell>
        <mxCell id="6dF0l-w6xQdZYjhLbbCT-3" value="" style="shape=image;verticalLabelPosition=bottom;labelBackgroundColor=default;verticalAlign=top;aspect=fixed;imageAspect=0;image=https://cdn.iconscout.com/icon/free/png-256/free-signature-icon-download-in-svg-png-gif-file-formats--sign-agreement-contract-deal-partnership-user-interface-vol-1-pack-icons-2202523.png;" vertex="1" parent="GxC5hQ3N9CfuvLy7UFLK-1">
          <mxGeometry x="-619.82" y="260" width="16" height="16" as="geometry" />
        </mxCell>
        <mxCell id="6dF0l-w6xQdZYjhLbbCT-4" value="" style="image;aspect=fixed;html=1;points=[];align=left;fontSize=12;image=img/lib/azure2/general/Tag.svg;labelPosition=right;verticalLabelPosition=middle;verticalAlign=middle;flipH=1;" vertex="1" parent="GxC5hQ3N9CfuvLy7UFLK-1">
          <mxGeometry x="-624.18" y="300" width="20.36" height="20" as="geometry" />
        </mxCell>
        <mxCell id="6dF0l-w6xQdZYjhLbbCT-5" value="" style="shape=image;verticalLabelPosition=bottom;labelBackgroundColor=default;verticalAlign=top;aspect=fixed;imageAspect=0;image=https://cdn.iconscout.com/icon/free/png-256/free-signature-icon-download-in-svg-png-gif-file-formats--sign-agreement-contract-deal-partnership-user-interface-vol-1-pack-icons-2202523.png;" vertex="1" parent="GxC5hQ3N9CfuvLy7UFLK-1">
          <mxGeometry x="-620" y="325.49" width="16" height="16" as="geometry" />
        </mxCell>
        <mxCell id="6dF0l-w6xQdZYjhLbbCT-6" value="CarePlan 1&quot;&lt;div&gt;- Task 1to2&lt;/div&gt;&lt;div&gt;- Task 2to3&lt;br&gt;&lt;/div&gt;" style="rounded=1;whiteSpace=wrap;html=1;align=left;verticalAlign=top;spacingTop=0;spacing=2;spacingLeft=4;fontSize=14;fontStyle=1;" vertex="1" parent="GxC5hQ3N9CfuvLy7UFLK-1">
          <mxGeometry x="-239.82" y="50" width="150" height="60" as="geometry" />
        </mxCell>
        <mxCell id="6dF0l-w6xQdZYjhLbbCT-7" value="CareTeam 1&quot;&lt;div&gt;- Patient 1&lt;/div&gt;&lt;div&gt;- Organization 1&lt;/div&gt;&lt;div&gt;- Organization 2&lt;br&gt;&lt;/div&gt;" style="rounded=1;whiteSpace=wrap;html=1;align=left;verticalAlign=top;spacingTop=0;spacing=2;spacingLeft=4;fontSize=14;fontStyle=1;" vertex="1" parent="GxC5hQ3N9CfuvLy7UFLK-1">
          <mxGeometry x="-239.64000000000004" y="110" width="149.82" height="83" as="geometry" />
        </mxCell>
        <mxCell id="6dF0l-w6xQdZYjhLbbCT-8" value="" style="image;aspect=fixed;html=1;points=[];align=left;fontSize=12;image=img/lib/azure2/general/Tag.svg;labelPosition=right;verticalLabelPosition=middle;verticalAlign=middle;flipH=1;" vertex="1" parent="GxC5hQ3N9CfuvLy7UFLK-1">
          <mxGeometry x="-113.82" y="54.50999999999999" width="20.36" height="20" as="geometry" />
        </mxCell>
        <mxCell id="6dF0l-w6xQdZYjhLbbCT-9" value="" style="shape=image;verticalLabelPosition=bottom;labelBackgroundColor=default;verticalAlign=top;aspect=fixed;imageAspect=0;image=https://cdn.iconscout.com/icon/free/png-256/free-signature-icon-download-in-svg-png-gif-file-formats--sign-agreement-contract-deal-partnership-user-interface-vol-1-pack-icons-2202523.png;" vertex="1" parent="GxC5hQ3N9CfuvLy7UFLK-1">
          <mxGeometry x="-109.64000000000004" y="80" width="16" height="16" as="geometry" />
        </mxCell>
        <mxCell id="6dF0l-w6xQdZYjhLbbCT-10" value="" style="image;aspect=fixed;html=1;points=[];align=left;fontSize=12;image=img/lib/azure2/general/Tag.svg;labelPosition=right;verticalLabelPosition=middle;verticalAlign=middle;flipH=1;" vertex="1" parent="GxC5hQ3N9CfuvLy7UFLK-1">
          <mxGeometry x="-113.99999999999994" y="120" width="20.36" height="20" as="geometry" />
        </mxCell>
        <mxCell id="6dF0l-w6xQdZYjhLbbCT-11" value="" style="shape=image;verticalLabelPosition=bottom;labelBackgroundColor=default;verticalAlign=top;aspect=fixed;imageAspect=0;image=https://cdn.iconscout.com/icon/free/png-256/free-signature-icon-download-in-svg-png-gif-file-formats--sign-agreement-contract-deal-partnership-user-interface-vol-1-pack-icons-2202523.png;" vertex="1" parent="GxC5hQ3N9CfuvLy7UFLK-1">
          <mxGeometry x="-109.82" y="145.49" width="16" height="16" as="geometry" />
        </mxCell>
      </root>
    </mxGraphModel>
  </diagram>
  <diagram name="expand4" id="Vd-lgx5jXB7hiV37wKxZ">
    <mxGraphModel dx="2220" dy="856" grid="1" gridSize="10" guides="1" tooltips="1" connect="1" arrows="1" fold="1" page="1" pageScale="1" pageWidth="800" pageHeight="500" backgroundImage="{&quot;src&quot;:&quot;data:page/id,5ro5NTjHnK7VgrN_J4Qa&quot;}" math="0" shadow="0">
      <root>
        <mxCell id="LqrtRT-jVCBlymSinLTl-0" />
        <mxCell id="LqrtRT-jVCBlymSinLTl-1" parent="LqrtRT-jVCBlymSinLTl-0" />
        <mxCell id="40jb26X9GodrZjOmyM6T-20" value="Task 2to3&lt;div&gt;status: accepted&lt;/div&gt;" style="rounded=1;whiteSpace=wrap;html=1;align=left;verticalAlign=top;spacingTop=0;spacing=2;spacingLeft=4;fontSize=14;fontStyle=1;fillColor=#e1d5e7;strokeColor=#9673a6;" parent="LqrtRT-jVCBlymSinLTl-1" vertex="1">
          <mxGeometry x="-739.82" y="380" width="149.82" height="43.5" as="geometry" />
        </mxCell>
        <mxCell id="40jb26X9GodrZjOmyM6T-0" value="" style="shape=waypoint;sketch=0;size=6;pointerEvents=1;points=[];fillColor=none;resizable=0;rotatable=0;perimeter=centerPerimeter;snapToPoint=1;strokeColor=none;" parent="LqrtRT-jVCBlymSinLTl-1" vertex="1">
          <mxGeometry x="-249" y="280" width="20" height="20" as="geometry" />
        </mxCell>
        <mxCell id="40jb26X9GodrZjOmyM6T-1" value="" style="shape=waypoint;sketch=0;size=6;pointerEvents=1;points=[];fillColor=none;resizable=0;rotatable=0;perimeter=centerPerimeter;snapToPoint=1;strokeColor=none;" parent="LqrtRT-jVCBlymSinLTl-1" vertex="1">
          <mxGeometry x="-596" y="50" width="20" height="20" as="geometry" />
        </mxCell>
        <mxCell id="40jb26X9GodrZjOmyM6T-2" value="Patient 1" style="rounded=1;whiteSpace=wrap;html=1;align=left;verticalAlign=top;spacingTop=0;spacing=2;spacingLeft=4;fontSize=14;fontStyle=1;strokeColor=#000000;" parent="LqrtRT-jVCBlymSinLTl-1" vertex="1">
          <mxGeometry x="-740" y="56" width="130" height="25" as="geometry" />
        </mxCell>
        <mxCell id="40jb26X9GodrZjOmyM6T-3" value="ServiceRequest 1" style="rounded=1;whiteSpace=wrap;html=1;align=left;verticalAlign=top;spacingTop=0;spacing=2;spacingLeft=4;fontSize=14;fontStyle=1;strokeColor=#000000;" parent="LqrtRT-jVCBlymSinLTl-1" vertex="1">
          <mxGeometry x="-740" y="86" width="130" height="25" as="geometry" />
        </mxCell>
        <mxCell id="40jb26X9GodrZjOmyM6T-4" value="" style="shape=waypoint;sketch=0;size=6;pointerEvents=1;points=[];fillColor=none;resizable=0;rotatable=0;perimeter=centerPerimeter;snapToPoint=1;strokeColor=none;" parent="LqrtRT-jVCBlymSinLTl-1" vertex="1">
          <mxGeometry x="-596" y="50" width="20" height="20" as="geometry" />
        </mxCell>
        <mxCell id="40jb26X9GodrZjOmyM6T-5" value="Patient 1" style="rounded=1;whiteSpace=wrap;html=1;align=left;verticalAlign=top;spacingTop=0;spacing=2;spacingLeft=4;fontSize=14;fontStyle=1;strokeColor=#000000;" parent="LqrtRT-jVCBlymSinLTl-1" vertex="1">
          <mxGeometry x="-740" y="56" width="130" height="25" as="geometry" />
        </mxCell>
        <mxCell id="40jb26X9GodrZjOmyM6T-6" value="ServiceRequest 1" style="rounded=1;whiteSpace=wrap;html=1;align=left;verticalAlign=top;spacingTop=0;spacing=2;spacingLeft=4;fontSize=14;fontStyle=1;strokeColor=#000000;" parent="LqrtRT-jVCBlymSinLTl-1" vertex="1">
          <mxGeometry x="-740" y="86" width="130" height="25" as="geometry" />
        </mxCell>
        <mxCell id="40jb26X9GodrZjOmyM6T-7" value="" style="shape=actor;whiteSpace=wrap;html=1;fillColor=#000000;" parent="LqrtRT-jVCBlymSinLTl-1" vertex="1">
          <mxGeometry x="-150" y="30" width="18" height="22" as="geometry" />
        </mxCell>
        <mxCell id="40jb26X9GodrZjOmyM6T-8" value="Task 1to2&lt;div&gt;basedOn: CarePlan 1&lt;br&gt;&lt;div&gt;status: accepted&lt;/div&gt;&lt;div&gt;&lt;div&gt;&lt;span style=&quot;background-color: initial;&quot;&gt;requester: Prac1&lt;/span&gt;&lt;/div&gt;&lt;div&gt;&lt;span style=&quot;background-color: initial;&quot;&gt;performer: HcS2&lt;/span&gt;&lt;/div&gt;&lt;/div&gt;&lt;/div&gt;" style="rounded=1;whiteSpace=wrap;html=1;align=left;verticalAlign=top;spacingTop=0;spacing=2;spacingLeft=4;fontSize=14;fontStyle=1;" parent="LqrtRT-jVCBlymSinLTl-1" vertex="1">
          <mxGeometry x="-740" y="116" width="150" height="100" as="geometry" />
        </mxCell>
        <mxCell id="40jb26X9GodrZjOmyM6T-9" value="" style="shape=image;verticalLabelPosition=bottom;labelBackgroundColor=default;verticalAlign=top;aspect=fixed;imageAspect=0;image=https://cdn.iconscout.com/icon/free/png-256/free-signature-icon-download-in-svg-png-gif-file-formats--sign-agreement-contract-deal-partnership-user-interface-vol-1-pack-icons-2202523.png;" parent="LqrtRT-jVCBlymSinLTl-1" vertex="1">
          <mxGeometry x="-612" y="196" width="16" height="16" as="geometry" />
        </mxCell>
        <mxCell id="40jb26X9GodrZjOmyM6T-10" value="" style="image;aspect=fixed;html=1;points=[];align=left;fontSize=12;image=img/lib/azure2/general/Tag.svg;labelPosition=right;verticalLabelPosition=middle;verticalAlign=middle;flipH=1;" parent="LqrtRT-jVCBlymSinLTl-1" vertex="1">
          <mxGeometry x="-612" y="121" width="20.36" height="20" as="geometry" />
        </mxCell>
        <mxCell id="40jb26X9GodrZjOmyM6T-25" style="edgeStyle=orthogonalEdgeStyle;shape=connector;rounded=0;orthogonalLoop=1;jettySize=auto;html=1;exitX=0;exitY=0.5;exitDx=0;exitDy=0;entryX=1;entryY=0.5;entryDx=0;entryDy=0;strokeColor=default;align=center;verticalAlign=middle;fontFamily=Helvetica;fontSize=11;fontColor=default;labelBackgroundColor=default;endArrow=classic;" parent="LqrtRT-jVCBlymSinLTl-1" source="40jb26X9GodrZjOmyM6T-11" target="40jb26X9GodrZjOmyM6T-20" edge="1">
          <mxGeometry relative="1" as="geometry" />
        </mxCell>
        <mxCell id="40jb26X9GodrZjOmyM6T-26" value="update" style="edgeLabel;html=1;align=center;verticalAlign=middle;resizable=0;points=[];fontFamily=Helvetica;fontSize=11;fontColor=default;labelBackgroundColor=default;" parent="40jb26X9GodrZjOmyM6T-25" vertex="1" connectable="0">
          <mxGeometry x="0.6419" relative="1" as="geometry">
            <mxPoint as="offset" />
          </mxGeometry>
        </mxCell>
        <mxCell id="40jb26X9GodrZjOmyM6T-11" value="Device workflow3" style="rounded=1;whiteSpace=wrap;html=1;align=left;verticalAlign=top;spacingTop=0;spacing=2;spacingLeft=4;fontSize=14;fontStyle=1;strokeColor=#000000;" parent="LqrtRT-jVCBlymSinLTl-1" vertex="1">
          <mxGeometry x="-250" y="310" width="130" height="25" as="geometry" />
        </mxCell>
        <mxCell id="40jb26X9GodrZjOmyM6T-15" value="" style="shape=image;verticalLabelPosition=bottom;labelBackgroundColor=default;verticalAlign=top;aspect=fixed;imageAspect=0;image=https://cdn.iconscout.com/icon/free/png-256/free-signature-icon-download-in-svg-png-gif-file-formats--sign-agreement-contract-deal-partnership-user-interface-vol-1-pack-icons-2202523.png;" parent="LqrtRT-jVCBlymSinLTl-1" vertex="1">
          <mxGeometry x="-611.82" y="407.5" width="16" height="16" as="geometry" />
        </mxCell>
        <mxCell id="40jb26X9GodrZjOmyM6T-16" value="" style="shape=waypoint;sketch=0;size=6;pointerEvents=1;points=[];fillColor=none;resizable=0;rotatable=0;perimeter=centerPerimeter;snapToPoint=1;strokeColor=none;" parent="LqrtRT-jVCBlymSinLTl-1" vertex="1">
          <mxGeometry x="-250" y="30" width="20" height="20" as="geometry" />
        </mxCell>
        <mxCell id="40jb26X9GodrZjOmyM6T-17" value="ServiceRequest 2" style="rounded=1;whiteSpace=wrap;html=1;align=left;verticalAlign=top;spacingTop=0;spacing=2;spacingLeft=4;fontSize=14;fontStyle=1;" parent="LqrtRT-jVCBlymSinLTl-1" vertex="1">
          <mxGeometry x="-248.82" y="216" width="130" height="25" as="geometry" />
        </mxCell>
        <mxCell id="m-OCJ_lNfbSnZYQEI5bY-0" value="" style="image;aspect=fixed;html=1;points=[];align=left;fontSize=12;image=img/lib/azure2/general/Tag.svg;labelPosition=right;verticalLabelPosition=middle;verticalAlign=middle;flipH=1;" parent="LqrtRT-jVCBlymSinLTl-1" vertex="1">
          <mxGeometry x="-614" y="380" width="20.36" height="20" as="geometry" />
        </mxCell>
        <mxCell id="q-SMKARKMWODsi9nn8ic-0" value="CarePlan 1&lt;div&gt;- Task 1to2&lt;/div&gt;&lt;div&gt;-&lt;span style=&quot;background-color: initial;&quot;&gt;&amp;nbsp;Task 2to3&lt;/span&gt;&lt;/div&gt;" style="rounded=1;whiteSpace=wrap;html=1;align=left;verticalAlign=top;spacingTop=0;spacing=2;spacingLeft=4;fontSize=14;fontStyle=1;" vertex="1" parent="LqrtRT-jVCBlymSinLTl-1">
          <mxGeometry x="-750" y="230" width="150" height="60" as="geometry" />
        </mxCell>
        <mxCell id="q-SMKARKMWODsi9nn8ic-1" value="CareTeam 1&lt;div&gt;- Patient 1&lt;/div&gt;&lt;div&gt;- Organization 1&lt;/div&gt;&lt;div&gt;- Organization 2&lt;br&gt;&lt;/div&gt;" style="rounded=1;whiteSpace=wrap;html=1;align=left;verticalAlign=top;spacingTop=0;spacing=2;spacingLeft=4;fontSize=14;fontStyle=1;" vertex="1" parent="LqrtRT-jVCBlymSinLTl-1">
          <mxGeometry x="-749.82" y="290" width="149.82" height="83" as="geometry" />
        </mxCell>
        <mxCell id="q-SMKARKMWODsi9nn8ic-2" value="" style="image;aspect=fixed;html=1;points=[];align=left;fontSize=12;image=img/lib/azure2/general/Tag.svg;labelPosition=right;verticalLabelPosition=middle;verticalAlign=middle;flipH=1;" vertex="1" parent="LqrtRT-jVCBlymSinLTl-1">
          <mxGeometry x="-624" y="234.51" width="20.36" height="20" as="geometry" />
        </mxCell>
        <mxCell id="q-SMKARKMWODsi9nn8ic-3" value="" style="shape=image;verticalLabelPosition=bottom;labelBackgroundColor=default;verticalAlign=top;aspect=fixed;imageAspect=0;image=https://cdn.iconscout.com/icon/free/png-256/free-signature-icon-download-in-svg-png-gif-file-formats--sign-agreement-contract-deal-partnership-user-interface-vol-1-pack-icons-2202523.png;" vertex="1" parent="LqrtRT-jVCBlymSinLTl-1">
          <mxGeometry x="-619.82" y="260" width="16" height="16" as="geometry" />
        </mxCell>
        <mxCell id="q-SMKARKMWODsi9nn8ic-4" value="" style="image;aspect=fixed;html=1;points=[];align=left;fontSize=12;image=img/lib/azure2/general/Tag.svg;labelPosition=right;verticalLabelPosition=middle;verticalAlign=middle;flipH=1;" vertex="1" parent="LqrtRT-jVCBlymSinLTl-1">
          <mxGeometry x="-624.18" y="300" width="20.36" height="20" as="geometry" />
        </mxCell>
        <mxCell id="q-SMKARKMWODsi9nn8ic-5" value="" style="shape=image;verticalLabelPosition=bottom;labelBackgroundColor=default;verticalAlign=top;aspect=fixed;imageAspect=0;image=https://cdn.iconscout.com/icon/free/png-256/free-signature-icon-download-in-svg-png-gif-file-formats--sign-agreement-contract-deal-partnership-user-interface-vol-1-pack-icons-2202523.png;" vertex="1" parent="LqrtRT-jVCBlymSinLTl-1">
          <mxGeometry x="-620" y="325.49" width="16" height="16" as="geometry" />
        </mxCell>
        <mxCell id="q-SMKARKMWODsi9nn8ic-6" value="CarePlan 1&quot;&lt;div&gt;- Task 1to2&lt;/div&gt;&lt;div&gt;- Task 2to3&lt;br&gt;&lt;/div&gt;" style="rounded=1;whiteSpace=wrap;html=1;align=left;verticalAlign=top;spacingTop=0;spacing=2;spacingLeft=4;fontSize=14;fontStyle=1;" vertex="1" parent="LqrtRT-jVCBlymSinLTl-1">
          <mxGeometry x="-239.82" y="50" width="150" height="60" as="geometry" />
        </mxCell>
        <mxCell id="q-SMKARKMWODsi9nn8ic-7" value="CareTeam 1&quot;&lt;div&gt;- Patient 1&lt;/div&gt;&lt;div&gt;- Organization 1&lt;/div&gt;&lt;div&gt;- Organization 2&lt;br&gt;&lt;/div&gt;" style="rounded=1;whiteSpace=wrap;html=1;align=left;verticalAlign=top;spacingTop=0;spacing=2;spacingLeft=4;fontSize=14;fontStyle=1;" vertex="1" parent="LqrtRT-jVCBlymSinLTl-1">
          <mxGeometry x="-239.64000000000004" y="110" width="149.82" height="83" as="geometry" />
        </mxCell>
        <mxCell id="q-SMKARKMWODsi9nn8ic-8" value="" style="image;aspect=fixed;html=1;points=[];align=left;fontSize=12;image=img/lib/azure2/general/Tag.svg;labelPosition=right;verticalLabelPosition=middle;verticalAlign=middle;flipH=1;" vertex="1" parent="LqrtRT-jVCBlymSinLTl-1">
          <mxGeometry x="-113.82" y="54.50999999999999" width="20.36" height="20" as="geometry" />
        </mxCell>
        <mxCell id="q-SMKARKMWODsi9nn8ic-9" value="" style="shape=image;verticalLabelPosition=bottom;labelBackgroundColor=default;verticalAlign=top;aspect=fixed;imageAspect=0;image=https://cdn.iconscout.com/icon/free/png-256/free-signature-icon-download-in-svg-png-gif-file-formats--sign-agreement-contract-deal-partnership-user-interface-vol-1-pack-icons-2202523.png;" vertex="1" parent="LqrtRT-jVCBlymSinLTl-1">
          <mxGeometry x="-109.64000000000004" y="80" width="16" height="16" as="geometry" />
        </mxCell>
        <mxCell id="q-SMKARKMWODsi9nn8ic-10" value="" style="image;aspect=fixed;html=1;points=[];align=left;fontSize=12;image=img/lib/azure2/general/Tag.svg;labelPosition=right;verticalLabelPosition=middle;verticalAlign=middle;flipH=1;" vertex="1" parent="LqrtRT-jVCBlymSinLTl-1">
          <mxGeometry x="-113.99999999999994" y="120" width="20.36" height="20" as="geometry" />
        </mxCell>
        <mxCell id="q-SMKARKMWODsi9nn8ic-11" value="" style="shape=image;verticalLabelPosition=bottom;labelBackgroundColor=default;verticalAlign=top;aspect=fixed;imageAspect=0;image=https://cdn.iconscout.com/icon/free/png-256/free-signature-icon-download-in-svg-png-gif-file-formats--sign-agreement-contract-deal-partnership-user-interface-vol-1-pack-icons-2202523.png;" vertex="1" parent="LqrtRT-jVCBlymSinLTl-1">
          <mxGeometry x="-109.82" y="145.49" width="16" height="16" as="geometry" />
        </mxCell>
      </root>
    </mxGraphModel>
  </diagram>
  <diagram name="expand5" id="C0KuGoCiTL1rF5dqdoOT">
    <mxGraphModel dx="2220" dy="856" grid="1" gridSize="10" guides="1" tooltips="1" connect="1" arrows="1" fold="1" page="1" pageScale="1" pageWidth="800" pageHeight="500" backgroundImage="{&quot;src&quot;:&quot;data:page/id,5ro5NTjHnK7VgrN_J4Qa&quot;}" math="0" shadow="0">
      <root>
        <mxCell id="XZAML_58GVnW9KxZfaEd-0" />
        <mxCell id="XZAML_58GVnW9KxZfaEd-1" parent="XZAML_58GVnW9KxZfaEd-0" />
        <mxCell id="_O9uPJ5hwuzL682jjJRR-0" value="Task 2to3&lt;div&gt;status: accepted&lt;/div&gt;" style="rounded=1;whiteSpace=wrap;html=1;align=left;verticalAlign=top;spacingTop=0;spacing=2;spacingLeft=4;fontSize=14;fontStyle=1;" parent="XZAML_58GVnW9KxZfaEd-1" vertex="1">
          <mxGeometry x="-739.82" y="390" width="149.82" height="43.5" as="geometry" />
        </mxCell>
        <mxCell id="_O9uPJ5hwuzL682jjJRR-1" value="" style="shape=waypoint;sketch=0;size=6;pointerEvents=1;points=[];fillColor=none;resizable=0;rotatable=0;perimeter=centerPerimeter;snapToPoint=1;strokeColor=none;" parent="XZAML_58GVnW9KxZfaEd-1" vertex="1">
          <mxGeometry x="-249" y="280" width="20" height="20" as="geometry" />
        </mxCell>
        <mxCell id="_O9uPJ5hwuzL682jjJRR-2" value="" style="shape=waypoint;sketch=0;size=6;pointerEvents=1;points=[];fillColor=none;resizable=0;rotatable=0;perimeter=centerPerimeter;snapToPoint=1;strokeColor=none;" parent="XZAML_58GVnW9KxZfaEd-1" vertex="1">
          <mxGeometry x="-596" y="50" width="20" height="20" as="geometry" />
        </mxCell>
        <mxCell id="_O9uPJ5hwuzL682jjJRR-3" value="Patient 1" style="rounded=1;whiteSpace=wrap;html=1;align=left;verticalAlign=top;spacingTop=0;spacing=2;spacingLeft=4;fontSize=14;fontStyle=1;strokeColor=#000000;" parent="XZAML_58GVnW9KxZfaEd-1" vertex="1">
          <mxGeometry x="-740" y="56" width="130" height="25" as="geometry" />
        </mxCell>
        <mxCell id="_O9uPJ5hwuzL682jjJRR-4" value="ServiceRequest 1" style="rounded=1;whiteSpace=wrap;html=1;align=left;verticalAlign=top;spacingTop=0;spacing=2;spacingLeft=4;fontSize=14;fontStyle=1;strokeColor=#000000;" parent="XZAML_58GVnW9KxZfaEd-1" vertex="1">
          <mxGeometry x="-740" y="86" width="130" height="25" as="geometry" />
        </mxCell>
        <mxCell id="_O9uPJ5hwuzL682jjJRR-5" value="" style="shape=waypoint;sketch=0;size=6;pointerEvents=1;points=[];fillColor=none;resizable=0;rotatable=0;perimeter=centerPerimeter;snapToPoint=1;strokeColor=none;" parent="XZAML_58GVnW9KxZfaEd-1" vertex="1">
          <mxGeometry x="-596" y="50" width="20" height="20" as="geometry" />
        </mxCell>
        <mxCell id="_O9uPJ5hwuzL682jjJRR-6" value="Patient 1" style="rounded=1;whiteSpace=wrap;html=1;align=left;verticalAlign=top;spacingTop=0;spacing=2;spacingLeft=4;fontSize=14;fontStyle=1;strokeColor=#000000;" parent="XZAML_58GVnW9KxZfaEd-1" vertex="1">
          <mxGeometry x="-740" y="56" width="130" height="25" as="geometry" />
        </mxCell>
        <mxCell id="_O9uPJ5hwuzL682jjJRR-7" value="ServiceRequest 1" style="rounded=1;whiteSpace=wrap;html=1;align=left;verticalAlign=top;spacingTop=0;spacing=2;spacingLeft=4;fontSize=14;fontStyle=1;strokeColor=#000000;" parent="XZAML_58GVnW9KxZfaEd-1" vertex="1">
          <mxGeometry x="-740" y="86" width="130" height="25" as="geometry" />
        </mxCell>
        <mxCell id="_O9uPJ5hwuzL682jjJRR-8" value="" style="shape=actor;whiteSpace=wrap;html=1;fillColor=#000000;" parent="XZAML_58GVnW9KxZfaEd-1" vertex="1">
          <mxGeometry x="-150" y="30" width="18" height="22" as="geometry" />
        </mxCell>
        <mxCell id="_O9uPJ5hwuzL682jjJRR-9" value="Task 1to2&lt;div&gt;basedOn: CarePlan 1&lt;br&gt;&lt;div&gt;status: accepted&lt;/div&gt;&lt;div&gt;&lt;div&gt;&lt;span style=&quot;background-color: initial;&quot;&gt;requester: Prac1&lt;/span&gt;&lt;/div&gt;&lt;div&gt;&lt;span style=&quot;background-color: initial;&quot;&gt;performer: HcS2&lt;/span&gt;&lt;/div&gt;&lt;/div&gt;&lt;/div&gt;" style="rounded=1;whiteSpace=wrap;html=1;align=left;verticalAlign=top;spacingTop=0;spacing=2;spacingLeft=4;fontSize=14;fontStyle=1;" parent="XZAML_58GVnW9KxZfaEd-1" vertex="1">
          <mxGeometry x="-740" y="116" width="150" height="100" as="geometry" />
        </mxCell>
        <mxCell id="_O9uPJ5hwuzL682jjJRR-10" value="" style="shape=image;verticalLabelPosition=bottom;labelBackgroundColor=default;verticalAlign=top;aspect=fixed;imageAspect=0;image=https://cdn.iconscout.com/icon/free/png-256/free-signature-icon-download-in-svg-png-gif-file-formats--sign-agreement-contract-deal-partnership-user-interface-vol-1-pack-icons-2202523.png;" parent="XZAML_58GVnW9KxZfaEd-1" vertex="1">
          <mxGeometry x="-612" y="196" width="16" height="16" as="geometry" />
        </mxCell>
        <mxCell id="_O9uPJ5hwuzL682jjJRR-11" value="" style="image;aspect=fixed;html=1;points=[];align=left;fontSize=12;image=img/lib/azure2/general/Tag.svg;labelPosition=right;verticalLabelPosition=middle;verticalAlign=middle;flipH=1;" parent="XZAML_58GVnW9KxZfaEd-1" vertex="1">
          <mxGeometry x="-612" y="121" width="20.36" height="20" as="geometry" />
        </mxCell>
        <mxCell id="_O9uPJ5hwuzL682jjJRR-14" value="Device workflow3" style="rounded=1;whiteSpace=wrap;html=1;align=left;verticalAlign=top;spacingTop=0;spacing=2;spacingLeft=4;fontSize=14;fontStyle=1;strokeColor=#000000;" parent="XZAML_58GVnW9KxZfaEd-1" vertex="1">
          <mxGeometry x="-250" y="310" width="130" height="25" as="geometry" />
        </mxCell>
        <mxCell id="_O9uPJ5hwuzL682jjJRR-18" value="" style="shape=image;verticalLabelPosition=bottom;labelBackgroundColor=default;verticalAlign=top;aspect=fixed;imageAspect=0;image=https://cdn.iconscout.com/icon/free/png-256/free-signature-icon-download-in-svg-png-gif-file-formats--sign-agreement-contract-deal-partnership-user-interface-vol-1-pack-icons-2202523.png;" parent="XZAML_58GVnW9KxZfaEd-1" vertex="1">
          <mxGeometry x="-611.82" y="417.5" width="16" height="16" as="geometry" />
        </mxCell>
        <mxCell id="_O9uPJ5hwuzL682jjJRR-19" value="" style="shape=waypoint;sketch=0;size=6;pointerEvents=1;points=[];fillColor=none;resizable=0;rotatable=0;perimeter=centerPerimeter;snapToPoint=1;strokeColor=none;" parent="XZAML_58GVnW9KxZfaEd-1" vertex="1">
          <mxGeometry x="-250" y="30" width="20" height="20" as="geometry" />
        </mxCell>
        <mxCell id="_O9uPJ5hwuzL682jjJRR-20" value="ServiceRequest 2" style="rounded=1;whiteSpace=wrap;html=1;align=left;verticalAlign=top;spacingTop=0;spacing=2;spacingLeft=4;fontSize=14;fontStyle=1;" parent="XZAML_58GVnW9KxZfaEd-1" vertex="1">
          <mxGeometry x="-248.82" y="216" width="130" height="25" as="geometry" />
        </mxCell>
        <mxCell id="_O9uPJ5hwuzL682jjJRR-21" style="edgeStyle=orthogonalEdgeStyle;shape=connector;rounded=0;orthogonalLoop=1;jettySize=auto;html=1;exitX=1.013;exitY=0.189;exitDx=0;exitDy=0;strokeColor=default;align=center;verticalAlign=middle;fontFamily=Helvetica;fontSize=11;fontColor=default;labelBackgroundColor=default;endArrow=classic;dashed=1;dashPattern=8 8;entryX=0.24;entryY=0.5;entryDx=0;entryDy=0;entryPerimeter=0;exitPerimeter=0;" parent="XZAML_58GVnW9KxZfaEd-1" source="i_6Mm7Y7_z8ILSZmqQqN-1" target="_O9uPJ5hwuzL682jjJRR-19" edge="1">
          <mxGeometry relative="1" as="geometry">
            <Array as="points">
              <mxPoint x="-600" y="307" />
              <mxPoint x="-600" y="303" />
              <mxPoint x="-360" y="303" />
              <mxPoint x="-360" y="40" />
            </Array>
            <mxPoint x="-870" y="307" as="sourcePoint" />
          </mxGeometry>
        </mxCell>
        <mxCell id="_O9uPJ5hwuzL682jjJRR-22" value="notify" style="edgeLabel;html=1;align=center;verticalAlign=middle;resizable=0;points=[];fontFamily=Helvetica;fontSize=11;fontColor=default;labelBackgroundColor=default;" parent="_O9uPJ5hwuzL682jjJRR-21" vertex="1" connectable="0">
          <mxGeometry x="-0.1056" relative="1" as="geometry">
            <mxPoint x="-20" y="51" as="offset" />
          </mxGeometry>
        </mxCell>
        <mxCell id="_O9uPJ5hwuzL682jjJRR-27" value="" style="image;aspect=fixed;html=1;points=[];align=left;fontSize=12;image=img/lib/azure2/general/Tag.svg;labelPosition=right;verticalLabelPosition=middle;verticalAlign=middle;flipH=1;" parent="XZAML_58GVnW9KxZfaEd-1" vertex="1">
          <mxGeometry x="-614" y="390" width="20.36" height="20" as="geometry" />
        </mxCell>
        <mxCell id="kJupezrwdKBzXsW5sLBZ-0" style="edgeStyle=orthogonalEdgeStyle;shape=connector;rounded=0;orthogonalLoop=1;jettySize=auto;html=1;entryX=0.367;entryY=0.658;entryDx=0;entryDy=0;entryPerimeter=0;strokeColor=default;align=center;verticalAlign=middle;fontFamily=Helvetica;fontSize=11;fontColor=default;labelBackgroundColor=default;endArrow=classic;dashed=1;dashPattern=8 8;exitX=1;exitY=0.25;exitDx=0;exitDy=0;" parent="XZAML_58GVnW9KxZfaEd-1" source="i_6Mm7Y7_z8ILSZmqQqN-1" target="_O9uPJ5hwuzL682jjJRR-1" edge="1">
          <mxGeometry relative="1" as="geometry">
            <Array as="points">
              <mxPoint x="-600" y="303" />
              <mxPoint x="-360" y="303" />
              <mxPoint x="-360" y="290" />
            </Array>
            <mxPoint x="-870" y="303" as="sourcePoint" />
          </mxGeometry>
        </mxCell>
        <mxCell id="i_6Mm7Y7_z8ILSZmqQqN-0" value="CarePlan 1&lt;div&gt;- Task 1to2&lt;/div&gt;&lt;div&gt;-&lt;span style=&quot;background-color: initial;&quot;&gt;&amp;nbsp;Task 2to3&lt;/span&gt;&lt;/div&gt;" style="rounded=1;whiteSpace=wrap;html=1;align=left;verticalAlign=top;spacingTop=0;spacing=2;spacingLeft=4;fontSize=14;fontStyle=1;" vertex="1" parent="XZAML_58GVnW9KxZfaEd-1">
          <mxGeometry x="-750" y="230" width="150" height="60" as="geometry" />
        </mxCell>
        <mxCell id="i_6Mm7Y7_z8ILSZmqQqN-1" value="CareTeam 1&lt;div&gt;- Patient 1&lt;/div&gt;&lt;div&gt;- Organization 1&lt;/div&gt;&lt;div&gt;- Organization 2&lt;br&gt;&lt;/div&gt;&lt;div&gt;- Organization 3&lt;br&gt;&lt;/div&gt;" style="rounded=1;whiteSpace=wrap;html=1;align=left;verticalAlign=top;spacingTop=0;spacing=2;spacingLeft=4;fontSize=14;fontStyle=1;" vertex="1" parent="XZAML_58GVnW9KxZfaEd-1">
          <mxGeometry x="-749.82" y="290" width="149.82" height="90" as="geometry" />
        </mxCell>
        <mxCell id="i_6Mm7Y7_z8ILSZmqQqN-2" value="" style="image;aspect=fixed;html=1;points=[];align=left;fontSize=12;image=img/lib/azure2/general/Tag.svg;labelPosition=right;verticalLabelPosition=middle;verticalAlign=middle;flipH=1;" vertex="1" parent="XZAML_58GVnW9KxZfaEd-1">
          <mxGeometry x="-624" y="234.51" width="20.36" height="20" as="geometry" />
        </mxCell>
        <mxCell id="i_6Mm7Y7_z8ILSZmqQqN-3" value="" style="shape=image;verticalLabelPosition=bottom;labelBackgroundColor=default;verticalAlign=top;aspect=fixed;imageAspect=0;image=https://cdn.iconscout.com/icon/free/png-256/free-signature-icon-download-in-svg-png-gif-file-formats--sign-agreement-contract-deal-partnership-user-interface-vol-1-pack-icons-2202523.png;" vertex="1" parent="XZAML_58GVnW9KxZfaEd-1">
          <mxGeometry x="-619.82" y="260" width="16" height="16" as="geometry" />
        </mxCell>
        <mxCell id="i_6Mm7Y7_z8ILSZmqQqN-4" value="" style="image;aspect=fixed;html=1;points=[];align=left;fontSize=12;image=img/lib/azure2/general/Tag.svg;labelPosition=right;verticalLabelPosition=middle;verticalAlign=middle;flipH=1;" vertex="1" parent="XZAML_58GVnW9KxZfaEd-1">
          <mxGeometry x="-624.18" y="300" width="20.36" height="20" as="geometry" />
        </mxCell>
        <mxCell id="i_6Mm7Y7_z8ILSZmqQqN-5" value="" style="shape=image;verticalLabelPosition=bottom;labelBackgroundColor=default;verticalAlign=top;aspect=fixed;imageAspect=0;image=https://cdn.iconscout.com/icon/free/png-256/free-signature-icon-download-in-svg-png-gif-file-formats--sign-agreement-contract-deal-partnership-user-interface-vol-1-pack-icons-2202523.png;" vertex="1" parent="XZAML_58GVnW9KxZfaEd-1">
          <mxGeometry x="-620" y="325.49" width="16" height="16" as="geometry" />
        </mxCell>
        <mxCell id="i_6Mm7Y7_z8ILSZmqQqN-6" value="CarePlan 1&quot;&lt;div&gt;- Task 1to2&lt;/div&gt;&lt;div&gt;- Task 2to3&lt;br&gt;&lt;/div&gt;" style="rounded=1;whiteSpace=wrap;html=1;align=left;verticalAlign=top;spacingTop=0;spacing=2;spacingLeft=4;fontSize=14;fontStyle=1;" vertex="1" parent="XZAML_58GVnW9KxZfaEd-1">
          <mxGeometry x="-239.82" y="50" width="150" height="60" as="geometry" />
        </mxCell>
        <mxCell id="i_6Mm7Y7_z8ILSZmqQqN-7" value="CareTeam 1&quot;&lt;div&gt;- Patient 1&lt;/div&gt;&lt;div&gt;- Organization 1&lt;/div&gt;&lt;div&gt;- Organization 2&lt;br&gt;&lt;/div&gt;&lt;div&gt;- Organization 3&lt;br&gt;&lt;/div&gt;" style="rounded=1;whiteSpace=wrap;html=1;align=left;verticalAlign=top;spacingTop=0;spacing=2;spacingLeft=4;fontSize=14;fontStyle=1;" vertex="1" parent="XZAML_58GVnW9KxZfaEd-1">
          <mxGeometry x="-239.64" y="110" width="149.82" height="90" as="geometry" />
        </mxCell>
        <mxCell id="i_6Mm7Y7_z8ILSZmqQqN-8" value="" style="image;aspect=fixed;html=1;points=[];align=left;fontSize=12;image=img/lib/azure2/general/Tag.svg;labelPosition=right;verticalLabelPosition=middle;verticalAlign=middle;flipH=1;" vertex="1" parent="XZAML_58GVnW9KxZfaEd-1">
          <mxGeometry x="-113.82" y="54.50999999999999" width="20.36" height="20" as="geometry" />
        </mxCell>
        <mxCell id="i_6Mm7Y7_z8ILSZmqQqN-9" value="" style="shape=image;verticalLabelPosition=bottom;labelBackgroundColor=default;verticalAlign=top;aspect=fixed;imageAspect=0;image=https://cdn.iconscout.com/icon/free/png-256/free-signature-icon-download-in-svg-png-gif-file-formats--sign-agreement-contract-deal-partnership-user-interface-vol-1-pack-icons-2202523.png;" vertex="1" parent="XZAML_58GVnW9KxZfaEd-1">
          <mxGeometry x="-109.64000000000004" y="80" width="16" height="16" as="geometry" />
        </mxCell>
        <mxCell id="i_6Mm7Y7_z8ILSZmqQqN-10" value="" style="image;aspect=fixed;html=1;points=[];align=left;fontSize=12;image=img/lib/azure2/general/Tag.svg;labelPosition=right;verticalLabelPosition=middle;verticalAlign=middle;flipH=1;" vertex="1" parent="XZAML_58GVnW9KxZfaEd-1">
          <mxGeometry x="-113.99999999999994" y="120" width="20.36" height="20" as="geometry" />
        </mxCell>
        <mxCell id="i_6Mm7Y7_z8ILSZmqQqN-11" value="" style="shape=image;verticalLabelPosition=bottom;labelBackgroundColor=default;verticalAlign=top;aspect=fixed;imageAspect=0;image=https://cdn.iconscout.com/icon/free/png-256/free-signature-icon-download-in-svg-png-gif-file-formats--sign-agreement-contract-deal-partnership-user-interface-vol-1-pack-icons-2202523.png;" vertex="1" parent="XZAML_58GVnW9KxZfaEd-1">
          <mxGeometry x="-109.82" y="145.49" width="16" height="16" as="geometry" />
        </mxCell>
        <mxCell id="i_6Mm7Y7_z8ILSZmqQqN-12" value="CarePlan 1&quot;&lt;div&gt;- Task 1to2&lt;/div&gt;&lt;div&gt;- Task 2to3&lt;br&gt;&lt;/div&gt;" style="rounded=1;whiteSpace=wrap;html=1;align=left;verticalAlign=top;spacingTop=0;spacing=2;spacingLeft=4;fontSize=14;fontStyle=1;" vertex="1" parent="XZAML_58GVnW9KxZfaEd-1">
          <mxGeometry x="-250" y="346" width="150" height="60" as="geometry" />
        </mxCell>
        <mxCell id="i_6Mm7Y7_z8ILSZmqQqN-13" value="CareTeam 1&quot;&lt;div&gt;- Patient 1&lt;/div&gt;&lt;div&gt;- Organization 1&lt;/div&gt;&lt;div&gt;- Organization 2&lt;br&gt;&lt;/div&gt;&lt;div&gt;- Organization 3&lt;br&gt;&lt;/div&gt;" style="rounded=1;whiteSpace=wrap;html=1;align=left;verticalAlign=top;spacingTop=0;spacing=2;spacingLeft=4;fontSize=14;fontStyle=1;" vertex="1" parent="XZAML_58GVnW9KxZfaEd-1">
          <mxGeometry x="-249.82" y="406" width="149.82" height="90" as="geometry" />
        </mxCell>
        <mxCell id="i_6Mm7Y7_z8ILSZmqQqN-14" value="" style="image;aspect=fixed;html=1;points=[];align=left;fontSize=12;image=img/lib/azure2/general/Tag.svg;labelPosition=right;verticalLabelPosition=middle;verticalAlign=middle;flipH=1;" vertex="1" parent="XZAML_58GVnW9KxZfaEd-1">
          <mxGeometry x="-124" y="350.51" width="20.36" height="20" as="geometry" />
        </mxCell>
        <mxCell id="i_6Mm7Y7_z8ILSZmqQqN-15" value="" style="shape=image;verticalLabelPosition=bottom;labelBackgroundColor=default;verticalAlign=top;aspect=fixed;imageAspect=0;image=https://cdn.iconscout.com/icon/free/png-256/free-signature-icon-download-in-svg-png-gif-file-formats--sign-agreement-contract-deal-partnership-user-interface-vol-1-pack-icons-2202523.png;" vertex="1" parent="XZAML_58GVnW9KxZfaEd-1">
          <mxGeometry x="-119.82000000000005" y="376" width="16" height="16" as="geometry" />
        </mxCell>
        <mxCell id="i_6Mm7Y7_z8ILSZmqQqN-16" value="" style="image;aspect=fixed;html=1;points=[];align=left;fontSize=12;image=img/lib/azure2/general/Tag.svg;labelPosition=right;verticalLabelPosition=middle;verticalAlign=middle;flipH=1;" vertex="1" parent="XZAML_58GVnW9KxZfaEd-1">
          <mxGeometry x="-124.17999999999995" y="416" width="20.36" height="20" as="geometry" />
        </mxCell>
        <mxCell id="i_6Mm7Y7_z8ILSZmqQqN-17" value="" style="shape=image;verticalLabelPosition=bottom;labelBackgroundColor=default;verticalAlign=top;aspect=fixed;imageAspect=0;image=https://cdn.iconscout.com/icon/free/png-256/free-signature-icon-download-in-svg-png-gif-file-formats--sign-agreement-contract-deal-partnership-user-interface-vol-1-pack-icons-2202523.png;" vertex="1" parent="XZAML_58GVnW9KxZfaEd-1">
          <mxGeometry x="-120" y="441.49" width="16" height="16" as="geometry" />
        </mxCell>
      </root>
    </mxGraphModel>
  </diagram>
  <diagram name="getdata1" id="FzNLvmpxYYv-7vHm9Djq">
    <mxGraphModel dx="2220" dy="856" grid="1" gridSize="10" guides="1" tooltips="1" connect="1" arrows="1" fold="1" page="1" pageScale="1" pageWidth="800" pageHeight="500" backgroundImage="{&quot;src&quot;:&quot;data:page/id,5ro5NTjHnK7VgrN_J4Qa&quot;}" math="0" shadow="0">
      <root>
        <mxCell id="XeCUnvLbQoMzBwxdF4o--0" />
        <mxCell id="XeCUnvLbQoMzBwxdF4o--1" parent="XeCUnvLbQoMzBwxdF4o--0" />
        <mxCell id="XeCUnvLbQoMzBwxdF4o--17" value="" style="shape=waypoint;sketch=0;size=6;pointerEvents=1;points=[];fillColor=none;resizable=0;rotatable=0;perimeter=centerPerimeter;snapToPoint=1;strokeColor=none;" parent="XeCUnvLbQoMzBwxdF4o--1" vertex="1">
          <mxGeometry x="-646" y="30" width="20" height="20" as="geometry" />
        </mxCell>
        <mxCell id="XeCUnvLbQoMzBwxdF4o--18" value="" style="shape=waypoint;sketch=0;size=6;pointerEvents=1;points=[];fillColor=none;resizable=0;rotatable=0;perimeter=centerPerimeter;snapToPoint=1;strokeColor=none;" parent="XeCUnvLbQoMzBwxdF4o--1" vertex="1">
          <mxGeometry x="-249" y="30" width="20" height="20" as="geometry" />
        </mxCell>
        <mxCell id="XeCUnvLbQoMzBwxdF4o--19" value="" style="shape=waypoint;sketch=0;size=6;pointerEvents=1;points=[];fillColor=none;resizable=0;rotatable=0;perimeter=centerPerimeter;snapToPoint=1;strokeColor=none;" parent="XeCUnvLbQoMzBwxdF4o--1" vertex="1">
          <mxGeometry x="-249" y="280" width="20" height="20" as="geometry" />
        </mxCell>
        <mxCell id="zpOY931_V3ErjLJ081RG-0" value="CarePlan 1 v2&lt;div&gt;- Task 1to2&lt;/div&gt;&lt;div&gt;- Task 2to3&lt;/div&gt;" style="rounded=1;whiteSpace=wrap;html=1;align=left;verticalAlign=top;spacingTop=0;spacing=2;spacingLeft=4;fontSize=14;fontStyle=1;strokeColor=#000000;" parent="XeCUnvLbQoMzBwxdF4o--1" vertex="1">
          <mxGeometry x="-750" y="58.5" width="130" height="63.5" as="geometry" />
        </mxCell>
        <mxCell id="zpOY931_V3ErjLJ081RG-1" value="CareTeam 1 v3&lt;div&gt;- Patient 1&lt;/div&gt;&lt;div&gt;- Care Provider 1&lt;/div&gt;&lt;div&gt;- Care Provider 2&lt;/div&gt;&lt;div&gt;- Care Provider 3&lt;/div&gt;" style="rounded=1;whiteSpace=wrap;html=1;align=left;verticalAlign=top;spacingTop=0;spacing=2;spacingLeft=4;fontSize=14;fontStyle=1;" parent="XeCUnvLbQoMzBwxdF4o--1" vertex="1">
          <mxGeometry x="-750" y="128" width="130" height="95.5" as="geometry" />
        </mxCell>
        <mxCell id="zpOY931_V3ErjLJ081RG-4" value="CarePlan 1&#39; v2&lt;div&gt;- Task 1to2&lt;/div&gt;&lt;div&gt;- Task 2to3&lt;/div&gt;" style="rounded=1;whiteSpace=wrap;html=1;align=left;verticalAlign=top;spacingTop=0;spacing=2;spacingLeft=4;fontSize=14;fontStyle=1;strokeColor=#000000;" parent="XeCUnvLbQoMzBwxdF4o--1" vertex="1">
          <mxGeometry x="-249" y="309" width="130" height="63.5" as="geometry" />
        </mxCell>
        <mxCell id="zpOY931_V3ErjLJ081RG-5" value="CareTeam 1&#39; v3&lt;div&gt;- Patient 1&lt;/div&gt;&lt;div&gt;- Care Provider 1&lt;/div&gt;&lt;div&gt;- Care Provider 2&lt;/div&gt;&lt;div&gt;- Care Provider 3&lt;/div&gt;" style="rounded=1;whiteSpace=wrap;html=1;align=left;verticalAlign=top;spacingTop=0;spacing=2;spacingLeft=4;fontSize=14;fontStyle=1;" parent="XeCUnvLbQoMzBwxdF4o--1" vertex="1">
          <mxGeometry x="-249" y="378.5" width="130" height="95.5" as="geometry" />
        </mxCell>
        <mxCell id="gybSY3oJakJjICR4n4_2-0" value="CarePlan 1&#39; v2&lt;div&gt;- Task 1to2&lt;/div&gt;&lt;div&gt;- Task 2to3&lt;/div&gt;" style="rounded=1;whiteSpace=wrap;html=1;align=left;verticalAlign=top;spacingTop=0;spacing=2;spacingLeft=4;fontSize=14;fontStyle=1;strokeColor=#000000;" parent="XeCUnvLbQoMzBwxdF4o--1" vertex="1">
          <mxGeometry x="-249" y="58.5" width="130" height="63.5" as="geometry" />
        </mxCell>
        <mxCell id="gybSY3oJakJjICR4n4_2-1" value="CareTeam 1&#39; v3&lt;div&gt;- Patient 1&lt;/div&gt;&lt;div&gt;- Care Provider 1&lt;/div&gt;&lt;div&gt;- Care Provider 2&lt;/div&gt;&lt;div&gt;- Care Provider 3&lt;/div&gt;" style="rounded=1;whiteSpace=wrap;html=1;align=left;verticalAlign=top;spacingTop=0;spacing=2;spacingLeft=4;fontSize=14;fontStyle=1;strokeWidth=3;" parent="XeCUnvLbQoMzBwxdF4o--1" vertex="1">
          <mxGeometry x="-249" y="128" width="130" height="95.5" as="geometry" />
        </mxCell>
        <mxCell id="Mqr-BQxNECeeVURAFLtb-0" value="" style="shape=actor;whiteSpace=wrap;html=1;fillColor=#000000;" parent="XeCUnvLbQoMzBwxdF4o--1" vertex="1">
          <mxGeometry x="-150" y="34" width="18" height="22" as="geometry" />
        </mxCell>
      </root>
    </mxGraphModel>
  </diagram>
  <diagram name="getdata2" id="f4nthnPXFWkbYnp1HLjI">
    <mxGraphModel dx="2220" dy="856" grid="1" gridSize="10" guides="1" tooltips="1" connect="1" arrows="1" fold="1" page="1" pageScale="1" pageWidth="800" pageHeight="500" backgroundImage="{&quot;src&quot;:&quot;data:page/id,5ro5NTjHnK7VgrN_J4Qa&quot;}" math="0" shadow="0">
      <root>
        <mxCell id="-C527QX52rqFm8yJNc50-0" />
        <mxCell id="-C527QX52rqFm8yJNc50-1" parent="-C527QX52rqFm8yJNc50-0" />
        <mxCell id="-C527QX52rqFm8yJNc50-2" value="" style="shape=waypoint;sketch=0;size=6;pointerEvents=1;points=[];fillColor=none;resizable=0;rotatable=0;perimeter=centerPerimeter;snapToPoint=1;strokeColor=none;" parent="-C527QX52rqFm8yJNc50-1" vertex="1">
          <mxGeometry x="-646" y="30" width="20" height="20" as="geometry" />
        </mxCell>
        <mxCell id="rRN5N_ErJUS8Ru8kvLKi-0" style="edgeStyle=orthogonalEdgeStyle;rounded=0;orthogonalLoop=1;jettySize=auto;html=1;strokeWidth=3;" parent="-C527QX52rqFm8yJNc50-1" source="-C527QX52rqFm8yJNc50-3" target="-C527QX52rqFm8yJNc50-2" edge="1">
          <mxGeometry relative="1" as="geometry">
            <Array as="points">
              <mxPoint x="-430" y="40" />
              <mxPoint x="-430" y="40" />
            </Array>
          </mxGeometry>
        </mxCell>
        <mxCell id="rRN5N_ErJUS8Ru8kvLKi-1" style="edgeStyle=orthogonalEdgeStyle;rounded=0;orthogonalLoop=1;jettySize=auto;html=1;strokeWidth=3;" parent="-C527QX52rqFm8yJNc50-1" source="-C527QX52rqFm8yJNc50-3" target="-C527QX52rqFm8yJNc50-4" edge="1">
          <mxGeometry relative="1" as="geometry">
            <Array as="points">
              <mxPoint x="-360" y="40" />
              <mxPoint x="-360" y="290" />
            </Array>
          </mxGeometry>
        </mxCell>
        <mxCell id="-C527QX52rqFm8yJNc50-3" value="" style="shape=waypoint;sketch=0;size=6;pointerEvents=1;points=[];fillColor=none;resizable=0;rotatable=0;perimeter=centerPerimeter;snapToPoint=1;strokeColor=none;" parent="-C527QX52rqFm8yJNc50-1" vertex="1">
          <mxGeometry x="-249" y="30" width="20" height="20" as="geometry" />
        </mxCell>
        <mxCell id="-C527QX52rqFm8yJNc50-4" value="" style="shape=waypoint;sketch=0;size=6;pointerEvents=1;points=[];fillColor=none;resizable=0;rotatable=0;perimeter=centerPerimeter;snapToPoint=1;strokeColor=none;" parent="-C527QX52rqFm8yJNc50-1" vertex="1">
          <mxGeometry x="-249" y="280" width="20" height="20" as="geometry" />
        </mxCell>
        <mxCell id="-C527QX52rqFm8yJNc50-9" value="CarePlan 1&#39; v2&lt;div&gt;- Task 1to2&lt;/div&gt;&lt;div&gt;- Task 2to3&lt;/div&gt;" style="rounded=1;whiteSpace=wrap;html=1;align=left;verticalAlign=top;spacingTop=0;spacing=2;spacingLeft=4;fontSize=14;fontStyle=1;strokeColor=#000000;" parent="-C527QX52rqFm8yJNc50-1" vertex="1">
          <mxGeometry x="-249" y="308" width="130" height="63.5" as="geometry" />
        </mxCell>
        <mxCell id="-C527QX52rqFm8yJNc50-10" value="CareTeam 1&#39; v3&lt;div&gt;- Patient 1&lt;/div&gt;&lt;div&gt;- Care Provider 1&lt;/div&gt;&lt;div&gt;- Care Provider 2&lt;/div&gt;&lt;div&gt;- Care Provider 3&lt;/div&gt;" style="rounded=1;whiteSpace=wrap;html=1;align=left;verticalAlign=top;spacingTop=0;spacing=2;spacingLeft=4;fontSize=14;fontStyle=1;strokeWidth=3;" parent="-C527QX52rqFm8yJNc50-1" vertex="1">
          <mxGeometry x="-249" y="377.5" width="130" height="95.5" as="geometry" />
        </mxCell>
        <mxCell id="-C527QX52rqFm8yJNc50-11" value="CarePlan 1&#39; v2&lt;div&gt;- Task 1to2&lt;/div&gt;&lt;div&gt;- Task 2to3&lt;/div&gt;" style="rounded=1;whiteSpace=wrap;html=1;align=left;verticalAlign=top;spacingTop=0;spacing=2;spacingLeft=4;fontSize=14;fontStyle=1;strokeColor=#000000;" parent="-C527QX52rqFm8yJNc50-1" vertex="1">
          <mxGeometry x="-249" y="58.5" width="130" height="63.5" as="geometry" />
        </mxCell>
        <mxCell id="-C527QX52rqFm8yJNc50-12" value="CareTeam 1&#39; v3&lt;div&gt;- Patient 1&lt;/div&gt;&lt;div&gt;- Care Provider 1&lt;/div&gt;&lt;div&gt;- Care Provider 2&lt;/div&gt;&lt;div&gt;- Care Provider 3&lt;/div&gt;" style="rounded=1;whiteSpace=wrap;html=1;align=left;verticalAlign=top;spacingTop=0;spacing=2;spacingLeft=4;fontSize=14;fontStyle=1;strokeWidth=1;" parent="-C527QX52rqFm8yJNc50-1" vertex="1">
          <mxGeometry x="-249" y="128" width="130" height="95.5" as="geometry" />
        </mxCell>
        <mxCell id="1FUCNouONivpxvvnsuPE-0" value="" style="shape=actor;whiteSpace=wrap;html=1;fillColor=#000000;" parent="-C527QX52rqFm8yJNc50-1" vertex="1">
          <mxGeometry x="-150" y="34" width="18" height="22" as="geometry" />
        </mxCell>
        <mxCell id="h0BxG7vJPe-F6ZEQtCpj-0" value="CarePlan 1 v2&lt;div&gt;- Task 1to2&lt;/div&gt;&lt;div&gt;- Task 2to3&lt;/div&gt;" style="rounded=1;whiteSpace=wrap;html=1;align=left;verticalAlign=top;spacingTop=0;spacing=2;spacingLeft=4;fontSize=14;fontStyle=1;strokeColor=#000000;" vertex="1" parent="-C527QX52rqFm8yJNc50-1">
          <mxGeometry x="-750" y="58.5" width="130" height="63.5" as="geometry" />
        </mxCell>
        <mxCell id="h0BxG7vJPe-F6ZEQtCpj-1" value="CareTeam 1 v3&lt;div&gt;- Patient 1&lt;/div&gt;&lt;div&gt;- Care Provider 1&lt;/div&gt;&lt;div&gt;- Care Provider 2&lt;/div&gt;&lt;div&gt;- Care Provider 3&lt;/div&gt;" style="rounded=1;whiteSpace=wrap;html=1;align=left;verticalAlign=top;spacingTop=0;spacing=2;spacingLeft=4;fontSize=14;fontStyle=1;strokeWidth=3;" vertex="1" parent="-C527QX52rqFm8yJNc50-1">
          <mxGeometry x="-750" y="128" width="130" height="95.5" as="geometry" />
        </mxCell>
      </root>
    </mxGraphModel>
  </diagram>
  <diagram id="pKgziUaKLTQ8jrkvlHAj" name="backgr1-2">
    <mxGraphModel dx="1868" dy="617" grid="1" gridSize="10" guides="1" tooltips="1" connect="1" arrows="1" fold="1" page="1" pageScale="1" pageWidth="800" pageHeight="500" math="0" shadow="0">
      <root>
        <mxCell id="0" />
        <mxCell id="1" parent="0" />
        <mxCell id="Z2wh5E8DGd2KuNheM6mN-1" value="" style="rounded=1;whiteSpace=wrap;html=1;fillColor=none;strokeColor=#E8D0A9;strokeWidth=8;" parent="1" vertex="1">
          <mxGeometry x="-790" y="27" width="381" height="394" as="geometry" />
        </mxCell>
        <mxCell id="Z2wh5E8DGd2KuNheM6mN-2" value="" style="rounded=1;whiteSpace=wrap;html=1;fillColor=none;strokeColor=#c1dad6;strokeWidth=8;" parent="1" vertex="1">
          <mxGeometry x="-320" y="27" width="260" height="223" as="geometry" />
        </mxCell>
        <mxCell id="Z2wh5E8DGd2KuNheM6mN-3" value="&lt;span style=&quot;font-size: 16px;&quot;&gt;&lt;b style=&quot;font-size: 16px;&quot;&gt;Care Provider 1&lt;/b&gt;&lt;/span&gt;" style="rounded=0;whiteSpace=wrap;html=1;verticalAlign=middle;spacingTop=0;fillColor=none;strokeColor=none;fontSize=16;spacing=0;" parent="1" vertex="1">
          <mxGeometry x="-740" y="10" width="130" height="15" as="geometry" />
        </mxCell>
        <mxCell id="Z2wh5E8DGd2KuNheM6mN-4" value="&lt;span style=&quot;font-size: 16px;&quot;&gt;&lt;b style=&quot;font-size: 16px;&quot;&gt;Care Provider 2&lt;/b&gt;&lt;/span&gt;" style="rounded=0;whiteSpace=wrap;html=1;verticalAlign=middle;spacingTop=0;fillColor=none;strokeColor=none;fontSize=16;spacing=0;" parent="1" vertex="1">
          <mxGeometry x="-284" y="10" width="130" height="15" as="geometry" />
        </mxCell>
        <mxCell id="Z2wh5E8DGd2KuNheM6mN-6" value="&lt;span style=&quot;font-size: 16px;&quot;&gt;&lt;b style=&quot;font-size: 16px;&quot;&gt;EHR 1 (CPC+CPS)&lt;/b&gt;&lt;/span&gt;" style="rounded=0;whiteSpace=wrap;html=1;verticalAlign=middle;spacingTop=0;fillColor=none;strokeColor=none;fontSize=16;spacing=0;" parent="1" vertex="1">
          <mxGeometry x="-694" y="33" width="189" height="15" as="geometry" />
        </mxCell>
        <mxCell id="Z2wh5E8DGd2KuNheM6mN-7" value="&lt;span style=&quot;font-size: 16px;&quot;&gt;&lt;b style=&quot;font-size: 16px;&quot;&gt;EHR 2 (CPC)&lt;/b&gt;&lt;/span&gt;" style="rounded=0;whiteSpace=wrap;html=1;verticalAlign=middle;spacingTop=0;fillColor=none;strokeColor=none;fontSize=16;spacing=0;" parent="1" vertex="1">
          <mxGeometry x="-250" y="33" width="130" height="15" as="geometry" />
        </mxCell>
        <mxCell id="tTt1OvRAvVw8arG4Dv2W-1" value="" style="shape=image;verticalLabelPosition=bottom;labelBackgroundColor=default;verticalAlign=top;aspect=fixed;imageAspect=0;image=https://cdn.iconscout.com/icon/free/png-256/free-signature-icon-download-in-svg-png-gif-file-formats--sign-agreement-contract-deal-partnership-user-interface-vol-1-pack-icons-2202523.png;" vertex="1" parent="1">
          <mxGeometry x="-286.14" y="350" width="16" height="16" as="geometry" />
        </mxCell>
        <mxCell id="tTt1OvRAvVw8arG4Dv2W-2" value="&lt;div style=&quot;&quot;&gt;&lt;b style=&quot;background-color: initial;&quot;&gt;Provenance/signature&lt;/b&gt;&lt;/div&gt;" style="rounded=0;whiteSpace=wrap;html=1;verticalAlign=middle;spacingTop=0;fillColor=none;strokeColor=none;fontSize=16;spacing=0;align=left;" vertex="1" parent="1">
          <mxGeometry x="-240.5" y="350" width="170" height="15" as="geometry" />
        </mxCell>
      </root>
    </mxGraphModel>
  </diagram>
  <diagram id="5ro5NTjHnK7VgrN_J4Qa" name="backgr1-2-3">
    <mxGraphModel dx="2220" dy="856" grid="1" gridSize="10" guides="1" tooltips="1" connect="1" arrows="1" fold="1" page="1" pageScale="1" pageWidth="800" pageHeight="500" background="none" math="0" shadow="0">
      <root>
        <mxCell id="0" />
        <mxCell id="1" parent="0" />
        <mxCell id="C93egfXptNErJaH51v0M-1" value="" style="rounded=1;whiteSpace=wrap;html=1;fillColor=none;strokeColor=#acd1e9;strokeWidth=8;" parent="1" vertex="1">
          <mxGeometry x="-320" y="277" width="260" height="206.5" as="geometry" />
        </mxCell>
        <mxCell id="5kkDVMu98zfOQRz33VzZ-4" value="&lt;span style=&quot;font-size: 16px;&quot;&gt;&lt;b style=&quot;font-size: 16px;&quot;&gt;Care Provider 3&lt;/b&gt;&lt;/span&gt;" style="rounded=0;whiteSpace=wrap;html=1;verticalAlign=middle;spacingTop=0;fillColor=none;strokeColor=none;fontSize=16;spacing=0;" parent="1" vertex="1">
          <mxGeometry x="-284" y="260" width="130" height="15" as="geometry" />
        </mxCell>
        <mxCell id="lzGmVAYP7ThdAIALXzfx-1" value="" style="rounded=1;whiteSpace=wrap;html=1;fillColor=none;strokeColor=#E8D0A9;strokeWidth=8;" parent="1" vertex="1">
          <mxGeometry x="-790" y="27" width="381" height="394" as="geometry" />
        </mxCell>
        <mxCell id="lzGmVAYP7ThdAIALXzfx-2" value="" style="rounded=1;whiteSpace=wrap;html=1;fillColor=none;strokeColor=#c1dad6;strokeWidth=8;" parent="1" vertex="1">
          <mxGeometry x="-320" y="27" width="260" height="223" as="geometry" />
        </mxCell>
        <mxCell id="lzGmVAYP7ThdAIALXzfx-3" value="&lt;span style=&quot;font-size: 16px;&quot;&gt;&lt;b style=&quot;font-size: 16px;&quot;&gt;Care Provider 1&lt;/b&gt;&lt;/span&gt;" style="rounded=0;whiteSpace=wrap;html=1;verticalAlign=middle;spacingTop=0;fillColor=none;strokeColor=none;fontSize=16;spacing=0;" parent="1" vertex="1">
          <mxGeometry x="-740" y="10" width="130" height="15" as="geometry" />
        </mxCell>
        <mxCell id="lzGmVAYP7ThdAIALXzfx-4" value="&lt;span style=&quot;font-size: 16px;&quot;&gt;&lt;b style=&quot;font-size: 16px;&quot;&gt;Care Provider 2&lt;/b&gt;&lt;/span&gt;" style="rounded=0;whiteSpace=wrap;html=1;verticalAlign=middle;spacingTop=0;fillColor=none;strokeColor=none;fontSize=16;spacing=0;" parent="1" vertex="1">
          <mxGeometry x="-284" y="10" width="130" height="15" as="geometry" />
        </mxCell>
        <mxCell id="2SJHLKVQsLmhlC2__kAV-1" value="&lt;span style=&quot;font-size: 16px;&quot;&gt;&lt;b style=&quot;font-size: 16px;&quot;&gt;EHR 1 (CPC+CPS)&lt;/b&gt;&lt;/span&gt;" style="rounded=0;whiteSpace=wrap;html=1;verticalAlign=middle;spacingTop=0;fillColor=none;strokeColor=none;fontSize=16;spacing=0;" vertex="1" parent="1">
          <mxGeometry x="-694" y="33" width="189" height="15" as="geometry" />
        </mxCell>
        <mxCell id="2SJHLKVQsLmhlC2__kAV-2" value="&lt;span style=&quot;font-size: 16px;&quot;&gt;&lt;b style=&quot;font-size: 16px;&quot;&gt;EHR 2 (CPC)&lt;/b&gt;&lt;/span&gt;" style="rounded=0;whiteSpace=wrap;html=1;verticalAlign=middle;spacingTop=0;fillColor=none;strokeColor=none;fontSize=16;spacing=0;" vertex="1" parent="1">
          <mxGeometry x="-250" y="33" width="130" height="15" as="geometry" />
        </mxCell>
        <mxCell id="2SJHLKVQsLmhlC2__kAV-3" value="&lt;span style=&quot;font-size: 16px;&quot;&gt;&lt;b style=&quot;font-size: 16px;&quot;&gt;EHR 3 (CPC)&lt;/b&gt;&lt;/span&gt;" style="rounded=0;whiteSpace=wrap;html=1;verticalAlign=middle;spacingTop=0;fillColor=none;strokeColor=none;fontSize=16;spacing=0;" vertex="1" parent="1">
          <mxGeometry x="-252" y="283" width="130" height="15" as="geometry" />
        </mxCell>
      </root>
    </mxGraphModel>
  </diagram>
</mxfile>
